<svg width="91" height="111" viewBox="0 0 91 111" fill="none" xmlns="http://www.w3.org/2000/svg">
<path d="M35.1797 60.4707L38.4199 62.0521L38.9526 61.3784C38.9526 61.3784 38.982 61.3439 39.033 61.2813C39.0585 61.2512 39.0878 61.2143 39.1244 61.1701C40.5107 59.5145 49.7719 48.8781 55.6143 53.6663C60.1427 57.3799 48.3418 61.3808 41.2661 63.3558C41.2295 63.365 41.1896 63.3766 41.1492 63.3883L41.5072 63.562C41.5105 63.562 41.5144 63.562 41.5178 63.562C41.551 63.5572 41.5837 63.5528 41.614 63.5455C42.9497 63.3029 56.7504 60.6469 60.352 55.236L60.3631 55.2176C60.5101 55.0002 60.6406 54.7719 60.7533 54.5346C63.702 48.3598 54.0356 44.3472 48.8066 45.3495C43.5777 46.3518 35.1797 60.4707 35.1797 60.4707Z" fill="#E2231A"/>
<path d="M55.614 54.0688C60.1424 57.6304 48.3415 61.4668 41.2658 63.3607L41.5063 63.5587C41.5097 63.5587 41.5136 63.5587 41.5169 63.5587C41.5501 63.5543 41.5829 63.55 41.6132 63.5432C54.8119 61.5182 59.0159 57.6925 60.3512 55.5744L60.3623 55.5569C60.3806 55.5278 60.3988 55.5011 60.4133 55.4749C60.9204 54.6308 60.8512 53.7008 60.2526 52.8815C59.2455 51.4982 57.1037 49.4466 53.4256 49.7951C48.3896 50.2703 40.3616 59.7597 39.125 61.2673C40.5098 59.6767 49.7715 49.4776 55.614 54.0688Z" fill="#9D162E"/>
<path d="M25.7489 45.9017C20.5199 44.8906 10.8536 48.9372 13.8017 55.164C13.9148 55.4031 14.0454 55.6333 14.1925 55.8527C14.1958 55.86 14.1997 55.8644 14.2035 55.8716C17.8051 61.3262 31.6082 64.0035 32.9411 64.2511C32.9704 64.2583 33.0031 64.2627 33.0373 64.2676C33.0412 64.2676 33.045 64.27 33.0484 64.27L33.4059 64.0948C33.3659 64.0831 33.326 64.0715 33.2894 64.0618C26.2137 62.0718 14.4128 58.0359 18.9412 54.2908C24.7832 49.4623 34.0449 60.1885 35.4312 61.8582C35.4677 61.9024 35.4971 61.9397 35.5226 61.9698C35.5736 62.0354 35.6029 62.0703 35.6029 62.0703L36.1356 62.7498L39.3759 61.1554C39.3759 61.1554 30.9827 46.9107 25.7489 45.9017Z" fill="#E2231A"/>
<path d="M18.9389 54.2921C14.4105 58.0372 26.2114 62.0716 33.2871 64.0631L33.0465 64.2713C33.0432 64.2713 33.0393 64.2689 33.0355 64.2689C33.0027 64.264 32.97 64.2597 32.9392 64.2524C19.7405 62.1231 15.5369 58.1003 14.2017 55.873C14.1978 55.8657 14.194 55.8613 14.1906 55.854C14.1723 55.8239 14.154 55.7958 14.1396 55.7676C13.6324 54.8804 13.7017 53.9024 14.2998 53.0408C15.3069 51.5847 17.4491 49.4287 21.1273 49.7952C26.1633 50.2951 34.1908 60.2738 35.4279 61.8595C34.0426 60.1898 24.7809 49.4637 18.9389 54.2921Z" fill="#9D162E"/>
<path d="M60.3695 62.7422L59.6208 72.4908L13.3488 73.2524L12.002 65.0268L27.9694 64.2711L47.4253 63.3542L60.3695 62.7422Z" fill="#FFCE00"/>
<path d="M60.2579 62.7422L59.4688 72.4908L70.0441 76.6034L72.2536 69.6728L60.2579 62.7422Z" fill="#FFCE00"/>
<path d="M14.1172 74.1648L18.647 110.265H56.852L59.1174 72.5039L14.1172 74.1648Z" fill="#FFCE00"/>
<path d="M66.8379 104.86L70.1403 76.6019L59.117 72.5039L56.8516 110.265L66.8379 104.86Z" fill="#FFCE00"/>
<path d="M69.8903 76.6017L60.0243 73.2507L13.8668 74.1647L13.1113 73.2507L59.7726 72.2354L69.8903 76.6017Z" fill="#FFB819"/>
<path d="M32.3477 64.0653L33.3423 73.78V110.266H42.2041V73.6047L41.4992 63.6328L32.3477 64.0653Z" fill="#E2231A"/>
<path d="M65.8629 65.9795L64.0869 74.0988L62.3652 107.283L65.8629 105.39L67.7693 75.6879L69.3553 67.9972L65.8629 65.9795Z" fill="#E2231A"/>
<path d="M47.4262 63.8123L27.9703 64.271C27.9313 64.1694 27.9109 64.0615 27.9102 63.9526C27.9102 62.3509 32.2802 61.0583 37.6742 61.0583C42.9109 61.0583 47.1813 62.2786 47.4262 63.8123Z" fill="#E2231A"/>
<path d="M15.6852 39.1119L-5.80039 28.4148L-6.83203 21.209L0.215299 21.9997L15.6852 39.1119Z" fill="#FFB819"/>
<path d="M24.2795 26.7811L14.998 10.2101L17.0604 5.87573L24.2795 26.7811Z" fill="#FFB819"/>
<path d="M36.4848 29.4558L39.5788 32.4034L35.2819 0.673828L29.4375 2.23429L36.4848 29.4558Z" fill="#FFB819"/>
<path d="M48.1738 25.8152V14.3721H51.096L48.1738 25.8152Z" fill="#FFB819"/>
<path d="M69.4857 8.12988L56.0781 30.1613V31.5368L71.7202 10.0369L69.4857 8.12988Z" fill="#FFB819"/>
<path d="M63.9004 33.6176L74.9872 24.363L75.6748 27.4194L63.9004 33.6176Z" fill="#FFB819"/>
<path d="M85.9877 31.5369L66.5645 40.0323L84.0971 37.952L90.1133 34.6573L85.9877 31.5369Z" fill="#FFB819"/>
<path d="M1.23619 47.2689C-0.191949 47.2689 -1.35352 46.206 -1.35352 44.8994C-1.35352 43.5927 -0.191949 42.5293 1.23619 42.5293C2.66432 42.5293 3.82636 43.5923 3.82636 44.8994C3.82636 46.2065 2.66432 47.2689 1.23619 47.2689ZM1.23619 42.7492C-0.059144 42.7492 -1.11341 43.7136 -1.11341 44.8994C-1.11341 46.0851 -0.059144 47.0491 1.23619 47.0491C2.53152 47.0491 3.58578 46.0846 3.58578 44.8994C3.58578 43.7141 2.53152 42.7492 1.23619 42.7492Z" fill="#FF9E16"/>
<path d="M10.2563 83.6581C9.5422 83.6581 8.96094 83.1267 8.96094 82.4734C8.96094 81.8201 9.5422 81.2881 10.2563 81.2881C10.9703 81.2881 11.5511 81.822 11.5511 82.4734C11.5511 83.1247 10.9703 83.6581 10.2563 83.6581ZM10.2563 81.3983C9.60812 81.3983 9.08123 81.8807 9.08123 82.4734C9.08123 83.066 9.60812 83.548 10.2563 83.548C10.9044 83.548 11.4308 83.066 11.4308 82.4734C11.4308 81.8807 10.9039 81.3983 10.2563 81.3983Z" fill="#605B55"/>
<path d="M72.539 86.0283C71.8249 86.0283 71.2441 85.4944 71.2441 84.8435C71.2441 84.1926 71.8249 83.6582 72.539 83.6582C73.2531 83.6582 73.8343 84.1921 73.8343 84.8435C73.8343 85.4948 73.2531 86.0283 72.539 86.0283ZM72.539 83.7684C71.8913 83.7684 71.3644 84.2504 71.3644 84.8435C71.3644 85.4366 71.8937 85.9181 72.539 85.9181C73.1842 85.9181 73.714 85.4361 73.714 84.8435C73.714 84.2508 73.1867 83.7684 72.539 83.7684Z" fill="#FF9E16"/>
<path d="M75.1297 59.203C74.6174 59.2031 74.1165 59.05 73.6905 58.7629C73.2645 58.4759 72.9324 58.0678 72.7363 57.5904C72.5402 57.1129 72.4889 56.5876 72.5888 56.0807C72.6887 55.5738 72.9354 55.1082 73.2977 54.7428C73.66 54.3774 74.1216 54.1285 74.624 54.0277C75.1265 53.9269 75.6474 53.9787 76.1207 54.1765C76.594 54.3743 76.9985 54.7093 77.2831 55.139C77.5677 55.5688 77.7195 56.074 77.7194 56.5908C77.7187 57.2834 77.4456 57.9473 76.9601 58.4371C76.4746 58.9268 75.8163 59.2023 75.1297 59.203ZM75.1297 54.2207C74.665 54.2207 74.2108 54.3597 73.8244 54.6201C73.438 54.8806 73.1368 55.2507 72.959 55.6838C72.7812 56.1169 72.7346 56.5934 72.8253 57.0531C72.9159 57.5129 73.1397 57.9352 73.4683 58.2667C73.7969 58.5981 74.2156 58.8238 74.6713 58.9153C75.1271 59.0067 75.5995 58.9598 76.0289 58.7804C76.4582 58.601 76.8252 58.2973 77.0833 57.9075C77.3415 57.5177 77.4793 57.0595 77.4793 56.5908C77.4786 55.9624 77.2308 55.36 76.7903 54.9157C76.3498 54.4714 75.7526 54.2215 75.1297 54.2207Z" fill="#E2231A"/>
<path d="M33.4237 46.4868C33.7599 46.1477 33.7599 45.5979 33.4237 45.2588C33.0876 44.9197 32.5425 44.9197 32.2064 45.2588C31.8702 45.5979 31.8702 46.1477 32.2064 46.4868C32.5425 46.8259 33.0876 46.8259 33.4237 46.4868Z" fill="#605B55"/>
<path d="M8.32648 100.601C8.43569 100.134 8.14912 99.6663 7.68641 99.5561C7.2237 99.446 6.76007 99.735 6.65087 100.202C6.54166 100.669 6.82822 101.136 7.29093 101.246C7.75364 101.356 8.21727 101.067 8.32648 100.601Z" fill="#FF9E16"/>
<path d="M76.3632 72.4292C76.6994 72.0901 76.6994 71.5403 76.3632 71.2012C76.027 70.8621 75.482 70.8621 75.1458 71.2012C74.8096 71.5403 74.8096 72.0901 75.1458 72.4292C75.482 72.7683 76.027 72.7683 76.3632 72.4292Z" fill="#FF9E16"/>
<path d="M14.3515 25.932C14.5651 25.0192 14.0046 24.1045 13.0996 23.889C12.1946 23.6736 11.2878 24.2389 11.0742 25.1518C10.8607 26.0647 11.4211 26.9793 12.3261 27.1948C13.2311 27.4103 14.1379 26.8449 14.3515 25.932Z" fill="#E2231A"/>
<path d="M60.9736 35.5023C61.5242 35.5023 61.9706 35.0521 61.9706 34.4967C61.9706 33.9412 61.5242 33.491 60.9736 33.491C60.4229 33.491 59.9766 33.9412 59.9766 34.4967C59.9766 35.0521 60.4229 35.5023 60.9736 35.5023Z" fill="#FF9E16"/>
<path d="M47.8469 33.6261L47.549 33.3262L46.2984 34.5876L45.0474 33.3262L44.75 33.6261L46.0006 34.8881L44.75 36.1496L45.0474 36.45L46.2984 35.1881L47.549 36.45L47.8469 36.1496L46.5958 34.8881L47.8469 33.6261Z" fill="#FFCE00"/>
<path d="M75.7545 95.7942L75.6347 95.6729L75.1294 96.1825L74.6242 95.6729L74.5039 95.7942L75.0091 96.3038L74.5039 96.8135L74.6242 96.9348L75.1294 96.4252L75.6347 96.9348L75.7545 96.8135L75.2497 96.3038L75.7545 95.7942Z" fill="#FF9E16"/>
<path d="M11.8062 60.0054L11.6571 59.8555L11.032 60.486L10.4065 59.8555L10.2578 60.0054L10.8829 60.6364L10.2578 61.2674L10.4065 61.4174L11.032 60.7864L11.6571 61.4174L11.8062 61.2674L11.1807 60.6364L11.8062 60.0054Z" fill="#FF9E16"/>
<path d="M60.7516 57.7847L60.6029 57.6348L59.9773 58.2653L59.3518 57.6348L59.2031 57.7847L59.8287 58.4157L59.2031 59.0462L59.3518 59.1967L59.9773 58.5657L60.6029 59.1967L60.7516 59.0462L60.126 58.4157L60.7516 57.7847Z" fill="#FF9E16"/>
<path d="M23.3219 32.9864L23.1732 32.8359L22.5477 33.4669L21.9221 32.8359L21.7734 32.9864L22.399 33.6169L21.7734 34.2479L21.9221 34.3979L22.5477 33.7669L23.1732 34.3979L23.3219 34.2479L22.6963 33.6169L23.3219 32.9864Z" fill="#FF9E16"/>
<path d="M66.2418 44.0118L66.0926 43.8613L65.4676 44.4923L64.842 43.8613L64.6934 44.0118L65.3184 44.6423L64.6934 45.2733L64.842 45.4232L65.4676 44.7928L66.0926 45.4232L66.2418 45.2733L65.6163 44.6423L66.2418 44.0118Z" fill="#605B55"/>
<path opacity="0.15" d="M29.8105 104.428C29.8105 104.428 48.4803 88.3349 53.0346 81.6271C55.3659 78.1936 59.0137 65.8525 59.0137 65.8525L68.7508 71.478L66.829 77.1039L65.2281 99.3256L56.2489 104.428H29.8105Z" fill="#F19A00"/>
</svg>
