<svg width="220" height="217" viewBox="0 0 220 217" fill="none" xmlns="http://www.w3.org/2000/svg">
<path d="M218.554 70.5246C218.554 70.9073 218.441 71.2813 218.23 71.5995C218.019 71.9177 217.719 72.1657 217.368 72.3121C217.017 72.4585 216.63 72.4969 216.258 72.4222C215.885 72.3476 215.542 72.1633 215.274 71.8927C215.005 71.6221 214.822 71.2774 214.748 70.9021C214.674 70.5268 214.712 70.1377 214.857 69.7842C215.003 69.4307 215.249 69.1285 215.565 68.9159C215.881 68.7033 216.252 68.5898 216.632 68.5898C217.142 68.5898 217.631 68.7937 217.991 69.1565C218.351 69.5194 218.554 70.0115 218.554 70.5246Z" fill="#F2F9FF" fill-opacity="0.5"/>
<path d="M187.382 55.1054C187.382 55.4881 187.269 55.8622 187.058 56.1803C186.847 56.4985 186.547 56.7465 186.196 56.8929C185.845 57.0394 185.458 57.0777 185.086 57.003C184.713 56.9284 184.371 56.7441 184.102 56.4735C183.833 56.2029 183.65 55.8582 183.576 55.4829C183.502 55.1076 183.54 54.7185 183.685 54.365C183.831 54.0115 184.077 53.7093 184.393 53.4967C184.709 53.2841 185.08 53.1707 185.461 53.1707C185.97 53.1707 186.459 53.3745 186.819 53.7373C187.18 54.1002 187.382 54.5923 187.382 55.1054Z" fill="#F2F9FF" fill-opacity="0.5"/>
<path d="M194.029 11.152C194.029 11.2602 193.997 11.366 193.937 11.4558C193.877 11.5457 193.792 11.6156 193.693 11.6567C193.593 11.6977 193.484 11.7081 193.379 11.6865C193.273 11.6648 193.177 11.6121 193.101 11.5351C193.026 11.4581 192.975 11.3602 192.955 11.2539C192.935 11.1476 192.947 11.0377 192.989 10.9382C193.031 10.8386 193.101 10.7539 193.191 10.6949C193.281 10.6358 193.387 10.6051 193.494 10.6065C193.637 10.6084 193.773 10.6667 193.873 10.7688C193.973 10.8709 194.029 11.0086 194.029 11.152Z" fill="#F2F9FF" fill-opacity="0.5"/>
<path d="M156.164 103.692C156.164 103.8 156.132 103.906 156.072 103.996C156.013 104.085 155.928 104.155 155.829 104.196C155.73 104.238 155.621 104.249 155.516 104.228C155.411 104.206 155.315 104.155 155.239 104.078C155.163 104.002 155.111 103.905 155.09 103.799C155.07 103.693 155.08 103.583 155.121 103.484C155.162 103.384 155.232 103.299 155.321 103.239C155.41 103.179 155.515 103.147 155.622 103.147C155.765 103.149 155.902 103.207 156.003 103.309C156.104 103.411 156.162 103.548 156.164 103.692Z" fill="#F2F9FF" fill-opacity="0.5"/>
<path d="M113.759 98.4193C113.759 98.5275 113.727 98.6333 113.667 98.7232C113.608 98.813 113.523 98.8829 113.423 98.924C113.324 98.9651 113.214 98.9754 113.109 98.9538C113.004 98.9322 112.907 98.8795 112.832 98.8024C112.756 98.7254 112.705 98.6275 112.685 98.5213C112.665 98.415 112.677 98.305 112.719 98.2055C112.761 98.106 112.832 98.0213 112.922 97.9622C113.012 97.9032 113.117 97.8724 113.225 97.8738C113.296 97.8738 113.366 97.888 113.431 97.9155C113.496 97.943 113.556 97.9833 113.605 98.034C113.655 98.0848 113.694 98.145 113.721 98.2111C113.747 98.2773 113.76 98.3481 113.759 98.4193Z" fill="#F2F9FF" fill-opacity="0.5"/>
<path d="M161.675 78.7961C161.675 78.9043 161.643 79.01 161.583 79.0999C161.524 79.1897 161.439 79.2596 161.339 79.3007C161.24 79.3418 161.13 79.3521 161.025 79.3305C160.92 79.3088 160.823 79.2562 160.748 79.1792C160.672 79.1021 160.621 79.0042 160.601 78.8979C160.581 78.7917 160.593 78.6818 160.635 78.5822C160.677 78.4827 160.748 78.398 160.838 78.3389C160.928 78.2799 161.033 78.2491 161.141 78.2505C161.283 78.2524 161.419 78.3108 161.519 78.4129C161.619 78.515 161.675 78.6526 161.675 78.7961Z" fill="#F2F9FF" fill-opacity="0.5"/>
<path d="M198.478 46.7336C198.478 46.8414 198.446 46.9469 198.387 47.0366C198.327 47.1263 198.243 47.1963 198.144 47.2375C198.045 47.2788 197.936 47.2896 197.831 47.2686C197.726 47.2475 197.629 47.1956 197.553 47.1193C197.477 47.043 197.426 46.9458 197.405 46.84C197.384 46.7342 197.395 46.6245 197.436 46.5248C197.477 46.4251 197.546 46.3399 197.635 46.28C197.724 46.22 197.829 46.188 197.936 46.188C198.008 46.1871 198.079 46.2005 198.145 46.2276C198.211 46.2546 198.271 46.2948 198.322 46.3456C198.372 46.3965 198.412 46.457 198.439 46.5236C198.466 46.5903 198.479 46.6616 198.478 46.7336Z" fill="#F2F9FF" fill-opacity="0.5"/>
<path d="M204.488 137.733C204.488 137.841 204.456 137.946 204.397 138.036C204.337 138.126 204.252 138.195 204.153 138.237C204.054 138.278 203.945 138.289 203.84 138.268C203.735 138.247 203.639 138.195 203.563 138.119C203.487 138.042 203.436 137.945 203.415 137.839C203.394 137.733 203.405 137.624 203.446 137.524C203.487 137.424 203.556 137.339 203.645 137.279C203.734 137.219 203.839 137.187 203.946 137.187C204.09 137.187 204.228 137.245 204.329 137.347C204.431 137.449 204.488 137.588 204.488 137.733Z" fill="#F2F9FF" fill-opacity="0.5"/>
<path d="M213.972 169.017C213.972 169.125 213.94 169.23 213.881 169.32C213.821 169.41 213.737 169.48 213.638 169.521C213.539 169.562 213.43 169.573 213.325 169.552C213.22 169.531 213.123 169.479 213.047 169.403C212.972 169.326 212.92 169.229 212.899 169.123C212.878 169.018 212.889 168.908 212.93 168.808C212.971 168.709 213.04 168.623 213.129 168.563C213.219 168.503 213.323 168.471 213.43 168.471C213.574 168.471 213.712 168.529 213.814 168.631C213.915 168.734 213.972 168.872 213.972 169.017Z" fill="#F2F9FF" fill-opacity="0.5"/>
<path d="M183.201 188.401C183.201 188.509 183.169 188.614 183.109 188.704C183.05 188.794 182.965 188.864 182.866 188.905C182.767 188.946 182.658 188.957 182.553 188.936C182.448 188.915 182.352 188.863 182.276 188.787C182.2 188.71 182.149 188.613 182.128 188.507C182.107 188.402 182.117 188.292 182.158 188.192C182.199 188.093 182.269 188.007 182.358 187.947C182.447 187.887 182.552 187.855 182.659 187.855C182.803 187.855 182.94 187.913 183.042 188.015C183.144 188.118 183.201 188.256 183.201 188.401Z" fill="#F2F9FF" fill-opacity="0.5"/>
<path d="M219.65 50.5947C219.651 50.7032 219.621 50.8097 219.562 50.9005C219.503 50.9913 219.418 51.0623 219.319 51.1045C219.22 51.1467 219.11 51.1581 219.004 51.1373C218.898 51.1165 218.801 51.0644 218.725 50.9876C218.649 50.9109 218.597 50.8131 218.576 50.7066C218.556 50.6001 218.567 50.4898 218.609 50.3898C218.651 50.2899 218.721 50.2047 218.812 50.1453C218.902 50.086 219.008 50.055 219.115 50.0564C219.186 50.0564 219.255 50.0704 219.32 50.0974C219.385 50.1245 219.444 50.1641 219.493 50.2141C219.543 50.2641 219.582 50.3234 219.609 50.3887C219.636 50.454 219.65 50.524 219.65 50.5947Z" fill="#F2F9FF" fill-opacity="0.5"/>
<path d="M200.451 204.89C200.452 204.998 200.422 205.104 200.363 205.195C200.304 205.285 200.22 205.356 200.121 205.399C200.022 205.441 199.913 205.453 199.808 205.433C199.702 205.413 199.605 205.361 199.528 205.285C199.452 205.209 199.4 205.112 199.378 205.006C199.357 204.9 199.367 204.79 199.408 204.69C199.449 204.59 199.518 204.504 199.607 204.444C199.696 204.384 199.801 204.351 199.909 204.351C199.98 204.35 200.05 204.364 200.116 204.39C200.181 204.417 200.241 204.456 200.292 204.506C200.342 204.556 200.382 204.616 200.409 204.682C200.437 204.748 200.451 204.818 200.451 204.89Z" fill="#F2F9FF" fill-opacity="0.5"/>
<path d="M172.712 164.674C172.714 164.782 172.683 164.888 172.625 164.979C172.566 165.07 172.482 165.141 172.383 165.183C172.284 165.226 172.175 165.237 172.069 165.217C171.964 165.197 171.867 165.146 171.79 165.07C171.714 164.994 171.661 164.896 171.64 164.79C171.618 164.684 171.629 164.574 171.669 164.474C171.71 164.374 171.78 164.288 171.869 164.228C171.958 164.168 172.063 164.136 172.171 164.136C172.313 164.136 172.45 164.192 172.551 164.293C172.653 164.394 172.71 164.531 172.712 164.674Z" fill="#F2F9FF" fill-opacity="0.5"/>
<path d="M146.564 170.086C146.565 170.194 146.535 170.3 146.476 170.391C146.418 170.482 146.333 170.553 146.235 170.595C146.136 170.637 146.027 170.649 145.921 170.629C145.815 170.609 145.718 170.557 145.642 170.481C145.565 170.405 145.513 170.308 145.491 170.202C145.47 170.096 145.48 169.986 145.521 169.886C145.562 169.786 145.631 169.7 145.72 169.64C145.81 169.58 145.915 169.548 146.022 169.548C146.093 169.547 146.163 169.56 146.229 169.587C146.295 169.613 146.354 169.653 146.405 169.703C146.455 169.753 146.495 169.812 146.523 169.878C146.55 169.944 146.564 170.015 146.564 170.086Z" fill="#F2F9FF" fill-opacity="0.5"/>
<path d="M180.789 151.138C180.789 151.246 180.757 151.351 180.697 151.441C180.638 151.531 180.553 151.601 180.454 151.642C180.355 151.683 180.246 151.694 180.141 151.673C180.036 151.652 179.94 151.6 179.864 151.524C179.788 151.447 179.736 151.35 179.715 151.244C179.695 151.139 179.705 151.029 179.746 150.929C179.787 150.83 179.857 150.744 179.946 150.684C180.035 150.625 180.14 150.593 180.247 150.593C180.391 150.593 180.528 150.65 180.63 150.752C180.732 150.855 180.789 150.993 180.789 151.138Z" fill="#F2F9FF" fill-opacity="0.5"/>
<path d="M124.126 70.8666C124.126 70.9745 124.095 71.0799 124.035 71.1696C123.976 71.2593 123.891 71.3293 123.792 71.3705C123.693 71.4118 123.584 71.4226 123.479 71.4016C123.374 71.3805 123.277 71.3286 123.202 71.2523C123.126 71.176 123.074 71.0788 123.053 70.973C123.032 70.8672 123.043 70.7575 123.084 70.6578C123.125 70.5581 123.195 70.4729 123.284 70.413C123.373 70.353 123.478 70.321 123.585 70.321C123.728 70.321 123.866 70.3785 123.968 70.4808C124.069 70.5831 124.126 70.7219 124.126 70.8666Z" fill="#F2F9FF" fill-opacity="0.5"/>
<path d="M181.605 79.3412C181.605 79.4494 181.573 79.5552 181.513 79.645C181.453 79.7349 181.368 79.8048 181.269 79.8459C181.169 79.8869 181.06 79.8973 180.955 79.8757C180.85 79.854 180.753 79.8013 180.678 79.7243C180.602 79.6473 180.551 79.5494 180.531 79.4431C180.511 79.3368 180.523 79.2269 180.565 79.1274C180.607 79.0278 180.678 78.9431 180.768 78.8841C180.858 78.825 180.963 78.7943 181.07 78.7957C181.141 78.7957 181.211 78.8099 181.277 78.8374C181.342 78.8649 181.401 78.9052 181.451 78.9559C181.501 79.0067 181.54 79.0669 181.566 79.133C181.593 79.1992 181.606 79.2699 181.605 79.3412Z" fill="#F2F9FF" fill-opacity="0.5"/>
<path d="M134.505 107.06C134.505 107.168 134.473 107.274 134.414 107.364C134.354 107.454 134.269 107.524 134.169 107.565C134.07 107.606 133.961 107.616 133.855 107.595C133.75 107.573 133.653 107.52 133.578 107.443C133.503 107.366 133.452 107.268 133.431 107.162C133.411 107.056 133.423 106.946 133.465 106.846C133.507 106.747 133.578 106.662 133.668 106.603C133.758 106.544 133.863 106.513 133.971 106.515C134.113 106.517 134.249 106.575 134.349 106.677C134.449 106.779 134.505 106.917 134.505 107.06Z" fill="#F2F9FF" fill-opacity="0.5"/>
<path d="M148.63 57.5862C148.929 57.5862 149.171 57.3419 149.171 57.0406C149.171 56.7394 148.929 56.4951 148.63 56.4951C148.33 56.4951 148.088 56.7394 148.088 57.0406C148.088 57.3419 148.33 57.5862 148.63 57.5862Z" fill="#F2F9FF" fill-opacity="0.5"/>
<path d="M167.396 40.6389C167.397 40.7471 167.367 40.8532 167.308 40.9439C167.25 41.0346 167.165 41.1056 167.067 41.148C166.968 41.1904 166.859 41.2023 166.753 41.1821C166.647 41.1618 166.55 41.1105 166.474 41.0345C166.397 40.9585 166.345 40.8613 166.323 40.7553C166.302 40.6493 166.312 40.5392 166.353 40.4391C166.394 40.339 166.463 40.2534 166.552 40.1931C166.642 40.1328 166.747 40.1006 166.854 40.1006C166.925 40.0997 166.995 40.1129 167.061 40.1395C167.127 40.1661 167.186 40.2056 167.237 40.2557C167.287 40.3058 167.327 40.3654 167.355 40.4312C167.382 40.497 167.396 40.5676 167.396 40.6389Z" fill="#F2F9FF" fill-opacity="0.5"/>
<path d="M152.71 25.7845C152.71 25.8924 152.679 25.9979 152.619 26.0876C152.56 26.1773 152.475 26.2472 152.376 26.2885C152.277 26.3298 152.168 26.3406 152.063 26.3196C151.958 26.2985 151.861 26.2466 151.786 26.1703C151.71 26.094 151.658 25.9968 151.637 25.891C151.616 25.7851 151.627 25.6755 151.668 25.5758C151.709 25.4761 151.779 25.3909 151.868 25.3309C151.957 25.271 152.062 25.239 152.169 25.239C152.312 25.239 152.45 25.2965 152.552 25.3988C152.653 25.5011 152.71 25.6399 152.71 25.7845Z" fill="#F2F9FF" fill-opacity="0.5"/>
<path d="M93.3628 49.192C93.3628 49.2999 93.331 49.4054 93.2715 49.4951C93.212 49.5848 93.1274 49.6547 93.0284 49.696C92.9294 49.7373 92.8205 49.7481 92.7154 49.727C92.6103 49.706 92.5137 49.654 92.438 49.5777C92.3622 49.5015 92.3106 49.4042 92.2897 49.2984C92.2688 49.1926 92.2795 49.0829 92.3205 48.9832C92.3615 48.8836 92.431 48.7984 92.5201 48.7384C92.6092 48.6785 92.7139 48.6465 92.8211 48.6465C92.9642 48.6484 93.1009 48.7064 93.2021 48.8083C93.3033 48.9102 93.3609 49.0479 93.3628 49.192Z" fill="#F2F9FF" fill-opacity="0.5"/>
<path d="M62.3081 57.5851C62.3081 57.7297 62.2511 57.8685 62.1495 57.9708C62.0479 58.0731 61.9101 58.1306 61.7664 58.1306C61.6227 58.1306 61.4849 58.0731 61.3833 57.9708C61.2817 57.8685 61.2246 57.7297 61.2246 57.5851C61.2246 57.4404 61.2817 57.3016 61.3833 57.1993C61.4849 57.097 61.6227 57.0396 61.7664 57.0396C61.9101 57.0396 62.0479 57.097 62.1495 57.1993C62.2511 57.3016 62.3081 57.4404 62.3081 57.5851Z" fill="#F2F9FF" fill-opacity="0.5"/>
<path d="M175.871 41.191C175.871 41.2989 175.839 41.4044 175.779 41.4941C175.72 41.5838 175.635 41.6537 175.536 41.695C175.437 41.7363 175.328 41.7471 175.223 41.7261C175.118 41.705 175.022 41.6531 174.946 41.5768C174.87 41.5005 174.818 41.4033 174.798 41.2974C174.777 41.1916 174.787 41.0819 174.828 40.9823C174.869 40.8826 174.939 40.7974 175.028 40.7374C175.117 40.6775 175.222 40.6455 175.329 40.6455C175.472 40.6474 175.609 40.7055 175.71 40.8074C175.811 40.9093 175.869 41.0469 175.871 41.191Z" fill="#F2F9FF" fill-opacity="0.5"/>
<path d="M117.316 51.2367C117.316 51.3446 117.284 51.45 117.225 51.5398C117.165 51.6295 117.081 51.6994 116.982 51.7407C116.883 51.782 116.774 51.7928 116.668 51.7717C116.563 51.7507 116.467 51.6987 116.391 51.6224C116.315 51.5461 116.264 51.4489 116.243 51.3431C116.222 51.2373 116.233 51.1276 116.274 51.0279C116.315 50.9282 116.384 50.843 116.473 50.7831C116.562 50.7232 116.667 50.6912 116.774 50.6912C116.917 50.693 117.054 50.7511 117.155 50.853C117.256 50.9549 117.314 51.0926 117.316 51.2367Z" fill="#F2F9FF" fill-opacity="0.5"/>
<path d="M54.0874 94.3678C54.0874 94.4757 54.0557 94.5812 53.9961 94.6709C53.9366 94.7606 53.852 94.8305 53.753 94.8718C53.654 94.9131 53.5451 94.9239 53.44 94.9029C53.3349 94.8818 53.2383 94.8299 53.1626 94.7536C53.0868 94.6773 53.0352 94.5801 53.0143 94.4743C52.9934 94.3684 53.0041 94.2587 53.0451 94.1591C53.0861 94.0594 53.1556 93.9742 53.2447 93.9143C53.3338 93.8543 53.4385 93.8223 53.5457 93.8223C53.6171 93.8213 53.688 93.8348 53.7541 93.8618C53.8203 93.8889 53.8804 93.9291 53.9309 93.9799C53.9814 94.0308 54.0213 94.0913 54.0482 94.1579C54.075 94.2245 54.0884 94.2959 54.0874 94.3678Z" fill="#F2F9FF" fill-opacity="0.5"/>
<path d="M66.8882 128.087C66.8882 128.195 66.8564 128.301 66.7969 128.39C66.7374 128.48 66.6528 128.55 66.5538 128.591C66.4548 128.633 66.3458 128.643 66.2408 128.622C66.1357 128.601 66.0391 128.549 65.9634 128.473C65.8876 128.397 65.836 128.3 65.8151 128.194C65.7942 128.088 65.8049 127.978 65.8459 127.879C65.8869 127.779 65.9564 127.694 66.0455 127.634C66.1346 127.574 66.2393 127.542 66.3464 127.542C66.4895 127.544 66.6263 127.602 66.7275 127.704C66.8287 127.806 66.8863 127.943 66.8882 128.087Z" fill="#F2F9FF" fill-opacity="0.5"/>
<path d="M49.9564 182.829C49.9592 182.937 49.9299 183.044 49.8722 183.136C49.8144 183.227 49.7308 183.299 49.6321 183.343C49.5334 183.386 49.4241 183.399 49.3181 183.38C49.212 183.36 49.1142 183.31 49.0369 183.234C48.9597 183.158 48.9067 183.061 48.8846 182.955C48.8625 182.849 48.8723 182.738 48.9129 182.638C48.9534 182.537 49.0228 182.451 49.1122 182.391C49.2016 182.33 49.3069 182.298 49.4146 182.298C49.5558 182.298 49.6915 182.353 49.7927 182.452C49.8939 182.551 49.9526 182.686 49.9564 182.829Z" fill="#F2F9FF" fill-opacity="0.5"/>
<path d="M79.6323 193.39C79.6323 193.498 79.6006 193.603 79.541 193.693C79.4815 193.783 79.3969 193.853 79.2979 193.894C79.1989 193.935 79.09 193.946 78.9849 193.925C78.8798 193.904 78.7833 193.852 78.7075 193.776C78.6317 193.699 78.5801 193.602 78.5592 193.496C78.5383 193.391 78.5491 193.281 78.5901 193.181C78.6311 193.082 78.7005 192.996 78.7896 192.936C78.8787 192.876 78.9834 192.844 79.0906 192.844C79.2343 192.844 79.3721 192.902 79.4737 193.004C79.5753 193.107 79.6323 193.245 79.6323 193.39Z" fill="#F2F9FF" fill-opacity="0.5"/>
<path d="M122.509 179.592C122.511 179.7 122.48 179.807 122.421 179.898C122.362 179.988 122.277 180.059 122.178 180.102C122.079 180.144 121.969 180.155 121.864 180.134C121.758 180.114 121.661 180.061 121.584 179.985C121.508 179.908 121.457 179.81 121.436 179.704C121.415 179.597 121.427 179.487 121.468 179.387C121.51 179.287 121.581 179.202 121.671 179.142C121.761 179.083 121.867 179.052 121.975 179.054C122.116 179.054 122.252 179.11 122.353 179.211C122.453 179.312 122.509 179.449 122.509 179.592Z" fill="#F2F9FF" fill-opacity="0.5"/>
<path d="M150.694 183.913C150.993 183.913 151.236 183.669 151.236 183.368C151.236 183.066 150.993 182.822 150.694 182.822C150.395 182.822 150.152 183.066 150.152 183.368C150.152 183.669 150.395 183.913 150.694 183.913Z" fill="#F2F9FF" fill-opacity="0.5"/>
<path d="M100.99 82.389C100.99 82.4969 100.958 82.6024 100.898 82.6921C100.839 82.7818 100.754 82.8517 100.655 82.893C100.556 82.9343 100.447 82.9451 100.342 82.9241C100.237 82.903 100.141 82.8511 100.065 82.7748C99.9892 82.6985 99.9376 82.6013 99.9167 82.4954C99.8958 82.3896 99.9065 82.2799 99.9475 82.1803C99.9885 82.0806 100.058 81.9954 100.147 81.9354C100.236 81.8755 100.341 81.8435 100.448 81.8435C100.592 81.8435 100.729 81.901 100.831 82.0033C100.933 82.1056 100.99 82.2443 100.99 82.389Z" fill="#F2F9FF" fill-opacity="0.5"/>
<path d="M36.7671 201.361C36.7685 201.469 36.7379 201.576 36.6793 201.666C36.6206 201.757 36.5365 201.828 36.4377 201.87C36.3388 201.913 36.2297 201.925 36.1241 201.904C36.0185 201.884 35.9213 201.833 35.8449 201.757C35.7684 201.681 35.716 201.584 35.6945 201.478C35.673 201.372 35.6833 201.262 35.7241 201.162C35.7649 201.061 35.8343 200.976 35.9236 200.916C36.0128 200.855 36.1179 200.823 36.2253 200.823C36.2961 200.822 36.3664 200.835 36.4321 200.862C36.4978 200.889 36.5576 200.928 36.608 200.978C36.6584 201.028 36.6984 201.088 36.7257 201.154C36.753 201.219 36.7671 201.29 36.7671 201.361Z" fill="#F2F9FF" fill-opacity="0.5"/>
<path d="M88.1753 123.382C88.1767 123.49 88.1461 123.596 88.0875 123.687C88.0288 123.777 87.9447 123.848 87.8459 123.891C87.747 123.933 87.6379 123.945 87.5323 123.925C87.4267 123.905 87.3295 123.853 87.2531 123.777C87.1766 123.701 87.1242 123.604 87.1027 123.498C87.0813 123.392 87.0916 123.282 87.1323 123.182C87.1731 123.082 87.2425 122.996 87.3318 122.936C87.421 122.876 87.5261 122.844 87.6335 122.844C87.776 122.843 87.9127 122.9 88.0141 123.001C88.1155 123.101 88.1734 123.238 88.1753 123.382Z" fill="#F2F9FF" fill-opacity="0.5"/>
<path d="M64.9663 117.781C64.9677 117.889 64.9372 117.996 64.8785 118.086C64.8199 118.177 64.7358 118.248 64.6369 118.29C64.538 118.333 64.4289 118.345 64.3233 118.324C64.2178 118.304 64.1206 118.253 64.0441 118.177C63.9676 118.101 63.9153 118.004 63.8938 117.898C63.8723 117.792 63.8826 117.681 63.9233 117.581C63.9641 117.481 64.0336 117.396 64.1228 117.335C64.212 117.275 64.3171 117.243 64.4245 117.243C64.567 117.243 64.7037 117.299 64.8051 117.4C64.9065 117.501 64.9644 117.638 64.9663 117.781Z" fill="#F2F9FF" fill-opacity="0.5"/>
<path d="M41.4702 118.327C41.4702 118.434 41.4385 118.54 41.3789 118.63C41.3194 118.719 41.2348 118.789 41.1358 118.831C41.0368 118.872 40.9279 118.883 40.8228 118.862C40.7177 118.841 40.6212 118.789 40.5454 118.712C40.4696 118.636 40.418 118.539 40.3971 118.433C40.3762 118.327 40.387 118.217 40.428 118.118C40.469 118.018 40.5384 117.933 40.6275 117.873C40.7166 117.813 40.8213 117.781 40.9285 117.781C41.0722 117.781 41.21 117.838 41.3116 117.941C41.4132 118.043 41.4702 118.182 41.4702 118.327Z" fill="#F2F9FF" fill-opacity="0.5"/>
<path d="M115.798 80.2435C115.798 80.3514 115.767 80.4569 115.707 80.5466C115.648 80.6363 115.563 80.7062 115.464 80.7475C115.365 80.7888 115.256 80.7996 115.151 80.7785C115.046 80.7575 114.949 80.7055 114.874 80.6293C114.798 80.553 114.746 80.4558 114.725 80.3499C114.704 80.2441 114.715 80.1344 114.756 80.0348C114.797 79.9351 114.867 79.8499 114.956 79.7899C115.045 79.73 115.149 79.698 115.257 79.698C115.4 79.698 115.538 79.7555 115.64 79.8578C115.741 79.9601 115.798 80.0988 115.798 80.2435Z" fill="#F2F9FF" fill-opacity="0.5"/>
<path d="M97.394 116.88C97.3954 116.988 97.3649 117.094 97.3062 117.185C97.2476 117.275 97.1635 117.347 97.0646 117.389C96.9658 117.431 96.8566 117.443 96.7511 117.423C96.6455 117.403 96.5483 117.351 96.4718 117.275C96.3953 117.199 96.343 117.102 96.3215 116.996C96.3 116.89 96.3103 116.78 96.3511 116.68C96.3919 116.58 96.4613 116.494 96.5505 116.434C96.6398 116.374 96.7448 116.342 96.8523 116.342C96.9947 116.342 97.1314 116.398 97.2328 116.499C97.3342 116.599 97.3921 116.736 97.394 116.88Z" fill="#F2F9FF" fill-opacity="0.5"/>
<path d="M76.6753 99.0814C76.6753 99.1893 76.6435 99.2948 76.584 99.3845C76.5245 99.4742 76.4399 99.5441 76.3409 99.5854C76.2419 99.6267 76.133 99.6375 76.0279 99.6164C75.9228 99.5954 75.8262 99.5434 75.7505 99.4671C75.6747 99.3909 75.6231 99.2937 75.6022 99.1878C75.5813 99.082 75.592 98.9723 75.633 98.8727C75.674 98.773 75.7435 98.6878 75.8326 98.6278C75.9217 98.5679 76.0264 98.5359 76.1336 98.5359C76.2772 98.5359 76.415 98.5934 76.5166 98.6957C76.6182 98.798 76.6753 98.9367 76.6753 99.0814Z" fill="#F2F9FF" fill-opacity="0.5"/>
<path d="M72.9839 102.821C72.9853 102.929 72.9545 103.035 72.8956 103.126C72.8366 103.217 72.7521 103.288 72.6528 103.33C72.5535 103.373 72.444 103.384 72.3382 103.363C72.2325 103.342 72.1353 103.29 72.0591 103.213C71.9829 103.137 71.9311 103.039 71.9105 102.932C71.8898 102.826 71.9011 102.716 71.943 102.616C71.9849 102.516 72.0555 102.431 72.1457 102.371C72.2358 102.312 72.3416 102.281 72.4493 102.282C72.5911 102.282 72.7271 102.339 72.8273 102.44C72.9275 102.541 72.9839 102.678 72.9839 102.821Z" fill="#F2F9FF" fill-opacity="0.5"/>
<path d="M156.388 146.134C156.39 146.242 156.359 146.348 156.3 146.439C156.242 146.529 156.158 146.6 156.059 146.643C155.96 146.685 155.851 146.697 155.745 146.677C155.64 146.656 155.542 146.605 155.466 146.529C155.389 146.453 155.337 146.356 155.316 146.25C155.294 146.144 155.304 146.034 155.345 145.934C155.386 145.834 155.455 145.748 155.545 145.688C155.634 145.627 155.739 145.595 155.846 145.595C155.917 145.594 155.987 145.608 156.053 145.634C156.119 145.661 156.179 145.7 156.229 145.75C156.279 145.8 156.319 145.86 156.347 145.926C156.374 145.992 156.388 146.062 156.388 146.134Z" fill="#F2F9FF" fill-opacity="0.5"/>
<path d="M143.825 185.972C144.124 185.972 144.367 185.727 144.367 185.426C144.367 185.125 144.124 184.881 143.825 184.881C143.526 184.881 143.283 185.125 143.283 185.426C143.283 185.727 143.526 185.972 143.825 185.972Z" fill="#F2F9FF" fill-opacity="0.5"/>
<path d="M103.591 180.348C103.591 180.456 103.56 180.562 103.5 180.651C103.441 180.741 103.356 180.811 103.257 180.852C103.158 180.894 103.049 180.904 102.944 180.883C102.839 180.862 102.742 180.81 102.666 180.734C102.591 180.658 102.539 180.56 102.518 180.455C102.497 180.349 102.508 180.239 102.549 180.139C102.59 180.04 102.66 179.955 102.749 179.895C102.838 179.835 102.942 179.803 103.05 179.803C103.193 179.805 103.329 179.863 103.431 179.965C103.532 180.066 103.589 180.204 103.591 180.348Z" fill="#F2F9FF" fill-opacity="0.5"/>
<path d="M116.195 209.61C116.196 209.718 116.166 209.824 116.107 209.915C116.048 210.005 115.964 210.076 115.865 210.119C115.767 210.161 115.657 210.173 115.552 210.153C115.446 210.132 115.349 210.081 115.273 210.005C115.196 209.929 115.144 209.832 115.122 209.726C115.101 209.62 115.111 209.51 115.152 209.41C115.193 209.31 115.262 209.224 115.351 209.164C115.441 209.103 115.546 209.071 115.653 209.071C115.795 209.071 115.932 209.128 116.034 209.228C116.135 209.329 116.193 209.466 116.195 209.61Z" fill="#F2F9FF" fill-opacity="0.5"/>
<path d="M92.4234 175.825C92.4234 175.932 92.3916 176.038 92.3321 176.128C92.2725 176.217 92.1879 176.287 92.0889 176.329C91.9899 176.37 91.881 176.381 91.7759 176.36C91.6708 176.339 91.5743 176.287 91.4985 176.21C91.4228 176.134 91.3712 176.037 91.3503 175.931C91.3293 175.825 91.3401 175.715 91.3811 175.616C91.4221 175.516 91.4915 175.431 91.5806 175.371C91.6697 175.311 91.7745 175.279 91.8816 175.279C92.0253 175.279 92.1631 175.337 92.2647 175.439C92.3663 175.541 92.4234 175.68 92.4234 175.825Z" fill="#F2F9FF" fill-opacity="0.5"/>
<path d="M105.757 185.971C105.757 186.079 105.726 186.184 105.666 186.274C105.607 186.364 105.522 186.434 105.423 186.475C105.324 186.516 105.215 186.527 105.11 186.506C105.005 186.485 104.908 186.433 104.833 186.357C104.757 186.281 104.705 186.183 104.684 186.078C104.663 185.972 104.674 185.862 104.715 185.762C104.756 185.663 104.826 185.577 104.915 185.518C105.004 185.458 105.108 185.426 105.216 185.426C105.287 185.425 105.358 185.438 105.424 185.465C105.49 185.492 105.55 185.532 105.601 185.583C105.651 185.634 105.691 185.695 105.718 185.761C105.745 185.828 105.758 185.899 105.757 185.971Z" fill="#F2F9FF" fill-opacity="0.5"/>
<path d="M138.769 203.296C138.769 203.404 138.737 203.51 138.678 203.599C138.618 203.689 138.534 203.759 138.435 203.8C138.336 203.842 138.227 203.852 138.122 203.831C138.017 203.81 137.92 203.758 137.844 203.682C137.768 203.606 137.717 203.509 137.696 203.403C137.675 203.297 137.686 203.187 137.727 203.087C137.768 202.988 137.837 202.903 137.926 202.843C138.015 202.783 138.12 202.751 138.227 202.751C138.371 202.751 138.509 202.808 138.61 202.911C138.712 203.013 138.769 203.152 138.769 203.296Z" fill="#F2F9FF" fill-opacity="0.5"/>
<path d="M101.533 21.37C101.534 21.4782 101.504 21.5844 101.445 21.6751C101.386 21.7657 101.302 21.8368 101.203 21.8792C101.104 21.9216 100.995 21.9334 100.89 21.9132C100.784 21.893 100.687 21.8416 100.61 21.7656C100.534 21.6896 100.482 21.5924 100.46 21.4864C100.439 21.3804 100.449 21.2704 100.49 21.1703C100.531 21.0702 100.6 20.9845 100.689 20.9242C100.778 20.864 100.883 20.8318 100.991 20.8318C101.133 20.8318 101.27 20.8882 101.371 20.989C101.473 21.0897 101.531 21.2266 101.533 21.37Z" fill="#F2F9FF" fill-opacity="0.5"/>
<path d="M121.029 123.615C121.029 123.723 120.997 123.829 120.937 123.919C120.877 124.009 120.792 124.078 120.693 124.12C120.593 124.161 120.484 124.171 120.379 124.149C120.273 124.128 120.177 124.075 120.101 123.998C120.026 123.921 119.975 123.823 119.955 123.717C119.935 123.611 119.947 123.501 119.989 123.401C120.031 123.301 120.101 123.217 120.191 123.158C120.281 123.099 120.387 123.068 120.494 123.069C120.637 123.071 120.773 123.13 120.873 123.232C120.973 123.334 121.029 123.471 121.029 123.615Z" fill="#F2F9FF" fill-opacity="0.5"/>
<path d="M91.1304 65.9584C91.1304 66.0663 91.0986 66.1717 91.0391 66.2614C90.9796 66.3511 90.8949 66.4211 90.796 66.4623C90.697 66.5036 90.588 66.5144 90.4829 66.4934C90.3779 66.4723 90.2813 66.4204 90.2056 66.3441C90.1298 66.2678 90.0782 66.1706 90.0573 66.0648C90.0364 65.959 90.0471 65.8493 90.0881 65.7496C90.1291 65.6499 90.1986 65.5647 90.2876 65.5048C90.3767 65.4448 90.4815 65.4128 90.5886 65.4128C90.7317 65.4147 90.8684 65.4728 90.9696 65.5747C91.0708 65.6766 91.1285 65.8143 91.1304 65.9584Z" fill="#F2F9FF" fill-opacity="0.5"/>
<path d="M180.882 170.085C180.882 170.468 180.769 170.842 180.558 171.16C180.347 171.478 180.047 171.726 179.696 171.872C179.345 172.019 178.958 172.057 178.586 171.983C178.213 171.908 177.871 171.724 177.602 171.453C177.333 171.182 177.15 170.838 177.076 170.462C177.002 170.087 177.04 169.698 177.185 169.345C177.331 168.991 177.577 168.689 177.893 168.476C178.209 168.264 178.58 168.15 178.961 168.15C179.47 168.15 179.959 168.354 180.319 168.717C180.68 169.08 180.882 169.572 180.882 170.085Z" fill="#F2F9FF" fill-opacity="0.5"/>
<path d="M207.146 180.349C207.146 180.731 207.033 181.105 206.822 181.423C206.611 181.742 206.311 181.99 205.959 182.136C205.608 182.283 205.222 182.321 204.849 182.246C204.477 182.172 204.134 181.987 203.865 181.717C203.597 181.446 203.414 181.101 203.34 180.726C203.266 180.351 203.304 179.962 203.449 179.608C203.594 179.255 203.841 178.952 204.157 178.74C204.473 178.527 204.844 178.414 205.224 178.414C205.477 178.414 205.726 178.464 205.959 178.561C206.193 178.658 206.404 178.801 206.583 178.98C206.761 179.16 206.903 179.373 206.999 179.608C207.096 179.843 207.146 180.095 207.146 180.349Z" fill="#F2F9FF" fill-opacity="0.5"/>
<path d="M138.364 88.1718C138.364 88.5545 138.252 88.9286 138.041 89.2467C137.829 89.5649 137.529 89.8129 137.178 89.9593C136.827 90.1058 136.441 90.1441 136.068 90.0694C135.695 89.9948 135.353 89.8105 135.084 89.5399C134.816 89.2693 134.633 88.9246 134.558 88.5493C134.484 88.174 134.522 87.785 134.668 87.4314C134.813 87.0779 135.059 86.7757 135.375 86.5631C135.691 86.3505 136.063 86.2371 136.443 86.2371C136.953 86.2371 137.441 86.4409 137.802 86.8037C138.162 87.1666 138.364 87.6587 138.364 88.1718Z" fill="#F2F9FF" fill-opacity="0.5"/>
<path d="M74.9073 53.1706C74.9073 53.5533 74.7946 53.9273 74.5835 54.2455C74.3724 54.5637 74.0723 54.8117 73.7212 54.9581C73.3701 55.1045 72.9838 55.1429 72.611 55.0682C72.2383 54.9935 71.896 54.8093 71.6272 54.5387C71.3585 54.2681 71.1755 53.9234 71.1014 53.5481C71.0272 53.1728 71.0653 52.7837 71.2107 52.4302C71.3561 52.0767 71.6024 51.7745 71.9184 51.5619C72.2344 51.3493 72.6059 51.2358 72.9859 51.2358C73.4955 51.2358 73.9842 51.4397 74.3446 51.8025C74.7049 52.1654 74.9073 52.6575 74.9073 53.1706Z" fill="#F2F9FF" fill-opacity="0.5"/>
<path d="M127.118 30.5351C127.118 30.9178 127.006 31.2918 126.794 31.61C126.583 31.9282 126.283 32.1762 125.932 32.3226C125.581 32.469 125.195 32.5073 124.822 32.4327C124.449 32.358 124.107 32.1738 123.838 31.9032C123.569 31.6326 123.386 31.2879 123.312 30.9126C123.238 30.5373 123.276 30.1482 123.422 29.7947C123.567 29.4412 123.813 29.139 124.129 28.9264C124.445 28.7138 124.817 28.6003 125.197 28.6003C125.706 28.6003 126.195 28.8042 126.555 29.167C126.916 29.5299 127.118 30.022 127.118 30.5351Z" fill="#F2F9FF" fill-opacity="0.5"/>
<path d="M94.4308 129.929C94.4308 130.311 94.3181 130.685 94.1069 131.004C93.8958 131.322 93.5957 131.57 93.2446 131.716C92.8935 131.863 92.5072 131.901 92.1345 131.826C91.7618 131.752 91.4194 131.567 91.1507 131.297C90.882 131.026 90.6989 130.681 90.6248 130.306C90.5507 129.931 90.5887 129.542 90.7342 129.188C90.8796 128.835 91.1259 128.533 91.4418 128.32C91.7578 128.107 92.1293 127.994 92.5093 127.994C93.0189 127.994 93.5077 128.198 93.868 128.561C94.2283 128.923 94.4308 129.416 94.4308 129.929Z" fill="#F2F9FF" fill-opacity="0.5"/>
<path d="M66.3472 198.212C67.4084 198.212 68.2687 197.346 68.2687 196.277C68.2687 195.209 67.4084 194.343 66.3472 194.343C65.286 194.343 64.4258 195.209 64.4258 196.277C64.4258 197.346 65.286 198.212 66.3472 198.212Z" fill="#F2F9FF" fill-opacity="0.5"/>
<path d="M89.5558 103.409C89.5558 103.792 89.4431 104.166 89.232 104.484C89.0208 104.802 88.7207 105.05 88.3696 105.197C88.0185 105.343 87.6322 105.381 87.2595 105.307C86.8868 105.232 86.5444 105.048 86.2757 104.777C86.007 104.507 85.8239 104.162 85.7498 103.787C85.6757 103.411 85.7137 103.022 85.8592 102.669C86.0046 102.315 86.2509 102.013 86.5668 101.8C86.8828 101.588 87.2543 101.474 87.6343 101.474C88.1439 101.474 88.6327 101.678 88.993 102.041C89.3533 102.404 89.5558 102.896 89.5558 103.409Z" fill="#F2F9FF" fill-opacity="0.5"/>
<path d="M142.944 130.432C142.944 130.815 142.832 131.189 142.62 131.507C142.409 131.826 142.108 132.074 141.757 132.22C141.405 132.366 141.018 132.404 140.645 132.329C140.273 132.253 139.93 132.068 139.662 131.797C139.393 131.526 139.211 131.18 139.138 130.805C139.064 130.429 139.103 130.04 139.25 129.686C139.396 129.333 139.644 129.031 139.961 128.819C140.278 128.608 140.65 128.495 141.03 128.497C141.539 128.499 142.025 128.703 142.384 129.066C142.743 129.429 142.944 129.92 142.944 130.432Z" fill="#F2F9FF" fill-opacity="0.5"/>
<path d="M49.4151 138.409C49.4151 138.792 49.3023 139.166 49.0908 139.485C48.8794 139.803 48.5789 140.051 48.2273 140.197C47.8758 140.343 47.4891 140.381 47.1162 140.306C46.7433 140.231 46.4009 140.046 46.1325 139.774C45.8641 139.503 45.6816 139.158 45.6083 138.782C45.535 138.406 45.5741 138.017 45.7206 137.663C45.8671 137.31 46.1145 137.008 46.4315 136.797C46.7484 136.585 47.1206 136.473 47.5009 136.474C48.0093 136.476 48.4961 136.681 48.8549 137.043C49.2137 137.406 49.4152 137.897 49.4151 138.409Z" fill="#F2F9FF" fill-opacity="0.5"/>
<path d="M72.9839 93.2555C72.9839 93.3637 72.9519 93.4695 72.8921 93.5593C72.8322 93.6492 72.7472 93.7191 72.6478 93.7602C72.5484 93.8012 72.4391 93.8116 72.3338 93.79C72.2285 93.7683 72.132 93.7156 72.0565 93.6386C71.981 93.5616 71.93 93.4637 71.9099 93.3574C71.8899 93.2511 71.9016 93.1412 71.9437 93.0417C71.9858 92.9421 72.0564 92.8574 72.1464 92.7984C72.2365 92.7393 72.3419 92.7086 72.4494 92.71C72.5202 92.71 72.5903 92.7242 72.6556 92.7517C72.7209 92.7792 72.7802 92.8195 72.8299 92.8702C72.8797 92.921 72.9189 92.9812 72.9453 93.0473C72.9717 93.1135 72.9849 93.1842 72.9839 93.2555Z" fill="#F2F9FF" fill-opacity="0.5"/>
<path d="M30.0476 88.5205C30.3468 88.5205 30.5894 88.2762 30.5894 87.975C30.5894 87.6737 30.3468 87.4294 30.0476 87.4294C29.7484 87.4294 29.5059 87.6737 29.5059 87.975C29.5059 88.2762 29.7484 88.5205 30.0476 88.5205Z" fill="#F2F9FF" fill-opacity="0.5"/>
<path d="M23.9527 106.064C23.9527 106.172 23.9209 106.277 23.8614 106.367C23.8018 106.457 23.7172 106.527 23.6182 106.568C23.5192 106.609 23.4103 106.62 23.3052 106.599C23.2001 106.578 23.1036 106.526 23.0278 106.45C22.9521 106.374 22.9005 106.276 22.8796 106.17C22.8586 106.065 22.8694 105.955 22.9104 105.855C22.9514 105.756 23.0208 105.67 23.1099 105.61C23.199 105.551 23.3037 105.519 23.4109 105.519C23.554 105.52 23.6907 105.579 23.7919 105.68C23.8931 105.782 23.9508 105.92 23.9527 106.064Z" fill="#F2F9FF" fill-opacity="0.5"/>
<path d="M63.3921 159.648C63.3921 159.756 63.3603 159.861 63.3008 159.951C63.2413 160.041 63.1567 160.111 63.0577 160.152C62.9587 160.193 62.8498 160.204 62.7447 160.183C62.6396 160.162 62.543 160.11 62.4673 160.034C62.3915 159.957 62.3399 159.86 62.319 159.754C62.2981 159.648 62.3088 159.539 62.3498 159.439C62.3908 159.339 62.4603 159.254 62.5494 159.194C62.6385 159.134 62.7432 159.102 62.8504 159.102C62.9935 159.104 63.1302 159.162 63.2314 159.264C63.3326 159.366 63.3902 159.504 63.3921 159.648Z" fill="#F2F9FF" fill-opacity="0.5"/>
<path d="M40.9488 60.4223C40.9487 60.5305 40.9168 60.6362 40.8569 60.7261C40.7971 60.8159 40.712 60.8859 40.6126 60.9269C40.5132 60.968 40.4039 60.9784 40.2986 60.9567C40.1933 60.9351 40.0968 60.8824 40.0214 60.8054C39.9459 60.7283 39.8949 60.6305 39.8748 60.5242C39.8547 60.4179 39.8665 60.308 39.9086 60.2084C39.9507 60.1089 40.0213 60.0242 40.1113 59.9651C40.2013 59.9061 40.3068 59.8753 40.4142 59.8768C40.5566 59.8787 40.6926 59.937 40.7926 60.0391C40.8927 60.1412 40.9488 60.2788 40.9488 60.4223Z" fill="#F2F9FF" fill-opacity="0.5"/>
<path d="M51.3354 96.6154C51.3369 96.7236 51.3063 96.8298 51.2477 96.9204C51.189 97.0111 51.1049 97.0821 51.006 97.1245C50.9072 97.1669 50.798 97.1788 50.6925 97.1586C50.5869 97.1384 50.4897 97.087 50.4132 97.011C50.3367 96.935 50.2844 96.8378 50.2629 96.7318C50.2414 96.6258 50.2517 96.5157 50.2925 96.4156C50.3333 96.3155 50.4027 96.2299 50.4919 96.1696C50.5812 96.1093 50.6862 96.0772 50.7937 96.0771C50.9361 96.0771 51.0728 96.1336 51.1742 96.2343C51.2756 96.3351 51.3335 96.472 51.3354 96.6154Z" fill="#F2F9FF" fill-opacity="0.5"/>
<path d="M66.0288 46.5954C66.0302 46.7036 65.9997 46.8098 65.941 46.9004C65.8824 46.9911 65.7983 47.0622 65.6994 47.1046C65.6005 47.147 65.4914 47.1588 65.3858 47.1386C65.2803 47.1184 65.1831 47.067 65.1066 46.991C65.0301 46.915 64.9778 46.8178 64.9563 46.7118C64.9348 46.6058 64.9451 46.4958 64.9858 46.3956C65.0266 46.2955 65.0961 46.2099 65.1853 46.1496C65.2745 46.0894 65.3796 46.0572 65.487 46.0572C65.5578 46.0562 65.6281 46.0694 65.6938 46.096C65.7595 46.1227 65.8193 46.1622 65.8697 46.2122C65.9201 46.2623 65.9601 46.322 65.9874 46.3877C66.0147 46.4535 66.0288 46.5241 66.0288 46.5954Z" fill="#F2F9FF" fill-opacity="0.5"/>
<path d="M39.3374 169.156C39.3374 169.264 39.3057 169.369 39.2461 169.459C39.1866 169.548 39.102 169.618 39.003 169.66C38.904 169.701 38.7951 169.712 38.69 169.691C38.5849 169.67 38.4883 169.618 38.4126 169.541C38.3368 169.465 38.2852 169.368 38.2643 169.262C38.2434 169.156 38.2541 169.047 38.2951 168.947C38.3361 168.847 38.4056 168.762 38.4947 168.702C38.5838 168.642 38.6885 168.61 38.7957 168.61C38.9388 168.612 39.0755 168.67 39.1767 168.772C39.2779 168.874 39.3356 169.012 39.3374 169.156Z" fill="#F2F9FF" fill-opacity="0.5"/>
<path d="M68.0581 172.93C68.0581 173.039 68.0262 173.144 67.9663 173.234C67.9064 173.324 67.8214 173.394 67.722 173.435C67.6226 173.476 67.5133 173.486 67.408 173.465C67.3027 173.443 67.2062 173.39 67.1307 173.313C67.0553 173.236 67.0042 173.139 66.9842 173.032C66.9641 172.926 66.9758 172.816 67.018 172.716C67.0601 172.617 67.1306 172.532 67.2207 172.473C67.3107 172.414 67.4161 172.383 67.5236 172.385C67.666 172.387 67.802 172.445 67.902 172.547C68.0021 172.649 68.0581 172.787 68.0581 172.93Z" fill="#F2F9FF" fill-opacity="0.5"/>
<path d="M17.8198 71.9433C17.8212 72.0515 17.7907 72.1576 17.732 72.2483C17.6734 72.339 17.5893 72.41 17.4904 72.4524C17.3916 72.4948 17.2824 72.5067 17.1768 72.4865C17.0713 72.4662 16.9741 72.4149 16.8976 72.3389C16.8211 72.2629 16.7688 72.1657 16.7473 72.0597C16.7258 71.9537 16.7361 71.8436 16.7769 71.7435C16.8176 71.6434 16.8871 71.5578 16.9763 71.4975C17.0656 71.4372 17.1706 71.405 17.278 71.405C17.4205 71.405 17.5572 71.4615 17.6586 71.5622C17.76 71.663 17.8179 71.7999 17.8198 71.9433Z" fill="#F2F9FF" fill-opacity="0.5"/>
<path d="M5.5386 147.079C5.5386 147.187 5.50682 147.293 5.44729 147.383C5.38776 147.472 5.30315 147.542 5.20416 147.583C5.10517 147.625 4.99624 147.636 4.89115 147.614C4.78605 147.593 4.68952 147.541 4.61376 147.465C4.53799 147.389 4.48639 147.292 4.46549 147.186C4.44458 147.08 4.45531 146.97 4.49632 146.871C4.53732 146.771 4.60676 146.686 4.69585 146.626C4.78494 146.566 4.88969 146.534 4.99684 146.534C5.14052 146.534 5.27832 146.591 5.37992 146.694C5.48152 146.796 5.5386 146.935 5.5386 147.079Z" fill="#F2F9FF" fill-opacity="0.5"/>
<path d="M30.0484 131.419C30.0484 131.527 30.0166 131.633 29.9571 131.722C29.8975 131.812 29.8129 131.882 29.7139 131.923C29.6149 131.965 29.506 131.975 29.4009 131.954C29.2958 131.933 29.1993 131.881 29.1235 131.805C29.0478 131.729 28.9962 131.632 28.9753 131.526C28.9543 131.42 28.9651 131.31 29.0061 131.211C29.0471 131.111 29.1165 131.026 29.2056 130.966C29.2947 130.906 29.3995 130.874 29.5066 130.874C29.578 130.873 29.6489 130.886 29.7151 130.913C29.7812 130.94 29.8413 130.981 29.8919 131.031C29.9424 131.082 29.9822 131.143 30.0091 131.209C30.036 131.276 30.0493 131.347 30.0484 131.419Z" fill="#F2F9FF" fill-opacity="0.5"/>
<path d="M32.6206 69.7985C32.6206 69.9067 32.5887 70.0124 32.5288 70.1023C32.4689 70.1922 32.3839 70.2621 32.2845 70.3031C32.1851 70.3442 32.0758 70.3546 31.9705 70.3329C31.8652 70.3113 31.7687 70.2586 31.6932 70.1816C31.6178 70.1046 31.5667 70.0067 31.5467 69.9004C31.5266 69.7941 31.5383 69.6842 31.5805 69.5846C31.6226 69.4851 31.6931 69.4004 31.7832 69.3414C31.8732 69.2823 31.9786 69.2515 32.0861 69.253C32.2285 69.2549 32.3645 69.3132 32.4645 69.4153C32.5646 69.5174 32.6206 69.6551 32.6206 69.7985Z" fill="#F2F9FF" fill-opacity="0.5"/>
<path d="M22.0457 140.33C22.3449 140.33 22.5874 140.086 22.5874 139.785C22.5874 139.483 22.3449 139.239 22.0457 139.239C21.7465 139.239 21.5039 139.483 21.5039 139.785C21.5039 140.086 21.7465 140.33 22.0457 140.33Z" fill="#F2F9FF" fill-opacity="0.5"/>
<path d="M68.812 141.813C68.812 141.921 68.7803 142.026 68.7207 142.116C68.6612 142.206 68.5766 142.276 68.4776 142.317C68.3786 142.358 68.2697 142.369 68.1646 142.348C68.0595 142.327 67.963 142.275 67.8872 142.199C67.8114 142.122 67.7598 142.025 67.7389 141.919C67.718 141.813 67.7288 141.704 67.7698 141.604C67.8108 141.504 67.8802 141.419 67.9693 141.359C68.0584 141.299 68.1631 141.267 68.2703 141.267C68.414 141.267 68.5518 141.325 68.6534 141.427C68.755 141.529 68.812 141.668 68.812 141.813Z" fill="#F2F9FF" fill-opacity="0.5"/>
<path d="M61.1968 175.024C61.1968 175.132 61.165 175.237 61.1055 175.327C61.046 175.417 60.9614 175.486 60.8624 175.528C60.7634 175.569 60.6544 175.58 60.5493 175.559C60.4443 175.538 60.3477 175.486 60.272 175.41C60.1962 175.333 60.1446 175.236 60.1237 175.13C60.1028 175.024 60.1135 174.915 60.1545 174.815C60.1955 174.715 60.265 174.63 60.3541 174.57C60.4432 174.51 60.5479 174.478 60.655 174.478C60.7987 174.478 60.9365 174.536 61.0381 174.638C61.1397 174.74 61.1968 174.879 61.1968 175.024Z" fill="#F2F9FF" fill-opacity="0.5"/>
<path d="M20.4409 169.932C20.4409 170.04 20.4092 170.145 20.3496 170.235C20.2901 170.325 20.2055 170.395 20.1065 170.436C20.0075 170.477 19.8986 170.488 19.7935 170.467C19.6884 170.446 19.5919 170.394 19.5161 170.318C19.4403 170.241 19.3887 170.144 19.3678 170.038C19.3469 169.933 19.3577 169.823 19.3987 169.723C19.4397 169.624 19.5091 169.538 19.5982 169.478C19.6873 169.419 19.792 169.387 19.8992 169.387C19.9706 169.386 20.0415 169.399 20.1076 169.426C20.1738 169.453 20.2339 169.493 20.2844 169.544C20.3349 169.595 20.3748 169.655 20.4017 169.722C20.4286 169.789 20.4419 169.86 20.4409 169.932Z" fill="#F2F9FF" fill-opacity="0.5"/>
<path d="M19.3803 86.4404C17.0399 86.4404 17.0399 90.0772 19.3803 90.0772C21.7207 90.0772 21.7279 86.4404 19.3803 86.4404Z" fill="#F2F9FF" fill-opacity="0.5"/>
<path d="M28.7256 158.796C28.7213 159.178 28.6048 159.55 28.3908 159.866C28.1767 160.181 27.8747 160.426 27.5229 160.569C27.171 160.712 26.785 160.746 26.4135 160.669C26.042 160.591 25.7017 160.404 25.4355 160.132C25.1692 159.86 24.9889 159.515 24.9173 159.139C24.8457 158.764 24.8861 158.376 25.0332 158.024C25.1804 157.672 25.4278 157.371 25.7442 157.161C26.0606 156.95 26.432 156.838 26.8114 156.84C27.0649 156.841 27.3158 156.892 27.5495 156.991C27.7832 157.09 27.9951 157.235 28.1731 157.417C28.351 157.598 28.4914 157.814 28.5863 158.051C28.6811 158.288 28.7284 158.541 28.7256 158.796Z" fill="#F2F9FF" fill-opacity="0.5"/>
<path d="M64.2295 72.2415C64.2252 72.6232 64.1089 72.9951 63.8952 73.3104C63.6815 73.6257 63.3799 73.8703 63.0284 74.0134C62.677 74.1565 62.2914 74.1917 61.9201 74.1146C61.5488 74.0375 61.2085 73.8515 60.9419 73.5801C60.6753 73.3086 60.4945 72.9639 60.4221 72.5892C60.3497 72.2145 60.389 71.8266 60.535 71.4743C60.6811 71.1221 60.9273 70.8212 61.2428 70.6095C61.5583 70.3979 61.9289 70.2849 62.308 70.2849C62.5622 70.2849 62.8138 70.3357 63.0484 70.4342C63.2829 70.5328 63.4957 70.6773 63.6744 70.8593C63.8531 71.0413 63.9942 71.2571 64.0895 71.4944C64.1848 71.7317 64.2323 71.9856 64.2295 72.2415Z" fill="#F2F9FF" fill-opacity="0.5"/>
<path d="M105.224 202.366C105.224 202.749 105.111 203.123 104.9 203.441C104.689 203.759 104.389 204.007 104.038 204.153C103.687 204.3 103.3 204.338 102.927 204.264C102.555 204.189 102.212 204.005 101.944 203.734C101.675 203.463 101.492 203.119 101.418 202.743C101.344 202.368 101.382 201.979 101.527 201.626C101.673 201.272 101.919 200.97 102.235 200.757C102.551 200.545 102.922 200.431 103.302 200.431C103.812 200.431 104.301 200.635 104.661 200.998C105.021 201.361 105.224 201.853 105.224 202.366Z" fill="#F2F9FF" fill-opacity="0.5"/>
<path d="M197.193 66.1755C196.969 66.1755 196.754 66.2652 196.595 66.4248C196.437 66.5844 196.348 66.8008 196.348 67.0265C196.348 67.2522 196.437 67.4687 196.595 67.6283C196.754 67.7879 196.969 67.8775 197.193 67.8775C197.417 67.8775 197.632 67.7879 197.79 67.6283C197.949 67.4687 198.038 67.2522 198.038 67.0265C198.038 66.8008 197.949 66.5844 197.79 66.4248C197.632 66.2652 197.417 66.1755 197.193 66.1755Z" fill="#F2F9FF" fill-opacity="0.5"/>
<path d="M209.856 27.9167C209.71 27.9167 209.57 27.975 209.467 28.0787C209.364 28.1823 209.307 28.3229 209.307 28.4695C209.307 28.6161 209.364 28.7568 209.467 28.8604C209.57 28.9641 209.71 29.0223 209.856 29.0223C210.001 29.0223 210.141 28.9641 210.244 28.8604C210.347 28.7568 210.405 28.6161 210.405 28.4695C210.405 28.3229 210.347 28.1823 210.244 28.0787C210.141 27.975 210.001 27.9167 209.856 27.9167Z" fill="#F2F9FF" fill-opacity="0.5"/>
<path d="M156.539 60.4592L156.358 60.2628C156.287 60.19 156.202 60.1322 156.108 60.0927C156.015 60.0533 155.914 60.033 155.813 60.033C155.711 60.033 155.611 60.0533 155.517 60.0927C155.424 60.1322 155.339 60.19 155.267 60.2628L155.094 60.4592C154.938 60.6215 154.838 60.8303 154.809 61.0545C154.781 61.2786 154.825 61.5061 154.935 61.703L155.043 61.8848C155.124 62.0188 155.237 62.1297 155.373 62.2066C155.508 62.2835 155.661 62.324 155.816 62.324C155.972 62.324 156.125 62.2835 156.26 62.2066C156.396 62.1297 156.509 62.0188 156.589 61.8848L156.698 61.703C156.807 61.5058 156.85 61.2786 156.822 61.0547C156.793 60.8308 156.694 60.6221 156.539 60.4592Z" fill="#F2F9FF" fill-opacity="0.5"/>
<path d="M166.854 28.1712C166.851 28.1373 166.851 28.1032 166.854 28.0693C166.882 27.9921 166.894 27.9099 166.89 27.8278C166.885 27.7457 166.864 27.6654 166.827 27.5919C166.791 27.5183 166.74 27.453 166.677 27.4001C166.615 27.3471 166.542 27.3075 166.464 27.2838C166.294 27.2397 166.116 27.2381 165.945 27.2793C165.774 27.3205 165.616 27.4032 165.484 27.5201C165.352 27.6371 165.251 27.7847 165.189 27.9502C165.127 28.1156 165.106 28.2939 165.128 28.4694C165.13 28.6031 165.163 28.7345 165.223 28.8539C165.283 28.9732 165.369 29.0773 165.474 29.1584C165.58 29.2396 165.702 29.2956 165.832 29.3224C165.962 29.3492 166.097 29.346 166.226 29.3131C166.441 29.2535 166.624 29.1108 166.735 28.9159C166.846 28.7211 166.876 28.49 166.818 28.273C166.818 28.273 166.847 28.2148 166.854 28.1712Z" fill="#F2F9FF" fill-opacity="0.5"/>
<path d="M114.037 23.6621C113.997 23.5181 113.929 23.3836 113.838 23.2662C113.746 23.1488 113.632 23.051 113.502 22.9784C113.388 22.9139 113.257 22.8888 113.127 22.9068C112.998 22.9248 112.877 22.9849 112.785 23.0779C112.693 23.171 112.633 23.292 112.615 23.4224C112.597 23.5528 112.622 23.6855 112.686 23.8003C112.758 23.9308 112.855 24.0456 112.972 24.138C113.088 24.2304 113.222 24.2986 113.365 24.3385C113.458 24.3634 113.556 24.3633 113.649 24.3382C113.742 24.313 113.827 24.2637 113.895 24.1952C113.963 24.1267 114.012 24.0414 114.037 23.9478C114.062 23.8542 114.062 23.7557 114.037 23.6621Z" fill="#F2F9FF" fill-opacity="0.5"/>
<path d="M159.523 134.002H158.598C158.466 134.002 158.339 134.055 158.246 134.149C158.152 134.243 158.1 134.37 158.1 134.504C158.1 134.637 158.152 134.764 158.246 134.858C158.339 134.953 158.466 135.005 158.598 135.005H159.523C159.655 135.005 159.782 134.953 159.875 134.858C159.969 134.764 160.021 134.637 160.021 134.504C160.021 134.37 159.969 134.243 159.875 134.149C159.782 134.055 159.655 134.002 159.523 134.002Z" fill="#F2F9FF" fill-opacity="0.5"/>
<path d="M116.448 136.772C116.276 136.809 116.119 136.898 116 137.029C115.881 137.159 115.805 137.324 115.784 137.5C115.761 137.589 115.762 137.683 115.786 137.773C115.811 137.862 115.857 137.943 115.922 138.009C115.987 138.075 116.067 138.123 116.155 138.148C116.244 138.174 116.337 138.176 116.427 138.154C116.601 138.128 116.763 138.049 116.892 137.928C117.02 137.808 117.11 137.651 117.149 137.478C117.181 137.38 117.185 137.274 117.161 137.174C117.137 137.074 117.086 136.982 117.013 136.909C116.941 136.836 116.85 136.785 116.75 136.76C116.65 136.736 116.546 136.74 116.448 136.772Z" fill="#F2F9FF" fill-opacity="0.5"/>
<path d="M110.418 129.288C110.273 129.288 110.133 129.346 110.03 129.45C109.927 129.553 109.869 129.694 109.869 129.841C109.869 129.987 109.927 130.128 110.03 130.232C110.133 130.335 110.273 130.393 110.418 130.393C110.564 130.393 110.703 130.335 110.806 130.232C110.909 130.128 110.967 129.987 110.967 129.841C110.967 129.694 110.909 129.553 110.806 129.45C110.703 129.346 110.564 129.288 110.418 129.288Z" fill="#F2F9FF" fill-opacity="0.5"/>
<path d="M84.1377 146.891V146.804V146.636C84.1324 146.447 84.0665 146.264 83.9498 146.115C83.8332 145.967 83.672 145.86 83.4902 145.811C83.3084 145.762 83.1157 145.773 82.9409 145.843C82.766 145.913 82.6183 146.038 82.5197 146.2C82.4051 146.393 82.3498 146.616 82.3607 146.841C82.3717 147.066 82.4483 147.282 82.5811 147.463C82.7138 147.644 82.8967 147.782 83.1069 147.859C83.317 147.935 83.5449 147.948 83.7621 147.895C83.8551 147.857 83.9393 147.8 84.0094 147.728C84.0795 147.656 84.1339 147.57 84.1693 147.476C84.2046 147.382 84.22 147.281 84.2146 147.18C84.2092 147.079 84.183 146.981 84.1377 146.891Z" fill="#F2F9FF" fill-opacity="0.5"/>
<path d="M202.732 210.083C202.639 209.992 202.528 209.923 202.405 209.882C202.283 209.841 202.153 209.828 202.025 209.845C201.897 209.862 201.774 209.908 201.667 209.979C201.559 210.05 201.468 210.146 201.402 210.257C201.31 210.436 201.235 210.624 201.179 210.817C201.149 210.932 201.149 211.053 201.179 211.168C201.21 211.283 201.27 211.388 201.353 211.472C201.436 211.557 201.54 211.618 201.654 211.65C201.767 211.682 201.887 211.683 202.002 211.654C202.194 211.587 202.378 211.5 202.551 211.392C202.659 211.327 202.75 211.238 202.82 211.132C202.889 211.026 202.934 210.906 202.951 210.781C202.968 210.655 202.958 210.528 202.92 210.407C202.882 210.286 202.817 210.175 202.732 210.083Z" fill="#F2F9FF" fill-opacity="0.5"/>
<path d="M173.111 179.177C172.984 179.178 172.86 179.212 172.751 179.276C172.642 179.34 172.551 179.432 172.488 179.543C172.425 179.653 172.392 179.778 172.393 179.906C172.393 180.033 172.426 180.158 172.489 180.268L172.634 180.494C172.684 180.575 172.753 180.642 172.836 180.688C172.919 180.735 173.012 180.759 173.107 180.759C173.202 180.759 173.295 180.735 173.378 180.688C173.461 180.642 173.53 180.575 173.58 180.494L173.732 180.268C173.795 180.158 173.828 180.033 173.829 179.906C173.829 179.778 173.796 179.653 173.733 179.543C173.67 179.432 173.579 179.34 173.47 179.276C173.361 179.212 173.237 179.178 173.111 179.177Z" fill="#F2F9FF" fill-opacity="0.5"/>
<path d="M160.548 162.972C160.184 162.972 159.835 163.118 159.578 163.377C159.32 163.636 159.176 163.988 159.176 164.354C159.176 164.721 159.32 165.072 159.578 165.332C159.835 165.591 160.184 165.736 160.548 165.736C160.912 165.736 161.261 165.591 161.519 165.332C161.776 165.072 161.921 164.721 161.921 164.354C161.921 163.988 161.776 163.636 161.519 163.377C161.261 163.118 160.912 162.972 160.548 162.972Z" fill="#F2F9FF" fill-opacity="0.5"/>
<path d="M155.196 4.09619H155.008C154.731 4.09619 154.464 4.20731 154.268 4.4051C154.071 4.60289 153.961 4.87114 153.961 5.15086C153.961 5.43057 154.071 5.69883 154.268 5.89662C154.464 6.09441 154.731 6.20553 155.008 6.20553H155.196C155.474 6.20553 155.74 6.09441 155.937 5.89662C156.133 5.69883 156.244 5.43057 156.244 5.15086C156.244 4.87114 156.133 4.60289 155.937 4.4051C155.74 4.20731 155.474 4.09619 155.196 4.09619Z" fill="#F2F9FF" fill-opacity="0.5"/>
<path d="M125.551 4.35132C125.211 4.35132 124.879 4.45284 124.596 4.64306C124.313 4.83328 124.093 5.10364 123.963 5.41996C123.833 5.73628 123.799 6.08435 123.865 6.42015C123.931 6.75595 124.095 7.0644 124.336 7.3065C124.576 7.5486 124.882 7.71348 125.216 7.78027C125.549 7.84707 125.895 7.81279 126.209 7.68176C126.523 7.55074 126.792 7.32886 126.981 7.04418C127.17 6.7595 127.27 6.42481 127.27 6.08243C127.263 5.62565 127.079 5.18967 126.759 4.86664C126.438 4.5436 126.005 4.35881 125.551 4.35132Z" fill="#F2F9FF" fill-opacity="0.5"/>
<path d="M83.5539 8.05347C83.3355 8.05347 83.1261 8.14082 82.9717 8.29633C82.8172 8.45183 82.7305 8.66274 82.7305 8.88265C82.7305 9.10257 82.8172 9.31347 82.9717 9.46897C83.1261 9.62448 83.3355 9.71184 83.5539 9.71184C83.7723 9.71184 83.9818 9.62448 84.1362 9.46897C84.2907 9.31347 84.3774 9.10257 84.3774 8.88265C84.3774 8.66274 84.2907 8.45183 84.1362 8.29633C83.9818 8.14082 83.7723 8.05347 83.5539 8.05347Z" fill="#F2F9FF" fill-opacity="0.5"/>
<path d="M89.1445 26.9333C88.9855 26.9333 88.833 26.997 88.7205 27.1102C88.6081 27.2234 88.5449 27.3769 88.5449 27.5371C88.5449 27.6972 88.6081 27.8507 88.7205 27.9639C88.833 28.0772 88.9855 28.1408 89.1445 28.1408C89.3035 28.1408 89.456 28.0772 89.5684 27.9639C89.6809 27.8507 89.744 27.6972 89.744 27.5371C89.744 27.3769 89.6809 27.2234 89.5684 27.1102C89.456 26.997 89.3035 26.9333 89.1445 26.9333Z" fill="#F2F9FF" fill-opacity="0.5"/>
<path d="M46.1862 39.2263C45.8562 39.2263 45.5336 39.3249 45.2592 39.5095C44.9848 39.6941 44.7709 39.9565 44.6446 40.2635C44.5183 40.5705 44.4853 40.9084 44.5496 41.2343C44.614 41.5602 44.7729 41.8596 45.0063 42.0946C45.2397 42.3296 45.537 42.4896 45.8607 42.5544C46.1843 42.6192 46.5199 42.586 46.8248 42.4588C47.1297 42.3316 47.3903 42.1163 47.5736 41.84C47.757 41.5637 47.8548 41.2388 47.8548 40.9065C47.8492 40.4627 47.6716 40.0386 47.3599 39.7247C47.0482 39.4108 46.627 39.232 46.1862 39.2263Z" fill="#F2F9FF" fill-opacity="0.5"/>
<path d="M202.754 22.6797C202.622 22.6797 202.495 22.7326 202.402 22.8267C202.308 22.9208 202.256 23.0485 202.256 23.1816C202.256 23.3147 202.308 23.4423 202.402 23.5364C202.495 23.6306 202.622 23.6834 202.754 23.6834C202.886 23.6834 203.013 23.6306 203.107 23.5364C203.2 23.4423 203.253 23.3147 203.253 23.1816C203.253 23.0485 203.2 22.9208 203.107 22.8267C203.013 22.7326 202.886 22.6797 202.754 22.6797Z" fill="#F2F9FF" fill-opacity="0.5"/>
<path d="M14.3241 121.403C14.146 121.403 13.9751 121.475 13.8491 121.601C13.7231 121.728 13.6523 121.9 13.6523 122.08C13.6523 122.259 13.7231 122.431 13.8491 122.558C13.9751 122.685 14.146 122.756 14.3241 122.756C14.5023 122.756 14.6732 122.685 14.7991 122.558C14.9251 122.431 14.9959 122.259 14.9959 122.08C14.9959 121.9 14.9251 121.728 14.7991 121.601C14.6732 121.475 14.5023 121.403 14.3241 121.403Z" fill="#F2F9FF" fill-opacity="0.5"/>
<path d="M1.90073 83.988C1.74938 83.988 1.60424 84.0486 1.49722 84.1563C1.3902 84.2641 1.33008 84.4103 1.33008 84.5627C1.33008 84.7151 1.3902 84.8612 1.49722 84.969C1.60424 85.0767 1.74938 85.1373 1.90073 85.1373C2.05208 85.1373 2.19723 85.0767 2.30424 84.969C2.41126 84.8612 2.47138 84.7151 2.47138 84.5627C2.47138 84.4103 2.41126 84.2641 2.30424 84.1563C2.19723 84.0486 2.05208 83.988 1.90073 83.988Z" fill="#F2F9FF" fill-opacity="0.5"/>
<path d="M14.3232 61.7533H14.1354C14.0177 61.7246 13.8934 61.7428 13.7887 61.8042C13.6922 61.8444 13.6111 61.9151 13.5577 62.0055C13.5044 62.096 13.4815 62.2014 13.4926 62.3061C13.4721 62.4184 13.4903 62.5344 13.5441 62.6349C13.598 62.7354 13.6843 62.8144 13.7887 62.8588C13.8932 62.921 14.0177 62.9393 14.1354 62.9098H14.3232C14.4645 62.8938 14.5949 62.826 14.6896 62.7193C14.7843 62.6127 14.8366 62.4746 14.8366 62.3315C14.8366 62.1884 14.7843 62.0504 14.6896 61.9437C14.5949 61.837 14.4645 61.7692 14.3232 61.7533Z" fill="#F2F9FF" fill-opacity="0.5"/>
<path d="M27.2041 40.1875C27.1256 40.2101 27.0565 40.2578 27.0074 40.3234C26.9582 40.389 26.9316 40.469 26.9316 40.5512C26.9316 40.6334 26.9582 40.7133 27.0074 40.7789C27.0565 40.8446 27.1256 40.8923 27.2041 40.9149C27.2826 40.8923 27.3516 40.8446 27.4008 40.7789C27.4499 40.7133 27.4765 40.6334 27.4765 40.5512C27.4765 40.469 27.4499 40.389 27.4008 40.3234C27.3516 40.2578 27.2826 40.2101 27.2041 40.1875Z" fill="#F2F9FF" fill-opacity="0.5"/>
<path d="M13.9189 193.688C13.7209 193.745 13.5372 193.844 13.3803 193.978C13.2233 194.112 13.0966 194.279 13.0088 194.466C12.9365 194.633 12.8715 194.801 12.8065 194.975C12.757 195.163 12.7572 195.36 12.8072 195.547C12.8571 195.734 12.955 195.905 13.0911 196.042C13.2272 196.179 13.3967 196.277 13.5825 196.327C13.7684 196.378 13.9641 196.378 14.1501 196.328L14.6557 196.124C14.8487 196.04 15.0211 195.915 15.1608 195.756C15.3006 195.598 15.4043 195.411 15.4648 195.208C15.523 194.994 15.5233 194.768 15.4656 194.554C15.4079 194.339 15.2942 194.145 15.1365 193.989C14.9788 193.834 14.7827 193.725 14.5686 193.672C14.3544 193.618 14.1301 193.624 13.9189 193.688Z" fill="#F2F9FF" fill-opacity="0.5"/>
<path d="M36.8603 189.332C36.7818 189.354 36.7128 189.402 36.6636 189.467C36.6145 189.533 36.5879 189.613 36.5879 189.695C36.5879 189.777 36.6145 189.857 36.6636 189.923C36.7128 189.989 36.7818 190.036 36.8603 190.059C36.9388 190.036 37.0079 189.989 37.057 189.923C37.1062 189.857 37.1328 189.777 37.1328 189.695C37.1328 189.613 37.1062 189.533 37.057 189.467C37.0079 189.402 36.9388 189.354 36.8603 189.332Z" fill="#F2F9FF" fill-opacity="0.5"/>
<path d="M29.4995 216.004C27.0002 216.004 27.0002 219.917 29.4995 219.917C31.9988 219.917 32.006 216.004 29.4995 216.004Z" fill="#F2F9FF" fill-opacity="0.5"/>
<path d="M27.8597 27.7566C27.8601 27.4133 27.7398 27.081 27.5202 26.8183C27.3541 26.651 27.1663 26.5056 26.9857 26.3456C26.9229 26.2861 26.846 26.2439 26.7624 26.2228C26.6787 26.2017 26.5912 26.2025 26.5079 26.2251C26.4247 26.2477 26.3486 26.2913 26.2868 26.3519C26.225 26.4124 26.1797 26.4879 26.155 26.571C26.0882 26.8421 26.0351 27.1164 25.9961 27.393C26.0098 27.7548 26.1306 28.1044 26.3428 28.3967C26.4465 28.5681 26.6074 28.6966 26.7968 28.7592C26.9861 28.8219 27.1914 28.8146 27.3758 28.7386C27.5575 28.6574 27.7053 28.5148 27.7937 28.3355C27.8821 28.1562 27.9055 27.9514 27.8597 27.7566Z" fill="#F2F9FF" fill-opacity="0.5"/>
</svg>
