<svg width="85" height="10" viewBox="0 0 85 10" fill="none" xmlns="http://www.w3.org/2000/svg">
<g clip-path="url(#clip0_1009_18676)">
<path d="M58.0443 9.632C56.7416 9.632 55.6964 9.2793 55.0246 8.61402C54.7435 8.34009 54.5307 8.00211 54.4039 7.62809C54.2772 7.25407 54.24 6.85478 54.2956 6.46328C54.4686 5.00962 55.7018 3.46606 57.5946 2.33468C59.1426 1.40937 60.9414 0.879639 62.5303 0.879639C63.8344 0.879639 64.8796 1.23095 65.5514 1.89761C65.833 2.17079 66.0461 2.50851 66.1727 2.88248C66.2993 3.25644 66.3358 3.65576 66.279 4.04697C66.1142 5.4951 64.8727 7.04419 62.98 8.17558C61.432 9.10088 59.6332 9.632 58.0443 9.632ZM62.5303 2.27105C61.1799 2.27105 59.6346 2.73163 58.291 3.53384C56.8097 4.42042 55.7754 5.63479 55.6569 6.63063C55.6272 6.8094 55.6413 6.99283 55.6978 7.16479C55.7544 7.33674 55.8517 7.49196 55.9812 7.6168C56.39 8.01928 57.119 8.2392 58.0443 8.2392C59.3961 8.2392 60.9414 7.78 62.285 6.97641C63.7662 6.09122 64.8005 4.87546 64.9191 3.87962C64.9487 3.70085 64.9347 3.51742 64.8781 3.34547C64.8216 3.17351 64.7243 3.01829 64.5948 2.89346C64.1887 2.49235 63.4556 2.27105 62.5303 2.27105Z" fill="white"/>
<path fill-rule="evenodd" clip-rule="evenodd" d="M82.3917 1.805C82.7704 1.79858 83.1473 1.85991 83.5051 1.98619C83.761 2.07104 83.9748 2.25287 84.1019 2.49379C84.2126 2.70597 84.2599 2.94628 84.2382 3.18535C84.2082 3.46099 84.1184 3.72646 83.9752 3.96266L83.9493 4.00969L83.922 4.05671L83.9084 4.08022L83.8961 4.10374C83.8838 4.10793 83.873 4.11561 83.8648 4.12587C83.861 4.13414 83.8565 4.14202 83.8512 4.14938C83.6549 4.43987 83.418 4.69986 83.148 4.92116C82.8222 5.19044 82.4728 5.42887 82.1042 5.63346C81.7088 5.85544 81.2857 6.02245 80.8464 6.13C80.3729 6.24458 79.8875 6.30123 79.4006 6.29874C79.3298 6.29874 79.2576 6.29874 79.1826 6.29874C79.1077 6.29874 79.0314 6.28906 78.9523 6.28076C78.8733 6.27246 78.797 6.26278 78.7207 6.25172C78.6443 6.24065 78.5612 6.23097 78.4713 6.22267L78.6512 4.77178C78.7075 4.78863 78.7649 4.80203 78.8229 4.81189C78.8869 4.82434 78.951 4.83817 79.0123 4.85339C79.0352 4.86164 79.059 4.86721 79.0831 4.86999C79.1144 4.87304 79.1459 4.87304 79.1772 4.86999H79.3325C79.5186 4.87122 79.7044 4.85361 79.8871 4.81743C80.0494 4.78395 80.2072 4.73101 80.3572 4.65975C80.4857 4.59305 80.6092 4.51677 80.7265 4.43154C80.8253 4.363 80.9123 4.27842 80.9841 4.18119L80.9977 4.15768L81.01 4.13278C81.015 4.12573 81.0195 4.11833 81.0236 4.11065L81.0372 4.08714L81.0508 4.06363L81.0631 4.04012L81.0767 4.01799C81.0767 4.0083 81.0863 4.00139 81.0904 3.99309C81.1251 3.91844 81.141 3.83623 81.1367 3.75381C81.131 3.67938 81.113 3.60646 81.0836 3.53804C81.0522 3.46962 80.9988 3.41403 80.9323 3.38037C80.8438 3.34164 80.7479 3.32367 80.6516 3.32781L79.2371 3.31674L76.0103 9.00412H73.1486L77.2367 1.79808L82.3917 1.805ZM73.586 1.805C74.0169 1.79935 74.4461 1.86045 74.8588 1.98619C75.1127 2.04051 75.3392 2.18498 75.4976 2.39363C75.6559 2.60229 75.7358 2.86143 75.7227 3.12449C75.7105 3.37681 75.6355 3.62187 75.5047 3.8368L75.4775 3.88382L75.4516 3.93085L75.4325 3.96543L75.4189 3.98894L75.4052 4.01245C75.2543 4.22869 75.0797 4.42683 74.8847 4.60304C74.6556 4.80751 74.4104 4.99255 74.1516 5.15629C73.867 5.33177 73.5679 5.48172 73.2576 5.60442C72.9435 5.72884 72.6181 5.8215 72.286 5.88104L72.4632 9.01104H69.3917L69.652 5.11065C69.6615 5.11939 69.6733 5.12516 69.686 5.12724C69.6996 5.12909 69.7133 5.12909 69.7269 5.12724H69.8632C69.8669 5.13118 69.8713 5.13431 69.8762 5.13645C69.8811 5.13859 69.8864 5.13969 69.8918 5.13969H69.9804C70.2621 5.14155 70.5436 5.12213 70.8225 5.0816C71.0552 5.04799 71.2836 4.9891 71.5039 4.90594C71.6865 4.83559 71.863 4.74952 72.0312 4.64869C72.158 4.57228 72.2744 4.47928 72.3773 4.37206L72.3869 4.35408C72.3896 4.3483 72.3928 4.34275 72.3964 4.33749L72.41 4.31397C72.41 4.30567 72.4182 4.30014 72.4196 4.29599L72.4291 4.27801C72.4344 4.27065 72.439 4.26277 72.4427 4.2545C72.5006 4.16497 72.527 4.05825 72.5177 3.95159C72.5017 3.84927 72.454 3.75478 72.3814 3.68189C72.292 3.58508 72.1771 3.51642 72.0503 3.4841C71.8666 3.4328 71.6766 3.40904 71.4861 3.41356L70.1793 3.4025L66.9988 9.00827H64.2435L68.3315 1.80223L73.586 1.805ZM54.9172 3.56847C54.8082 3.55326 54.6964 3.53528 54.5833 3.51591C54.4702 3.49655 54.3408 3.47857 54.1963 3.46335L53.9879 3.43984L53.7821 3.42048C53.7153 3.41218 53.6458 3.40803 53.5695 3.4025C53.4932 3.39696 53.4237 3.3942 53.3569 3.3859H53.2779C53.2528 3.38663 53.2278 3.38241 53.2043 3.37345H52.9822C52.9572 3.37449 52.9322 3.37074 52.9086 3.36239H52.7315C52.3204 3.37056 51.9105 3.4094 51.505 3.47857C51.0888 3.55138 50.6788 3.65681 50.2786 3.79392C49.8814 3.92679 49.5117 4.13312 49.1885 4.40249C48.8636 4.67703 48.5907 5.00933 48.3831 5.38312C48.1889 5.69348 48.0608 6.04164 48.007 6.40524C47.9904 6.53119 48.0031 6.65932 48.0441 6.7794C48.085 6.89948 48.153 7.00817 48.2428 7.0968C48.4502 7.28983 48.7009 7.42847 48.9732 7.50067C49.3286 7.59721 49.6954 7.64375 50.0633 7.63898C50.2173 7.63898 50.3794 7.63898 50.5525 7.621C50.7256 7.60302 50.9068 7.59196 51.0976 7.56844C51.2011 7.55323 51.3006 7.5394 51.396 7.52834L51.6944 7.48684C51.8021 7.46333 51.9057 7.44397 52.0024 7.42875C52.0992 7.41354 52.2027 7.39279 52.3104 7.36927L52.4317 7.34576L52.5502 7.32363L52.6224 7.30565L52.6947 7.28767C52.7137 7.28911 52.7328 7.28911 52.7519 7.28767C52.7735 7.28474 52.7946 7.27869 52.8146 7.26969L51.5296 8.9405C51.2706 8.97922 51.0195 9.01011 50.776 9.03316C50.5321 9.05668 50.299 9.07743 50.0769 9.09264C49.8548 9.10785 49.6232 9.11892 49.4174 9.12722C49.2116 9.13552 49.0208 9.13828 48.8423 9.13828C48.1308 9.15452 47.4199 9.0844 46.7247 8.92943C46.1796 8.79112 45.7776 8.57397 45.5269 8.28628C45.3062 8.01814 45.1483 7.70273 45.065 7.36374C44.9928 7.02721 45.005 6.67767 45.1004 6.34715C45.1167 6.278 45.1358 6.20884 45.1576 6.13692C45.185 6.05744 45.2211 5.98134 45.2653 5.91009C45.2762 5.87136 45.2871 5.8354 45.3007 5.79944C45.3164 5.76135 45.3346 5.72438 45.3552 5.68879C45.3729 5.65836 45.3934 5.6224 45.4152 5.58229L45.4751 5.47856L45.4942 5.44259C45.4942 5.43568 45.5037 5.426 45.5119 5.41355C45.5168 5.40354 45.5223 5.39384 45.5283 5.38451L45.5378 5.3679C45.5378 5.3679 45.5487 5.35823 45.5651 5.34993L45.5787 5.32641L45.5882 5.30982C45.5915 5.30359 45.5951 5.29758 45.5991 5.29184L45.6618 5.1798C45.6818 5.14379 45.7065 5.11075 45.7354 5.0816C45.7572 5.04149 45.7831 5.00415 45.8104 4.96404C45.8396 4.92364 45.871 4.88486 45.9044 4.84786C46.2509 4.428 46.6436 4.04979 47.0749 3.72062C47.5964 3.32328 48.1513 2.97337 48.7333 2.67498C49.3932 2.33949 50.0924 2.09038 50.8141 1.93363C51.6168 1.76072 52.4356 1.67632 53.2561 1.6819C53.4332 1.6819 53.6145 1.6819 53.8012 1.69988C53.9879 1.71786 54.1773 1.72478 54.3803 1.73999C54.5833 1.75521 54.7591 1.7884 54.954 1.81053C55.1489 1.83266 55.3424 1.86171 55.5372 1.89214V1.88107L54.9172 3.56847Z" fill="white"/>
<path fill-rule="evenodd" clip-rule="evenodd" d="M45.527 3.51966L45.0119 3.41455C44.8511 3.38274 44.6971 3.35507 44.5513 3.33294C44.4055 3.31081 44.2788 3.29422 44.1521 3.279C44.0294 3.26572 43.9061 3.2588 43.7828 3.25826C43.6045 3.25649 43.4263 3.26898 43.25 3.2956C43.0957 3.31862 42.9447 3.36041 42.8003 3.42008C42.6851 3.46163 42.576 3.51886 42.4759 3.5902C42.4 3.64377 42.3355 3.71247 42.2865 3.79214C42.2596 3.83462 42.2398 3.88136 42.2279 3.93045C42.2169 3.97847 42.2128 4.02785 42.2157 4.07706C42.2157 4.10611 42.2266 4.13377 42.2334 4.15866C42.2402 4.18356 42.2497 4.20707 42.2593 4.2292C42.2645 4.25889 42.2766 4.28688 42.2947 4.31081C42.3134 4.33754 42.3307 4.36524 42.3465 4.39379C42.3805 4.44116 42.4193 4.48474 42.4623 4.52381C42.51 4.56668 42.5591 4.61094 42.6122 4.65382C42.6654 4.6967 42.6953 4.71468 42.7485 4.74649C42.8013 4.78152 42.8564 4.81294 42.9134 4.84054C42.9315 4.84734 42.9489 4.85616 42.9652 4.86682C42.981 4.87767 42.9979 4.88693 43.0156 4.89448C43.1797 4.97447 43.332 5.07735 43.468 5.20015C43.5895 5.30745 43.6854 5.44127 43.7487 5.59157C43.8172 5.73219 43.8632 5.883 43.885 6.03832C43.9075 6.18961 43.9075 6.34346 43.885 6.49475C43.8652 6.5427 43.8492 6.59219 43.8373 6.64274C43.825 6.68977 43.8114 6.73541 43.7964 6.78105L43.7569 6.84744C43.7443 6.86691 43.7368 6.88926 43.7351 6.91245L43.6942 6.97745L43.6547 7.04246C43.4975 7.29006 43.2949 7.50466 43.0578 7.67455C42.7609 7.89181 42.441 8.0746 42.1039 8.21949C41.6841 8.39994 41.243 8.52453 40.7917 8.59017C40.2273 8.67447 39.6574 8.71424 39.0869 8.70912C38.9071 8.70912 38.7217 8.70912 38.5337 8.69805C38.3456 8.68699 38.1535 8.68146 37.9586 8.66624C37.7638 8.65103 37.5621 8.63304 37.3536 8.61091C37.1451 8.58878 36.938 8.56389 36.7295 8.53484L37.419 6.86819C37.4926 6.89724 37.5621 6.92766 37.6289 6.95532C37.6997 6.98586 37.7725 7.01128 37.8469 7.0314C37.9204 7.06087 37.9955 7.08627 38.0717 7.10747C38.1519 7.12916 38.2334 7.14533 38.3157 7.15588L38.4138 7.17939L38.5105 7.20014C38.5691 7.21535 38.6332 7.2278 38.6999 7.23887C38.7667 7.24993 38.8362 7.25823 38.9125 7.26653C39.0174 7.28036 39.1183 7.29142 39.215 7.29834C39.3118 7.30525 39.4126 7.3094 39.5148 7.3094C39.6748 7.30931 39.8346 7.29822 39.9931 7.27621C40.1485 7.25611 40.3015 7.21996 40.4496 7.16833C40.5802 7.12902 40.7036 7.06828 40.8148 6.98852C40.9133 6.91655 40.997 6.8259 41.0615 6.72158C41.0827 6.68615 41.0979 6.64734 41.1064 6.60678C41.1125 6.57294 41.1125 6.53827 41.1064 6.50443C41.106 6.46634 41.0966 6.4289 41.0792 6.39516C41.0588 6.35467 41.0321 6.31777 41.0002 6.2859C40.9819 6.25428 40.9599 6.22503 40.9347 6.19876C40.9075 6.16971 40.8789 6.14067 40.853 6.11163L40.7453 6.03555C40.7058 6.00512 40.6677 5.97608 40.6281 5.94842C40.5505 5.88894 40.4728 5.82947 40.3978 5.76861C40.3229 5.70776 40.2439 5.6386 40.1635 5.56668C40.1103 5.5238 40.0544 5.47954 39.9958 5.43667C39.9389 5.39527 39.8856 5.34899 39.8364 5.29835C39.788 5.24856 39.7425 5.19591 39.7001 5.14068C39.6599 5.08682 39.6231 5.03046 39.5898 4.97194C39.5543 4.89863 39.5216 4.82256 39.4903 4.74234C39.4598 4.66128 39.437 4.57745 39.4222 4.49199C39.4222 4.40486 39.4222 4.31772 39.4222 4.23059C39.4245 4.14265 39.435 4.05513 39.4535 3.96918L39.4889 3.85576C39.5026 3.81565 39.5148 3.77692 39.5244 3.74096C39.5359 3.7025 39.5524 3.66575 39.5734 3.6317C39.5966 3.59574 39.6184 3.55977 39.6402 3.52381C39.7941 3.2794 39.9903 3.06526 40.2193 2.89173C40.5111 2.67098 40.8271 2.48533 41.161 2.33849C41.5693 2.15039 42.0005 2.01829 42.4432 1.94568C42.9837 1.85528 43.5307 1.81179 44.0785 1.81567H44.5595C44.7217 1.81567 44.8893 1.8295 45.061 1.84471C45.2327 1.85993 45.433 1.86546 45.6129 1.88759C45.7927 1.90972 45.9685 1.93461 46.1443 1.96366L45.527 3.51966ZM37.4694 1.87376H39.8827L35.7947 8.5957H32.5528L31.6276 4.41178L29.0862 8.5957H26.6551L30.7432 1.87376H33.9891L34.7727 6.31771L37.4694 1.87376ZM23.7063 5.27207L23.9297 3.36614L21.6336 5.27207H23.7063ZM26.5366 1.87376L26.1278 8.5957H23.1898L23.4296 6.63444H20.1823L17.9203 8.5957H14.9973L23.1735 1.87376H26.5366ZM15.5247 1.87376C15.937 1.86692 16.348 1.9224 16.7443 2.03835C17.0075 2.10563 17.2385 2.266 17.3957 2.49063C17.5006 2.67572 17.5516 2.88722 17.5428 3.10058C17.526 3.33839 17.4485 3.56767 17.318 3.76586C17.3084 3.77969 17.3003 3.7949 17.2921 3.80874C17.2839 3.82257 17.2744 3.83778 17.2648 3.853L17.2458 3.88481C17.2407 3.89187 17.2362 3.89926 17.2321 3.90694C17.2268 3.91379 17.2222 3.92121 17.2185 3.92907C17.0688 4.13254 16.897 4.31814 16.7061 4.48232C16.4824 4.67464 16.2436 4.84811 15.9921 5.00098C15.7147 5.16286 15.4249 5.30163 15.1254 5.41592C14.8242 5.53153 14.5131 5.61857 14.1961 5.67594L14.2901 8.5957H11.3439L11.6846 4.95672C11.6941 4.96469 11.7053 4.97037 11.7173 4.97332C11.7304 4.97507 11.7437 4.97507 11.7568 4.97332H11.8931C11.8966 4.97703 11.9009 4.97994 11.9056 4.98185C11.9103 4.98376 11.9153 4.98462 11.9204 4.98438H12.0049C12.2747 4.98574 12.5443 4.96725 12.8116 4.92906C13.0338 4.89859 13.2522 4.84387 13.4629 4.76585C13.6392 4.69997 13.8101 4.61996 13.9739 4.52657C14.0968 4.45453 14.2099 4.36667 14.3105 4.26517L14.3214 4.24857C14.3253 4.24348 14.3285 4.23789 14.331 4.23197L14.3446 4.21122C14.3471 4.2053 14.3503 4.19972 14.3541 4.19463L14.3637 4.17803C14.3674 4.17017 14.372 4.16275 14.3773 4.1559C14.4348 4.07332 14.4627 3.97326 14.4563 3.87236C14.4424 3.77674 14.3973 3.68861 14.3282 3.62202C14.2443 3.53066 14.1358 3.46623 14.0162 3.43668C13.8384 3.38891 13.6549 3.36702 13.4711 3.37167L12.2202 3.36061L9.04237 8.59017H6.4151L10.5032 1.86822L15.5247 1.87376ZM0.7395 3.36614L1.64569 1.87376H9.93901L9.03147 3.36614H6.29246L3.11467 8.5957H0.280273L3.45806 3.36614H0.7395Z" fill="white"/>
<path fill-rule="evenodd" clip-rule="evenodd" d="M51.0889 4.13297C51.8411 3.62814 55.6212 3.28513 59.3808 4.60185C61.9127 2.44281 65.4707 2.04862 66.9792 2.25056C67.1356 2.26713 67.29 2.30004 67.4398 2.34876C67.5051 2.36818 67.5646 2.40383 67.6128 2.45249C67.6292 2.48554 67.6389 2.52158 67.6413 2.55849C67.6437 2.5954 67.6388 2.63243 67.6268 2.66737C67.6149 2.70232 67.5962 2.73448 67.5718 2.76195C67.5473 2.78942 67.5178 2.81165 67.4848 2.82731C66.6767 3.16064 65.5402 3.36673 64.8847 3.61846C62.7916 4.41651 61.7887 5.42342 61.2246 6.19244C60.9602 6.55066 60.8403 6.78994 60.5132 7.29893C58.1394 5.94348 54.9439 4.3764 51.2742 4.56866C50.8736 4.59079 50.8109 4.47322 50.8858 4.35704C50.941 4.27162 51.0096 4.19594 51.0889 4.13297Z" fill="#ED1C24"/>
</g>
<defs>
<clipPath id="clip0_1009_18676">
<rect width="83.958" height="8.75236" fill="white" transform="translate(0.280273 0.879883)"/>
</clipPath>
</defs>
</svg>
