<svg width="44" height="50" viewBox="0 0 44 50" fill="none" xmlns="http://www.w3.org/2000/svg">
<path fill-rule="evenodd" clip-rule="evenodd" d="M22.2316 49.2919C31.8534 49.2919 40.1124 43.1176 43.6637 34.309C40.3433 32.5149 38.0698 28.8609 38.0698 24.645C38.0698 20.4293 40.343 16.7755 43.663 14.9813C40.1115 6.17348 31.8528 0 22.2316 0C12.6105 0 4.35197 6.17324 0.800273 14.9808C4.09084 16.7586 6.35331 20.3631 6.39391 24.5309C6.4524 15.328 13.5205 7.88672 22.231 7.88672C30.9778 7.88672 38.0685 15.3901 38.0685 24.6459C38.0685 33.9018 30.9778 41.4052 22.231 41.4052C13.5201 41.4052 6.4518 33.9633 6.39391 24.7599C6.35303 28.9276 4.09035 32.5319 0.799652 34.3095C4.351 43.1179 12.6099 49.2919 22.2316 49.2919Z" fill="url(#paint0_linear_3_5375)"/>
<defs>
<linearGradient id="paint0_linear_3_5375" x1="22.2317" y1="5.4287e-08" x2="22.2266" y2="62.4363" gradientUnits="userSpaceOnUse">
<stop stop-color="#5E0FCD"/>
<stop offset="0.553414" stop-color="#C942AB"/>
<stop offset="1" stop-color="#3725EA"/>
</linearGradient>
</defs>
</svg>
