<svg width="18" height="19" viewBox="0 0 18 19" fill="none" xmlns="http://www.w3.org/2000/svg">
<path d="M9.8775 3.5L13.5 7.1225V15.5H4.5V3.5H9.8775ZM10.5 2H4.5C3.675 2 3 2.675 3 3.5V15.5C3 16.325 3.675 17 4.5 17H13.5C14.325 17 15 16.325 15 15.5V6.5L10.5 2ZM11.25 8.75H8.25V9.5H10.5C10.9125 9.5 11.25 9.8375 11.25 10.25V12.5C11.25 12.9125 10.9125 13.25 10.5 13.25H9.75V14H8.25V13.25H6.75V11.75H9.75V11H7.5C7.0875 11 6.75 10.6625 6.75 10.25V8C6.75 7.5875 7.0875 7.25 7.5 7.25H8.25V6.5H9.75V7.25H11.25V8.75Z" fill="white"/>
</svg>
