<svg width="71" height="97" viewBox="0 0 71 97" fill="none" xmlns="http://www.w3.org/2000/svg">
<path d="M25.9875 72.3285C25.4097 72.0074 24.8286 71.6891 24.2413 71.3736C24.2222 70.8543 24.2032 70.3378 24.1778 69.8213C23.6348 70.1172 23.0919 70.416 22.5522 70.7119C21.8791 70.5332 21.206 70.3574 20.5297 70.187C20.7932 70.6756 21.0504 71.1642 21.3044 71.6556C20.9139 72.0604 20.5233 72.468 20.1328 72.8729C20.825 72.8785 21.5171 72.884 22.2093 72.8952C22.6284 73.3279 23.0443 73.7607 23.457 74.199C23.6444 73.7077 23.8317 73.2191 24.019 72.7277C24.6731 72.5937 25.3303 72.4597 25.9875 72.3285Z" fill="#CC3366"/>
<path d="M29.5624 83.1943C29.4227 83.6187 29.2799 84.0459 29.1338 84.4703C28.6703 84.621 28.2067 84.7718 27.7432 84.9253C28.14 85.1599 28.5337 85.3944 28.9274 85.6317C28.9179 86.0728 28.9052 86.5112 28.8893 86.9523C29.2799 86.6731 29.6736 86.3967 30.0641 86.1175C30.5213 86.2431 30.9753 86.3688 31.4293 86.4972C31.2833 86.0812 31.1372 85.668 30.9848 85.2548C31.2801 84.8918 31.5754 84.5261 31.8675 84.1604C31.3785 84.1827 30.8928 84.2078 30.407 84.2329C30.1308 83.8867 29.8482 83.5405 29.5624 83.1943Z" fill="#FCA100"/>
<path d="M16.5358 61.4156C15.5452 61.3681 14.5578 61.3234 13.5672 61.2843C12.9544 60.5221 12.3289 59.7627 11.6939 59.0117C11.4653 59.8521 11.2335 60.6925 10.9922 61.5328C10.0651 61.7562 9.13486 61.9851 8.21094 62.214C9.05231 62.7557 9.88416 63.3057 10.7128 63.8613C10.7414 64.7575 10.7605 65.6537 10.7732 66.5527C11.5383 66.0585 12.3067 65.5644 13.075 65.0702C14.0085 65.4136 14.9388 65.7654 15.8659 66.1227C15.542 65.2377 15.2055 64.3582 14.8594 63.4816C15.415 62.7976 15.977 62.1079 16.5358 61.4156Z" fill="#FCA100"/>
<path d="M10.2322 72.671C10.5465 72.2969 10.8608 71.92 11.1752 71.5458C11.8165 71.5319 12.4611 71.5179 13.1056 71.5096C12.6674 71.1606 12.2293 70.8116 11.7848 70.4682C11.9245 70.041 12.061 69.6111 12.1975 69.1839C11.607 69.3486 11.0196 69.5106 10.4322 69.6781C9.86706 69.4324 9.29874 69.1923 8.73042 68.9521C8.82249 69.3905 8.9114 69.8316 8.99713 70.2728C8.51453 70.5492 8.03509 70.8283 7.55566 71.1047C8.19066 71.208 8.82566 71.3113 9.46066 71.4202C9.72101 71.8362 9.97821 72.2522 10.2322 72.671Z" fill="#FFE552"/>
<path d="M14.63 82.8498C15.1603 83.3105 15.6841 83.7796 16.2017 84.257C16.1032 84.9159 16.0048 85.5748 15.9032 86.2336C16.5065 85.9349 17.1129 85.6418 17.7225 85.3542C18.3416 85.6948 18.9544 86.0438 19.5608 86.4012C19.4465 85.7199 19.329 85.0443 19.2084 84.3687C19.7037 83.922 20.2022 83.478 20.707 83.0341C20.0117 82.8917 19.31 82.7549 18.6083 82.6321C18.2845 82.0151 17.9511 81.4008 17.6114 80.7922C17.3161 81.3869 17.0208 81.9816 16.7287 82.5762C16.027 82.66 15.3285 82.7493 14.63 82.8498Z" fill="#5886E8"/>
<path d="M12.3467 81.7405C12.1086 81.1709 11.8641 80.6042 11.6133 80.0402C12.9785 79.5014 14.1565 78.6582 15.0232 77.5693C15.5662 77.8066 16.1027 78.0523 16.6393 78.3036C15.5916 79.775 14.1088 80.9448 12.3467 81.7405Z" fill="#FFE552"/>
<path d="M11.8936 99.2933C12.2365 98.2603 12.5667 97.2273 12.8873 96.1971C15.1067 96.6326 17.4308 96.4567 19.6501 95.6387C20.0374 96.4567 20.4121 97.2803 20.774 98.1067C17.926 99.3212 14.8749 99.7149 11.8936 99.2933Z" fill="#FFE552"/>
<path d="M7.702 70.8762C7.01302 70.96 6.32405 71.0493 5.63825 71.1387C4.77465 70.2062 4.90483 69.0838 6.0383 68.2686C6.44153 68.3411 6.84475 68.4165 7.2448 68.4919C6.56852 69.2206 6.74632 70.1475 7.702 70.8762Z" fill="#CC3366"/>
<path d="M4.86974 50.876C5.06024 51.1049 5.24756 51.3338 5.43806 51.5628C4.59986 51.9871 3.62513 52.1295 2.59961 51.9844C2.60913 51.7582 2.61549 51.5321 2.62501 51.3031C3.45051 51.3897 4.22204 51.2417 4.86974 50.876Z" fill="#5F8F00"/>
<path d="M45.8879 89.0052C46.1705 88.2123 46.4404 87.4194 46.7007 86.6237C47.5961 86.4004 48.485 86.1631 49.3709 85.9062C48.5835 85.4204 47.8024 84.929 47.0182 84.4321C46.996 83.5945 46.9642 82.7597 46.9261 81.9277C46.2181 82.4163 45.5006 82.8937 44.7735 83.3572C43.8813 83.0529 42.9891 82.7374 42.1001 82.4079C42.424 83.2092 42.7415 84.0105 43.059 84.8174C42.5065 85.4427 41.9477 86.0626 41.373 86.6712C42.3255 86.7494 43.2749 86.8136 44.2242 86.8582C44.7767 87.5758 45.3323 88.2905 45.8879 89.0052Z" fill="#CC3366"/>
<path d="M31.9689 87.543C32.1626 88.4503 32.3372 89.3661 32.4928 90.2846C30.0004 90.8765 27.7461 92.0491 25.9554 93.6321C25.1903 93.2217 24.4187 92.8225 23.6377 92.4344C25.7808 90.2539 28.6383 88.5341 31.9689 87.543Z" fill="#FFE552"/>
<path d="M28.0633 54.503C27.6092 55.335 27.133 56.1641 26.644 56.9878C24.2342 56.1697 21.6276 55.9436 19.1193 56.2898C18.7796 55.5611 18.424 54.838 18.0557 54.1177C21.2497 53.4755 24.7105 53.5705 28.0633 54.503Z" fill="#FFE552"/>
<path d="M70.6684 82.3418C70.7192 83.1375 70.7605 83.936 70.7923 84.7372C69.7604 85.7954 67.9633 86.2086 66.1695 85.7591C65.7281 85.2984 65.2773 84.8433 64.8232 84.3911C67.0045 84.7624 69.3127 84.0114 70.6684 82.3418Z" fill="#FCA100"/>
<path d="M36.8326 74.8449C36.1881 74.2558 35.5404 73.6723 34.8895 73.0943C36.0579 71.9748 36.8072 70.5593 37.0358 68.9651C37.7946 69.0516 38.5535 69.1466 39.3091 69.2499C39.1408 71.3606 38.2772 73.2786 36.8326 74.8449Z" fill="#FFE552"/>
<path d="M28.8574 66.4214C30.1687 65.6006 31.4958 64.8049 32.8389 64.0371C35.1757 66.2734 35.5059 69.8192 33.858 73.0215C33.0389 73.069 32.2166 73.1248 31.3974 73.1946C32.1912 70.5339 31.2672 67.8174 28.8574 66.4214Z" fill="#CC3366"/>
<path d="M55.2798 91.3281C55.6989 91.7748 56.1085 92.2244 56.5117 92.6766C55.3941 93.7599 53.6098 94.1954 51.9334 93.8129C51.8921 93.4947 51.8508 93.1764 51.8096 92.8609C53.1875 92.9586 54.5559 92.3751 55.2798 91.3281Z" fill="#CC3366"/>
<path d="M44.1954 78.7759C43.6779 78.4799 43.154 78.1896 42.627 77.9048C44.8876 76.2129 47.6244 74.9872 50.5137 74.4316C50.4756 74.9202 50.4374 75.4088 50.3993 75.8974C48.0879 76.4027 45.9417 77.4162 44.1954 78.7759Z" fill="#5F8F00"/>
<path d="M36.2677 97.7392C35.9566 97.178 35.6391 96.6196 35.3184 96.0612C38.0584 95.5559 40.9286 95.6704 43.7004 96.4744C43.475 96.9602 43.2432 97.4432 43.0051 97.9234C40.7445 97.3315 38.4363 97.2869 36.2677 97.7392Z" fill="#5F8F00"/>
<path d="M58.0292 82.5049C58.2959 82.6752 58.5595 82.8455 58.8198 83.0158C57.9562 83.7389 56.8799 84.2219 55.6924 84.4285C55.6543 84.194 55.6162 83.9567 55.5781 83.7222C56.5306 83.5211 57.3752 83.1024 58.0292 82.5049Z" fill="#5F8F00"/>
<path d="M50.2573 67.1934C49.9303 67.4474 49.6032 67.6987 49.2762 67.9528C48.9238 67.8578 48.5682 67.7657 48.2158 67.6736C48.311 68.0253 48.4031 68.3743 48.4952 68.7289C48.238 69.0528 47.9808 69.3794 47.7236 69.7033C48.1046 69.667 48.4888 69.6335 48.8698 69.6C49.0571 69.8959 49.2445 70.1947 49.4286 70.4934C49.5842 70.1193 49.7366 69.7424 49.8858 69.3682C50.2636 69.2286 50.6383 69.089 51.0161 68.9495C50.7272 68.7484 50.4351 68.5474 50.143 68.3464C50.1843 67.9611 50.2224 67.5759 50.2573 67.1934Z" fill="#FCA100"/>
</svg>
