<svg width="16" height="18" viewBox="0 0 16 18" fill="none" xmlns="http://www.w3.org/2000/svg">
<path d="M5.71466 0.0742722C5.47904 0.165707 5.23287 0.404848 5.1133 0.661572L5.01834 0.862028L5.00779 4.73751L5.00076 8.613L4.81437 8.63058C4.7159 8.64113 4.52951 8.65871 4.40291 8.66926C3.41821 8.75718 2.3667 9.27415 1.61411 10.0408C0.741947 10.9235 0.28125 12.0629 0.28125 13.329C0.284767 14.5669 0.720847 15.6712 1.55432 16.5433C2.24009 17.2607 3.02785 17.7039 3.98089 17.9184C4.38884 18.0098 5.29968 18.0274 5.74631 17.9535C7.33941 17.6863 8.7004 16.5961 9.31232 15.0979L9.44596 14.7744L12.0835 14.7638C14.0705 14.7533 14.7563 14.7392 14.8548 14.7076C15.1783 14.5985 15.4983 14.2715 15.5933 13.9515C15.6284 13.8354 15.639 12.6467 15.639 8.35275V2.90176L15.5335 2.69075C15.4421 2.50436 15.2803 2.34259 14.1795 1.32273C13.3003 0.510351 12.8783 0.144608 12.7552 0.0848217L12.5794 0.000419617L9.23847 0.00393677C5.98194 0.00393677 5.89402 0.00745201 5.71466 0.0742722ZM12.0695 1.73067C12.0695 2.73999 12.073 2.7646 12.1539 2.93692C12.2523 3.14793 12.386 3.27805 12.597 3.373C12.7447 3.43982 12.8256 3.44686 13.8384 3.44686H14.9181L14.911 8.58838C14.9005 13.4837 14.897 13.7369 14.8372 13.8284C14.693 14.0394 14.7704 14.0323 12.0765 14.0323H9.61476L9.62883 13.758C9.63938 13.6103 9.65345 13.4591 9.66048 13.4275C9.6851 13.2903 9.6007 12.5166 9.52333 12.2001C9.21385 10.9446 8.40499 9.87903 7.26556 9.23195C6.86816 9.00336 6.3934 8.83103 5.83775 8.70795L5.73928 8.68685V4.88522C5.73928 1.48801 5.74631 1.06952 5.79555 0.967531C5.85533 0.837412 5.96084 0.753008 6.09447 0.728392C6.14019 0.721357 7.5047 0.710808 9.12593 0.707291L12.0695 0.703773V1.73067ZM13.9052 2.0929L14.5523 2.69075L13.7294 2.7013C13.1491 2.70833 12.8889 2.69778 12.8572 2.66965C12.8185 2.638 12.808 2.46919 12.808 1.85728V1.08359L13.0331 1.29107C13.1562 1.40361 13.55 1.76232 13.9052 2.0929ZM5.62674 9.42889C6.11909 9.50274 6.72398 9.74891 7.18467 10.0619C7.30776 10.1428 7.5469 10.3468 7.71922 10.5121C8.71447 11.4827 9.12242 12.8577 8.81646 14.2187C8.47533 15.7169 7.19171 16.9442 5.66895 17.2185C5.26803 17.2889 4.59985 17.2818 4.19542 17.1974C2.46517 16.8458 1.17803 15.4074 1.03032 13.656C0.938886 12.6045 1.28705 11.5389 1.98337 10.7406C2.89773 9.68913 4.22355 9.21085 5.62674 9.42889Z" fill="#6311CB"/>
<path d="M7.54362 4.41311C7.40646 4.47289 7.34668 4.57839 7.34668 4.76127C7.34668 4.8738 7.36778 4.91952 7.45922 5.00041L7.56824 5.09888H10.3324H13.0966L13.1986 4.99689C13.3885 4.80698 13.3252 4.48344 13.0825 4.39904C13.0087 4.37091 12.1225 4.36035 10.3148 4.36035C8.13444 4.36387 7.63506 4.37091 7.54362 4.41311Z" fill="#6311CB"/>
<path d="M7.53283 6.65754C7.4836 6.68216 7.41678 6.75952 7.38161 6.83338C7.29721 7.00218 7.34996 7.18505 7.51173 7.28352C7.61724 7.34683 7.71219 7.35034 9.60773 7.35034C11.4294 7.35034 11.6053 7.34683 11.7178 7.28704C11.9323 7.18154 11.9675 6.87909 11.7881 6.69974C11.7178 6.6294 11.6756 6.6294 9.66751 6.62237C8.08145 6.61534 7.59965 6.62237 7.53283 6.65754Z" fill="#6311CB"/>
<path d="M12.6881 6.70425C12.6178 6.7781 12.5967 6.83085 12.5967 6.95394C12.5967 7.27397 12.9413 7.43574 13.1875 7.22825C13.3071 7.12626 13.3422 7.00669 13.293 6.83789C13.2508 6.68315 13.1453 6.61281 12.9448 6.61281C12.8147 6.61281 12.762 6.6304 12.6881 6.70425Z" fill="#6311CB"/>
<path d="M9.33696 8.92615C9.15057 9.07034 9.16112 9.38685 9.35454 9.52048C9.44246 9.58027 9.56906 9.58379 11.1024 9.59434C12.0132 9.60137 12.8361 9.59434 12.9381 9.58379C13.1913 9.55214 13.3004 9.4396 13.3004 9.21453C13.3004 9.08089 13.2828 9.02814 13.2089 8.95428L13.114 8.86285H11.2641C9.56555 8.86285 9.40729 8.86988 9.33696 8.92615Z" fill="#6311CB"/>
<path d="M10.3915 11.1025C10.279 11.1236 10.1348 11.31 10.1348 11.4331C10.1348 11.5773 10.2157 11.725 10.3282 11.7742C10.395 11.8059 10.7959 11.8164 11.756 11.8164H13.0959L13.1979 11.7144C13.3878 11.5245 13.3245 11.201 13.0818 11.1166C12.9763 11.0779 10.5708 11.0673 10.3915 11.1025Z" fill="#6311CB"/>
<path d="M4.5685 9.99102C3.29191 10.1282 2.16302 11.0074 1.75156 12.189C1.59331 12.6392 1.54407 12.9803 1.56517 13.4832C1.58627 14.0318 1.66364 14.3589 1.8852 14.8231C2.054 15.1818 2.13841 15.2627 2.33886 15.2627C2.51118 15.2627 2.59559 15.2169 2.6624 15.0868C2.73977 14.9391 2.72922 14.8793 2.57449 14.5523C2.30369 13.9861 2.22281 13.3601 2.34941 12.7904C2.41975 12.4633 2.66592 11.9604 2.88044 11.6931C3.61193 10.7928 4.885 10.4658 5.933 10.9124C6.73131 11.25 7.3573 12.0026 7.52962 12.8291C7.63512 13.3355 7.5472 14.0072 7.30806 14.5066C7.10409 14.9356 6.80165 15.2767 6.34447 15.5792C5.8908 15.8816 5.45472 16.0012 4.78654 16.0012C4.36452 16.0012 4.36101 16.0012 4.25902 16.1032C4.11483 16.2474 4.11483 16.4584 4.2555 16.599C4.38211 16.7221 4.61773 16.7573 5.13821 16.7292C5.62704 16.701 5.9963 16.6061 6.42535 16.388C7.32564 15.9379 7.91295 15.2275 8.21187 14.2252C8.27517 14.0177 8.28572 13.8841 8.28924 13.3636C8.28924 12.6497 8.24001 12.4176 7.97273 11.869C7.35378 10.5924 5.98575 9.83628 4.5685 9.99102Z" fill="#6311CB"/>
<path d="M3.85046 11.4465C3.57615 11.5661 3.59374 11.7841 3.91376 12.3468C4.45886 13.2963 4.65228 13.6093 4.72614 13.6586C4.79296 13.7043 4.93011 13.7148 5.52796 13.7148C6.15746 13.7148 6.25945 13.7043 6.32275 13.6515C6.50562 13.5038 6.52672 13.2788 6.3755 13.11L6.27352 12.9939L5.7038 12.9763L5.13408 12.9587L4.84571 12.4629C4.69097 12.1921 4.49755 11.8615 4.42018 11.7314C4.23379 11.4114 4.09312 11.341 3.85046 11.4465Z" fill="#6311CB"/>
<path d="M2.98549 15.597C2.83427 15.7517 2.83427 15.9697 2.98549 16.1245C3.05582 16.1948 3.11209 16.2124 3.24221 16.2124C3.38992 16.2124 3.42508 16.1983 3.50245 16.1034C3.63257 15.9486 3.62906 15.7341 3.49542 15.604C3.35826 15.4739 3.11561 15.4704 2.98549 15.597Z" fill="#6311CB"/>
</svg>
