<svg width="733" height="1021" viewBox="0 0 733 1021" fill="none" xmlns="http://www.w3.org/2000/svg">
<g opacity="0.04">
<path d="M69.5508 422.946C92.2637 389.46 114.399 356.345 143.758 328.142C158.826 313.668 187.424 289.275 204.163 277.386C251.667 243.647 305.4 218.864 357.58 193.531C430.931 157.921 504.936 123.936 580.583 93.4749C619.818 77.6761 659.367 62.6467 698.669 47.0224" stroke="#18181B" stroke-width="2" stroke-linecap="round"/>
<path d="M96.0864 461.644C131.839 432.825 164.956 400.744 201.497 372.9C236.006 346.604 273.588 325.035 311.526 304.158C356.147 279.603 401.132 257.782 448.888 239.974C572.392 193.918 699.104 155.036 824.974 116.036C859.623 105.3 894.67 96.8925 929.751 87.9317" stroke="#18181B" stroke-width="2" stroke-linecap="round"/>
<path d="M128.15 501.447C135.962 494.029 145.371 484.67 154.005 478.142C172.96 463.81 194.82 453.741 216.107 443.5C299.456 403.401 387.21 374.358 472.815 339.639C557.633 305.24 641.364 267.489 728.637 239.514C768.203 226.832 808.709 217.229 849.038 207.343" stroke="#18181B" stroke-width="2" stroke-linecap="round"/>
<path d="M167.954 529.089C191.071 514.123 213.537 497.547 237.17 483.503C275.537 460.704 317.241 446.545 360.039 434.552C422.47 417.057 485.087 407.001 549.72 402.362C646.492 395.416 743.798 395.9 840.758 393.601C856.788 393.221 872.809 393.093 888.842 393.093" stroke="#18181B" stroke-width="2" stroke-linecap="round"/>
<path d="M182.328 554.371C291.981 524.99 403.526 506.583 517.119 501.431C641.401 495.793 766.785 512.842 889.011 534.058C937.807 542.528 986.555 553.994 1035.89 558.941" stroke="#18181B" stroke-width="2" stroke-linecap="round"/>
<path d="M197.807 581.59C222.088 581.59 246.197 575.989 270.562 575.262C323.244 573.69 376.348 574.453 429 576.453C504.286 579.312 579.087 589.885 653.349 602.014C703.407 610.19 750.693 621.885 795.056 646.433C811.039 655.277 827.103 662.102 844.616 667.296" stroke="#18181B" stroke-width="2" stroke-linecap="round"/>
<path d="M221.026 610.907C254.02 613.26 286.722 625.312 317.855 635.58C375.973 654.748 433.894 675.808 489.082 702.388C516.894 715.783 543.563 731.29 570.259 746.736C588.94 757.545 623.128 779.859 641 792C686 822.569 753.48 888.734 759 897" stroke="#18181B" stroke-width="2" stroke-linecap="round"/>
<path d="M233.188 647.394C249.061 655.497 260.962 668.291 273.33 680.911C316.537 724.996 359.644 769.503 401.177 815.168C425.329 841.724 446.996 869.474 467.573 898.834C471.565 904.53 477.116 910.608 479.749 917.174" stroke="#18181B" stroke-width="2" stroke-linecap="round"/>
<path d="M230.977 683.88C246.169 701.646 259.195 720.93 271.698 740.67C294.233 776.251 316.984 812.269 329.618 852.73C339.929 885.751 347.07 919.022 347.07 953.661" stroke="#18181B" stroke-width="2" stroke-linecap="round"/>
<path d="M217.709 703.782C226.245 726.97 228.728 751.734 231.936 776.102C237.547 818.712 240.49 860.724 241.718 903.629C242.407 927.701 244.144 952.252 242.353 976.33C241.972 981.449 241.36 986.06 238.288 990.147" stroke="#18181B" stroke-width="2" stroke-linecap="round"/>
<path d="M191.861 729.212C193.384 754.205 194.051 778.909 192.502 803.968C189.159 858.022 183.332 912.636 159.485 962.033C151.072 979.459 141.161 995.895 129.097 1011.07C126.937 1013.78 123.747 1016.67 122.622 1020" stroke="#18181B" stroke-width="2" stroke-linecap="round"/>
<path d="M160.215 750.22C156.793 770.199 153.032 790.361 146.947 809.728C137.131 840.969 120.951 870.658 102.973 897.916C77.7146 936.212 38.4607 964.645 1 990.147" stroke="#18181B" stroke-width="2" stroke-linecap="round"/>
<path d="M48.5432 379.825C65.7648 357.172 81.8195 333.669 98.9578 310.957C142.075 253.817 188.556 202.358 243.868 156.845C271.328 134.249 292.097 117.7 321.517 97.8785C353.596 76.2654 387.638 58.8647 421.966 41.2607C444.917 29.4907 467.328 17.3788 488.594 2.79614" stroke="#18181B" stroke-width="2" stroke-linecap="round"/>
<path d="M34.1697 344.444C48.4268 322.098 61.2941 298.917 74.7212 276.069C100.534 232.145 127.511 189.774 159.177 149.774C195.433 103.976 233.007 59.0465 271.785 15.3678C280.833 5.17659 290.101 -7.20887 300.633 -16" stroke="#18181B" stroke-width="2" stroke-linecap="round"/>
<path d="M12.0566 296.901C41.6512 237.53 67.8406 177.201 92.1397 115.499C106.94 77.9183 123.573 41.5111 146.947 8.32443" stroke="#18181B" stroke-width="2" stroke-linecap="round"/>
</g>
</svg>
