<svg width="120" height="50" viewBox="0 0 120 50" fill="none" xmlns="http://www.w3.org/2000/svg">
<path fill-rule="evenodd" clip-rule="evenodd" d="M22.2316 49.2919C31.8534 49.2919 40.1124 43.1176 43.6637 34.309C40.3433 32.5149 38.0698 28.8609 38.0698 24.645C38.0698 20.4293 40.343 16.7755 43.663 14.9813C40.1115 6.17348 31.8528 0 22.2316 0C12.6105 0 4.35197 6.17324 0.800273 14.9808C4.09084 16.7586 6.35331 20.3631 6.39391 24.5309C6.4524 15.328 13.5205 7.88672 22.231 7.88672C30.9778 7.88672 38.0685 15.3901 38.0685 24.6459C38.0685 33.9018 30.9778 41.4052 22.231 41.4052C13.5201 41.4052 6.4518 33.9633 6.39391 24.7599C6.35303 28.9276 4.09035 32.5319 0.799652 34.3095C4.351 43.1179 12.6099 49.2919 22.2316 49.2919Z" fill="url(#paint0_linear_3_5374)"/>
<path d="M51.1601 16.4487C49.1635 16.7634 47.6257 17.4377 46.3173 18.5615C44.9239 19.7573 44.0063 21.4925 43.7174 23.4975C43.6579 23.8931 43.6409 24.6573 43.6664 25.3406C43.7344 27.2017 44.1422 28.4244 45.1703 29.863C46.5806 31.8409 48.8916 33.0367 51.8144 33.3064C55.06 33.5941 58.0761 32.5512 59.8859 30.5193C61.2708 28.9729 61.806 27.5343 61.8825 25.2057C61.9165 24.1898 61.8995 23.7312 61.7805 23.1378C61.2538 20.3867 59.4356 18.1749 56.8357 17.132C55.5527 16.6105 54.7286 16.4667 52.9869 16.4397C52.1202 16.4217 51.3046 16.4307 51.1601 16.4487ZM54.9665 19.1729C57.1331 19.7753 58.6794 21.4386 59.0277 23.5334C59.1722 24.4235 59.0872 26.1857 58.8578 26.851C58.365 28.3165 57.4729 29.3864 56.1985 30.0428C55.1194 30.5912 54.3972 30.7351 52.732 30.7261C51.4575 30.7171 51.2621 30.6991 50.5654 30.4743C48.4668 29.8 47.1414 28.4154 46.6571 26.4195C46.5042 25.7991 46.4872 24.2257 46.6231 23.4435C46.6656 23.1558 46.878 22.5444 47.0819 22.0949C47.3878 21.4296 47.5662 21.1778 48.093 20.6474C49.0021 19.7213 49.8942 19.2988 51.5425 18.9661C51.6614 18.9481 52.3326 18.9391 53.0293 18.9571C53.9809 18.9751 54.4737 19.029 54.9665 19.1729Z" fill="url(#paint1_linear_3_5374)"/>
<path d="M92.0104 16.9431C91.5346 17.1948 91.3052 17.5904 91.3052 18.1838C91.3052 18.7233 91.4496 19.0649 91.815 19.3886C92.5542 20.0539 93.9221 19.9011 94.4234 19.1009C94.6867 18.6963 94.6867 18.031 94.4318 17.5545C94.041 16.8262 92.826 16.5115 92.0104 16.9431Z" fill="url(#paint2_linear_3_5374)"/>
<path d="M111.993 17.3304C111.637 17.4922 111.288 17.9507 111.22 18.3284C111.127 18.8768 111.254 19.2814 111.654 19.695C112.478 20.5221 113.897 20.3962 114.347 19.4432C114.67 18.7959 114.432 17.9328 113.812 17.5012C113.514 17.2944 113.344 17.2495 112.852 17.2225C112.469 17.2135 112.155 17.2495 111.993 17.3304Z" fill="url(#paint3_linear_3_5374)"/>
<path d="M117.371 17.3833C116.964 17.5092 116.641 17.8238 116.496 18.2374C116.088 19.3613 117.082 20.4671 118.382 20.3233C119.682 20.1794 120.133 18.6869 119.147 17.7699C118.688 17.3383 117.983 17.1855 117.371 17.3833Z" fill="url(#paint4_linear_3_5374)"/>
<path d="M97.3381 18.7046C97.3381 19.289 97.3806 21.222 97.4231 23.0022C97.4656 24.7824 97.5251 27.7134 97.5505 29.5205C97.576 31.3277 97.6185 32.973 97.644 33.1798L97.6865 33.5664H98.9694H100.252L100.193 30.3117L100.125 27.0661L104.806 27.129L109.488 27.2009L109.437 25.9962C109.403 25.2949 109.335 24.7734 109.284 24.7374C109.233 24.7015 108.366 24.6655 107.364 24.6655C106.361 24.6655 104.305 24.6385 102.81 24.6026L100.082 24.5486L100.014 22.3908C99.9805 21.213 99.989 20.2061 100.031 20.1701C100.065 20.1342 102.207 20.1521 104.772 20.2061C107.347 20.269 109.471 20.287 109.505 20.26C109.539 20.233 109.547 19.6936 109.513 19.0732L109.462 17.9404L108.179 17.8865C106.744 17.8325 99.0204 17.6527 98.0008 17.6527H97.3381V18.7046Z" fill="url(#paint5_linear_3_5374)"/>
<path d="M82.3072 19.2461C82.1117 19.8845 81.8654 20.6217 81.7719 20.9004L81.6105 21.3949L80.3785 21.7006L79.155 21.9973V22.5997V23.2021L80.353 23.256C81.0157 23.283 81.568 23.3279 81.585 23.3459C81.602 23.3639 81.636 24.8114 81.6699 26.5646C81.7124 29.2529 81.7464 29.8553 81.8823 30.4487C82.1627 31.7164 82.783 32.5615 83.8195 33.1189C84.5587 33.5055 85.3064 33.6674 86.4534 33.6674C87.4899 33.6764 88.0846 33.5864 89.0192 33.3077C89.9963 33.011 89.9453 33.092 89.9453 31.8692C89.9453 31.2848 89.9198 30.7903 89.8944 30.7543C89.8604 30.7274 89.7584 30.7543 89.6565 30.8263C89.1722 31.1589 88.4585 31.3387 87.3879 31.3837C86.037 31.4466 85.5273 31.3118 84.9835 30.7543C84.3803 30.143 84.3378 29.8912 84.2783 26.3489L84.2273 23.31L86.9122 23.3729L89.6055 23.4358V22.4379C89.6055 21.8894 89.5715 21.4219 89.529 21.3949C89.4865 21.359 88.2801 21.314 86.8527 21.278L84.2528 21.2241L84.2358 19.9564C84.2273 19.2551 84.2188 18.5628 84.2103 18.419L84.2018 18.1492L83.4457 18.1223L82.681 18.1043L82.3072 19.2461Z" fill="url(#paint6_linear_3_5374)"/>
<path d="M71.636 20.7651C71.5426 20.7831 71.2537 20.846 70.9988 20.9C69.6904 21.1787 68.1865 22.3025 67.3624 23.6062C67.2519 23.795 67.1245 23.9478 67.099 23.9478C67.065 23.9478 67.048 23.2735 67.048 22.4374V20.9359L65.7141 20.909L64.3717 20.882V23.1117C64.3717 24.3434 64.3462 27.9218 64.3122 31.0686L64.2612 36.8047H65.6291H67.0055V33.4331C67.0055 31.581 67.031 30.0616 67.0735 30.0616C67.1075 30.0706 67.2434 30.2594 67.3794 30.4842C68.0166 31.5451 69.342 32.7049 70.3786 33.1185C71.9844 33.7568 73.93 33.6849 75.3659 32.9207C76.6403 32.2464 77.6259 31.0236 78.1102 29.4772C78.3226 28.8119 78.3396 28.641 78.3481 27.2744C78.3481 26.0697 78.3141 25.6831 78.1867 25.2066C77.7279 23.5343 76.6658 22.1407 75.3319 21.4484C74.9326 21.2416 74.3803 21.0079 74.1 20.9269C73.5987 20.7921 71.9759 20.6752 71.636 20.7651ZM72.5281 22.9678C74.3633 23.2735 75.5443 24.7031 75.7143 26.8429C75.8162 28.0746 75.4594 29.2434 74.7202 30.1065C73.5562 31.4552 71.5681 31.7159 69.8178 30.7359C68.7558 30.1425 67.9656 29.2344 67.2859 27.8409L66.9206 27.0856L67.3624 26.1776C68.212 24.4154 69.5969 23.2376 71.1093 22.9678C71.7295 22.86 71.8994 22.86 72.5281 22.9678Z" fill="url(#paint7_linear_3_5374)"/>
<path d="M91.7553 24.0003C91.7893 25.4837 91.8403 28.2169 91.8658 30.078L91.9252 33.4766H93.2422H94.5506L94.4996 32.056C94.4741 31.2828 94.4317 29.0261 94.4062 27.0481C94.3807 25.0702 94.3382 22.9753 94.3127 22.3999L94.2617 21.339L93.9049 21.4109C93.4376 21.4918 92.6304 21.4918 92.1207 21.3929L91.7043 21.312L91.7553 24.0003Z" fill="url(#paint8_linear_3_5374)"/>
<path d="M111.722 22.9302C111.748 23.6135 111.841 26.3017 111.918 28.9001L112.071 33.6382L112.496 33.6921C112.733 33.7191 113.303 33.7461 113.761 33.7461H114.586V33.0718C114.586 32.4514 114.271 22.9212 114.22 22.103C114.203 21.7074 114.246 21.7164 113.379 21.8692C113.107 21.9232 112.776 21.9232 112.614 21.8782C112.462 21.8423 112.181 21.7793 112.003 21.7434L111.671 21.6804L111.722 22.9302Z" fill="url(#paint9_linear_3_5374)"/>
<path d="M116.904 22.4806C116.938 22.8672 117.04 25.5285 117.142 28.3965C117.244 31.2646 117.346 33.6382 117.38 33.6741C117.406 33.7011 117.984 33.7461 118.655 33.764L119.87 33.791L119.819 32.3075C119.759 30.6352 119.649 27.938 119.504 24.3507C119.453 23.011 119.394 21.9052 119.377 21.8872C119.36 21.8602 119.063 21.8872 118.723 21.9501C118.238 22.0221 118 22.0221 117.559 21.9232C117.253 21.8512 116.972 21.7973 116.93 21.7883C116.887 21.7883 116.879 22.094 116.904 22.4806Z" fill="url(#paint10_linear_3_5374)"/>
<defs>
<linearGradient id="paint0_linear_3_5374" x1="22.2317" y1="5.4287e-08" x2="22.2266" y2="62.4363" gradientUnits="userSpaceOnUse">
<stop stop-color="#5E0FCD"/>
<stop offset="0.553414" stop-color="#C942AB"/>
<stop offset="1" stop-color="#3725EA"/>
</linearGradient>
<linearGradient id="paint1_linear_3_5374" x1="43.6549" y1="24.8917" x2="61.898" y2="24.8917" gradientUnits="userSpaceOnUse">
<stop stop-color="#6311CB"/>
<stop offset="1" stop-color="#C33FAD"/>
</linearGradient>
<linearGradient id="paint2_linear_3_5374" x1="91.3052" y1="18.2768" x2="94.622" y2="18.2768" gradientUnits="userSpaceOnUse">
<stop stop-color="#6311CB"/>
<stop offset="1" stop-color="#C33FAD"/>
</linearGradient>
<linearGradient id="paint3_linear_3_5374" x1="111.191" y1="18.7326" x2="114.491" y2="18.7326" gradientUnits="userSpaceOnUse">
<stop stop-color="#6311CB"/>
<stop offset="1" stop-color="#C33FAD"/>
</linearGradient>
<linearGradient id="paint4_linear_3_5374" x1="116.404" y1="18.8169" x2="119.681" y2="18.8169" gradientUnits="userSpaceOnUse">
<stop stop-color="#6311CB"/>
<stop offset="1" stop-color="#C33FAD"/>
</linearGradient>
<linearGradient id="paint5_linear_3_5374" x1="97.3381" y1="25.6095" x2="109.535" y2="25.6095" gradientUnits="userSpaceOnUse">
<stop stop-color="#6311CB"/>
<stop offset="1" stop-color="#C33FAD"/>
</linearGradient>
<linearGradient id="paint6_linear_3_5374" x1="79.155" y1="25.8861" x2="89.9458" y2="25.8861" gradientUnits="userSpaceOnUse">
<stop stop-color="#6311CB"/>
<stop offset="1" stop-color="#C33FAD"/>
</linearGradient>
<linearGradient id="paint7_linear_3_5374" x1="64.2612" y1="28.7691" x2="78.3481" y2="28.7691" gradientUnits="userSpaceOnUse">
<stop stop-color="#6311CB"/>
<stop offset="1" stop-color="#C33FAD"/>
</linearGradient>
<linearGradient id="paint8_linear_3_5374" x1="91.7043" y1="27.3943" x2="94.5506" y2="27.3943" gradientUnits="userSpaceOnUse">
<stop stop-color="#6311CB"/>
<stop offset="1" stop-color="#C33FAD"/>
</linearGradient>
<linearGradient id="paint9_linear_3_5374" x1="111.671" y1="27.7133" x2="114.586" y2="27.7133" gradientUnits="userSpaceOnUse">
<stop stop-color="#6311CB"/>
<stop offset="1" stop-color="#C33FAD"/>
</linearGradient>
<linearGradient id="paint10_linear_3_5374" x1="116.89" y1="27.7897" x2="119.87" y2="27.7897" gradientUnits="userSpaceOnUse">
<stop stop-color="#6311CB"/>
<stop offset="1" stop-color="#C33FAD"/>
</linearGradient>
</defs>
</svg>
