<svg width="27" height="28" viewBox="0 0 27 28" fill="none" xmlns="http://www.w3.org/2000/svg">
<g clip-path="url(#clip0_3_5322)">
<path d="M18.7215 22.1497C17.9682 22.2401 17.4815 21.9853 17.1516 21.3635L16.8684 20.8649L12.7771 13.756C12.5104 13.2903 12.1227 13.0492 11.5783 13.0657C11.3529 13.0712 11.1247 13.0657 10.8965 13.0547C10.5748 13.0383 10.3053 13.1342 10.1321 13.4109C9.96164 13.6821 9.96439 13.9642 10.1266 14.2491L15.8373 24.1632C15.9198 24.3056 16.0105 24.3495 16.1672 24.3467L19.2082 24.3522L21.6195 24.3769H22.9447L11.4766 4.4556C11.4326 4.51039 11.4079 4.53504 11.3914 4.56518L8.40543 9.68794C8.0315 10.3399 8.22671 11.2631 8.80961 11.7562C9.54922 12.3836 10.5473 12.326 11.2649 11.6138C11.7791 11.1042 12.4197 11.1755 12.7716 11.7836L18.5593 21.8347L18.7215 22.1497ZM7.39362 11.4439L7.24515 11.674L6.05737 13.7012C5.94189 13.8903 5.94739 14.0272 6.05737 14.2163L10.4483 21.8401L10.6133 22.1442C10.4126 22.1442 10.2668 22.1607 10.1266 22.1415C9.65645 22.073 9.30726 21.821 9.07081 21.4073L5.51847 15.2271L5.34525 14.9532L5.21602 15.1504L3.98975 17.2461C3.89627 17.4022 3.90176 17.5145 3.9925 17.668L6.3928 21.8292C6.44229 21.9141 6.48079 22.0018 6.53853 22.1113H3.70105L4.01449 21.5662C4.2482 21.1964 4.34718 20.7937 4.2757 20.3691C4.15747 19.6349 3.62957 19.1062 3.32437 18.4487C3.27763 18.4925 3.26113 18.5007 3.25288 18.5172L0.057976 23.9988C-0.0602521 24.2015 0.00573574 24.2947 0.25319 24.3002L2.637 24.3276L11.7873 24.3413L12.0485 24.344H14.8172L7.39362 11.4439ZM27.0002 24.3769L15.3094 4.06934L14.7018 5.10759C14.0969 6.11296 14.1216 7.10464 14.7073 8.1155L20.9898 19.024L23.9538 24.1577C24.006 24.2481 24.1215 24.3659 24.2095 24.3686L27.0002 24.3769Z" fill="#E8155D"/>
<path d="M13.5005 0.93277L12.1038 3.33253C12.068 3.39553 12.057 3.50785 12.09 3.56812L12.8984 4.96798C13.0661 5.24192 13.4785 5.26932 13.66 5.01181C14.0202 4.49679 14.3089 3.94616 14.3556 3.29691C14.4244 2.3929 13.9652 1.68612 13.5005 0.93277Z" fill="white"/>
<path d="M18.7215 22.1497L18.5538 21.8319L12.7661 11.7809C12.4169 11.1727 11.7736 11.1015 11.2594 11.611C10.5445 12.3233 9.54372 12.3808 8.80411 11.7535C8.22122 11.2604 8.026 10.3345 8.39993 9.6852L11.3859 4.56244C11.4024 4.5323 11.4271 4.51039 11.4711 4.45286L22.942 24.3769H21.6167L19.2054 24.3522L16.1645 24.3467C16.005 24.3467 15.9143 24.3029 15.8346 24.1632L10.1294 14.2491C9.96439 13.9642 9.96439 13.6821 10.1349 13.4109C10.3081 13.1342 10.5775 13.0383 10.8992 13.0547L11.5811 13.0657C12.1255 13.0492 12.5132 13.2903 12.7799 13.756L16.8711 20.8649L17.1543 21.3635C17.4815 21.9853 17.9682 22.2401 18.7215 22.1497ZM7.39362 11.4439L14.82 24.344H12.0513C11.9633 24.344 11.8753 24.3413 11.7901 24.3413L2.637 24.3248L0.25319 24.2974C0.00573574 24.2947 -0.0602521 24.1988 0.057976 23.9961L3.25563 18.5144C3.26388 18.5007 3.28038 18.4898 3.32712 18.446C3.62957 19.1034 4.15747 19.6321 4.27845 20.3663C4.34718 20.7909 4.25095 21.1964 4.01724 21.5634L3.7038 22.1086H6.54128L6.39555 21.8264L3.99525 17.6652C3.90726 17.5118 3.90176 17.3968 3.9925 17.2433L5.21877 15.1477C5.25176 15.0901 5.29301 15.0353 5.348 14.9504L5.52121 15.2244L9.07356 21.4046C9.31001 21.8155 9.6592 22.0675 10.1294 22.1387C10.2696 22.1607 10.4181 22.1415 10.616 22.1415L10.4511 21.8374L6.05737 14.2135C5.94739 14.0245 5.94189 13.8875 6.05737 13.6985L7.24515 11.6713L7.39362 11.4439ZM27.0002 24.3769C26.0407 24.3769 25.1251 24.3823 24.2095 24.3686C24.1215 24.3659 24.006 24.2508 23.9538 24.1577L20.9898 19.024L14.7073 8.1155C14.1216 7.10464 14.0941 6.11022 14.7018 5.10759C14.8997 4.78159 15.0894 4.45012 15.3094 4.06934L27.0002 24.3769Z" fill="#E8155D"/>
<path d="M13.5006 0.933163C13.9653 1.68651 14.4245 2.39055 14.3557 3.29731C14.3062 3.9493 14.0203 4.49718 13.6601 5.0122C13.4787 5.26971 13.0662 5.23957 12.8985 4.96837L12.0902 3.56851C12.0572 3.50824 12.0682 3.39593 12.1039 3.33292L13.5006 0.933163ZM15.67 0.744141C16.1594 0.744141 16.5581 1.14136 16.5581 1.62898C16.5574 1.86391 16.4632 2.08897 16.2962 2.25483C16.1292 2.42069 15.903 2.51383 15.6672 2.51382C15.1778 2.51382 14.7792 2.11386 14.7792 1.62898C14.7806 1.39428 14.875 1.16964 15.0418 1.00393C15.2087 0.838226 15.4344 0.744858 15.67 0.744141ZM14.8781 1.63172C14.8781 1.84097 14.9616 2.04164 15.1101 2.1896C15.2586 2.33756 15.46 2.42068 15.67 2.42068C16.1044 2.42068 16.4591 2.06729 16.4618 1.63172C16.4618 1.42248 16.3784 1.2218 16.2299 1.07384C16.0814 0.925883 15.88 0.842761 15.67 0.842761C15.46 0.842761 15.2586 0.925883 15.1101 1.07384C14.9616 1.2218 14.8781 1.42248 14.8781 1.63172Z" fill="white"/>
<path d="M15.813 1.65637C15.8625 1.67555 15.89 1.70842 15.9092 1.74952L16.0632 2.06729L16.0907 2.12756C16.0329 2.12756 15.9807 2.12482 15.9284 2.12756C15.8845 2.1303 15.8652 2.11386 15.8487 2.07551L15.7332 1.80704C15.7002 1.73582 15.637 1.70568 15.56 1.72212V2.12482H15.3758V1.13862C15.3813 1.13862 15.3868 1.13588 15.3923 1.13588H15.6947C15.736 1.13588 15.78 1.14136 15.8185 1.14958C15.9697 1.18245 16.0329 1.28929 16.0192 1.43174C16.0109 1.5468 15.9477 1.61528 15.8377 1.64542C15.8322 1.6509 15.824 1.6509 15.813 1.65637ZM15.56 1.57419L15.714 1.56049C15.736 1.55775 15.758 1.5468 15.7745 1.5331C15.824 1.50023 15.8322 1.45092 15.824 1.39613C15.8157 1.34682 15.7855 1.31942 15.7387 1.30299C15.681 1.28655 15.6205 1.29203 15.56 1.29203V1.57419ZM1.43588 27.2045L1.28191 26.8209H0.424067L0.270095 27.2045H0.0253906L0.721012 25.4841H0.987712L1.68058 27.2045H1.43588ZM0.852987 25.7032L0.487305 26.6319H1.21867L0.852987 25.7032ZM1.90604 27.2045V25.4841H2.59891C2.94535 25.4841 3.14056 25.7224 3.14056 26.0018C3.14056 26.284 2.9426 26.5196 2.59891 26.5196H2.1205V27.2045H1.90604ZM2.91785 26.0018C2.91785 25.8073 2.77763 25.6731 2.57417 25.6731H2.1205V26.3278H2.57417C2.77763 26.3278 2.91785 26.1936 2.91785 26.0018ZM3.42651 27.2045V25.4841H4.11938C4.46582 25.4841 4.66103 25.7224 4.66103 26.0018C4.66103 26.284 4.46307 26.5196 4.11938 26.5196H3.64097V27.2045H3.42651ZM4.43832 26.0018C4.43832 25.8073 4.2981 25.6731 4.09464 25.6731H3.64097V26.3278H4.09464C4.2981 26.3278 4.43832 26.1936 4.43832 26.0018ZM4.8425 26.9607L4.97172 26.7963C5.03868 26.874 5.1218 26.9364 5.21533 26.9789C5.30885 27.0215 5.41055 27.0433 5.51337 27.0428C5.82132 27.0428 5.9203 26.8785 5.9203 26.7442C5.9203 26.3004 4.89749 26.547 4.89749 25.9334C4.89749 25.6485 5.15044 25.454 5.49413 25.454C5.75533 25.454 5.95879 25.5444 6.10451 25.695L5.97529 25.8512C5.84606 25.706 5.6646 25.6457 5.47488 25.6457C5.27142 25.6457 5.1202 25.7553 5.1202 25.9197C5.1202 26.3059 6.14301 26.084 6.14301 26.7278C6.14301 26.9744 5.97254 27.2346 5.50513 27.2346C5.20818 27.2346 4.98547 27.1195 4.8425 26.9607ZM7.13557 27.2538V25.4293H7.27855V27.2538H7.13557ZM9.6706 27.2045L9.29117 25.8156L8.91175 27.2045H8.67804L8.18588 25.4841H8.42509L8.80726 26.9168L9.20319 25.4841H9.38191L9.77783 26.9168L10.1573 25.4841H10.3992L9.90431 27.2045H9.6706Z" fill="white"/>
<path d="M10.6387 27.2048V25.4844H11.7687V25.6761H10.8531V26.2295H11.7522V26.4213H10.8531V27.0157H11.7687V27.2075H10.6387V27.2048Z" fill="white"/>
<path d="M12.1121 27.2045V25.4842H12.882C13.1817 25.4842 13.3659 25.665 13.3659 25.9225C13.3659 26.1389 13.2202 26.2841 13.0634 26.317C13.2477 26.3443 13.3989 26.5334 13.3989 26.7388C13.3989 27.0155 13.2147 27.2018 12.8985 27.2018H12.1121V27.2045ZM13.1404 25.9526C13.1404 25.7992 13.036 25.6732 12.8435 25.6732H12.3266V26.2266H12.8435C13.0387 26.2293 13.1404 26.1088 13.1404 25.9526ZM13.1762 26.7169C13.1762 26.5608 13.0662 26.4211 12.8572 26.4211H12.3266V27.0155H12.8572C13.0552 27.0128 13.1762 26.8977 13.1762 26.7169Z" fill="white"/>
<path d="M13.6349 26.9606L13.7642 26.7962C13.8769 26.925 14.0611 27.0428 14.3058 27.0428C14.6138 27.0428 14.7127 26.8784 14.7127 26.7442C14.7127 26.3004 13.6899 26.547 13.6899 25.9333C13.6899 25.6484 13.9429 25.4539 14.2866 25.4539C14.5478 25.4539 14.7512 25.5443 14.897 25.695L14.7677 25.8511C14.6385 25.7059 14.457 25.6457 14.2673 25.6457C14.0639 25.6457 13.9126 25.7553 13.9126 25.9196C13.9126 26.3059 14.9355 26.084 14.9355 26.7278C14.9355 26.9743 14.765 27.2346 14.2976 27.2346C14.0006 27.2346 13.7779 27.1195 13.6349 26.9606Z" fill="white"/>
<path d="M15.258 27.2045V25.4842H15.4725V27.2045H15.258ZM16.3028 27.2045V25.6759H15.7557V25.4842H17.0644V25.6759H16.5145V27.2045H16.3028Z" fill="white"/>
<path d="M17.3527 27.2045V25.4842H18.4828V25.6759H17.5672V26.2293H18.4663V26.4211H17.5672V27.0155H18.4828V27.2073H17.3527V27.2045Z" fill="white"/>
<path d="M18.7217 26.9608L18.8509 26.7964C18.9636 26.9252 19.1479 27.043 19.3926 27.043C19.7005 27.043 19.7995 26.8786 19.7995 26.7444C19.7995 26.3006 18.7767 26.5471 18.7767 25.9335C18.7767 25.6486 19.0296 25.4541 19.3733 25.4541C19.6345 25.4541 19.838 25.5445 19.9837 25.6952L19.8545 25.8513C19.7252 25.7061 19.5438 25.6459 19.3541 25.6459C19.1506 25.6459 18.9994 25.7554 18.9994 25.9198C18.9994 26.3061 20.0222 26.0842 20.0222 26.7279C20.0222 26.9745 19.8517 27.2347 19.3843 27.2347C19.0874 27.2347 18.8647 27.1197 18.7217 26.9608Z" fill="white"/>
<path d="M21.0156 27.2542V25.4297H21.1586V27.2542H21.0156ZM22.1292 26.961L22.2584 26.7967C22.3711 26.9254 22.5553 27.0432 22.8 27.0432C23.108 27.0432 23.207 26.8789 23.207 26.7446C23.207 26.3008 22.1842 26.5474 22.1842 25.9337C22.1842 25.6488 22.4371 25.4543 22.7808 25.4543C23.042 25.4543 23.2455 25.5447 23.3912 25.6954L23.262 25.8516C23.1327 25.7064 22.9513 25.6461 22.7616 25.6461C22.5581 25.6461 22.4069 25.7557 22.4069 25.92C22.4069 26.3063 23.4297 26.0844 23.4297 26.7282C23.4297 26.9747 23.2592 27.235 22.7918 27.235C22.4921 27.235 22.2694 27.1199 22.1292 26.961Z" fill="white"/>
<path d="M23.7482 27.2045V25.4842H24.8783V25.6759H23.9627V26.2293H24.8618V26.4211H23.9627V27.0155H24.8783V27.2073H23.7482V27.2045Z" fill="white"/>
<path d="M25.1523 26.3444C25.1523 25.8349 25.4988 25.4541 26.0102 25.4541C26.5216 25.4541 26.8708 25.8349 26.8708 26.3444C26.8708 26.8512 26.5216 27.2347 26.0102 27.2347C25.4988 27.2347 25.1523 26.854 25.1523 26.3444ZM26.6453 26.3444C26.6453 25.9417 26.3951 25.6459 26.0074 25.6459C25.6198 25.6459 25.3723 25.9417 25.3723 26.3444C25.3723 26.7444 25.617 27.043 26.0074 27.043C26.3951 27.043 26.6453 26.7444 26.6453 26.3444Z" fill="white"/>
</g>
<defs>
<clipPath id="clip0_3_5322">
<rect width="27" height="27" fill="white" transform="translate(0 0.5)"/>
</clipPath>
</defs>
</svg>
