<svg width="25" height="25" viewBox="0 0 25 25" fill="none" xmlns="http://www.w3.org/2000/svg">
<path d="M20.5938 7.16797H4.59375C3.48918 7.16797 2.59375 8.0634 2.59375 9.16797V19.168C2.59375 20.2725 3.48918 21.168 4.59375 21.168H20.5938C21.6983 21.168 22.5938 20.2725 22.5938 19.168V9.16797C22.5938 8.0634 21.6983 7.16797 20.5938 7.16797Z" stroke="#D0D5DD" stroke-linecap="round" stroke-linejoin="round"/>
<path d="M16.5938 21.168V5.16797C16.5938 4.63754 16.383 4.12883 16.008 3.75376C15.6329 3.37868 15.1242 3.16797 14.5938 3.16797H10.5938C10.0633 3.16797 9.55461 3.37868 9.17954 3.75376C8.80446 4.12883 8.59375 4.63754 8.59375 5.16797V21.168" stroke="#D0D5DD" stroke-linecap="round" stroke-linejoin="round"/>
</svg>
