<svg width="17" height="13" viewBox="0 0 17 13" fill="none" xmlns="http://www.w3.org/2000/svg">
<path d="M7.91133 0.46C6.75133 1.33 6.86133 1.08 6.86133 2.9V4.5H6.51133H6.16133V3.65V2.8H4.83133H3.51133L2.93133 3.21L2.36133 3.62V8.31V13H9.27133C13.8113 13 16.1513 12.97 16.1113 12.9C16.0713 12.84 14.8613 12.81 12.7813 12.83L9.51133 12.85L9.48133 8.68L9.46133 4.51L9.08133 4.48L8.71133 4.45V2.35V0.25L11.1913 0.22L13.6613 0.200001V0.85C13.6613 1.23 13.7013 1.5 13.7613 1.5C13.8313 1.5 13.8613 1.23 13.8413 0.77L13.8113 0.0500002L11.1613 0.0300007L8.51133 0L7.91133 0.46ZM8.49133 2.32C8.47133 3.44 8.46133 4.39 8.46133 4.43C8.46133 4.47 8.16133 4.5 7.79133 4.48L7.11133 4.45L7.08133 2.88L7.06133 1.32L7.73133 0.820001C8.11133 0.54 8.43133 0.31 8.46133 0.31C8.49133 0.3 8.50133 1.21 8.49133 2.32ZM5.94133 3.72C5.92133 4.29 5.88133 4.44 5.74133 4.46C5.65133 4.47 5.33133 4.67 5.02133 4.89L4.46133 5.31V8.9C4.46133 11.23 4.50133 12.5 4.56133 12.5C4.62133 12.5 4.66133 11.25 4.66133 8.96V5.42L5.05133 5.11C5.26133 4.94 5.49133 4.8 5.55133 4.8C5.64133 4.8 5.66133 5.87 5.64133 8.82L5.61133 12.85L4.69133 12.86L3.76133 12.87V7.93V3H4.86133H5.97133L5.94133 3.72ZM3.56133 7.95V12.8H3.06133H2.56133V8.26V3.72L2.98133 3.41C3.21133 3.24 3.44133 3.1 3.48133 3.1C3.52133 3.1 3.56133 5.28 3.56133 7.95ZM9.26133 8.72V12.85L7.53133 12.84L5.81133 12.83L5.78133 8.84C5.77133 6.65 5.78133 4.79 5.81133 4.73C5.84133 4.63 6.29133 4.6 7.56133 4.6H9.26133V8.72Z" fill="#6311CB"/>
<path d="M6.26172 8.69844C6.26172 10.7684 6.30172 11.8984 6.36172 11.8984C6.42172 11.8984 6.46172 10.7984 6.46172 8.79844V5.69844H7.61172H8.76172V6.19844V6.69844H7.71172C7.08172 6.69844 6.66172 6.73844 6.66172 6.79844C6.66172 6.85844 7.08172 6.89844 7.71172 6.89844H8.76172V7.44844V7.99844H7.71172C7.08172 7.99844 6.66172 8.03844 6.66172 8.09844C6.66172 8.15844 7.08172 8.19844 7.71172 8.19844H8.76172V8.69844V9.19844H7.71172C7.08172 9.19844 6.66172 9.23844 6.66172 9.29844C6.66172 9.35844 7.08172 9.39844 7.71172 9.39844H8.76172V9.89844V10.3984H7.71172C7.08172 10.3984 6.66172 10.4384 6.66172 10.4984C6.66172 10.5584 7.08172 10.5984 7.71172 10.5984H8.76172V11.1484V11.6984H7.71172C7.08172 11.6984 6.66172 11.7384 6.66172 11.7984C6.66172 11.8584 7.11172 11.8984 7.81172 11.8984H8.96172V8.69844V5.49844H7.61172H6.26172V8.69844Z" fill="#6311CB"/>
<path d="M9.16211 1.44687V2.29688H10.0621H10.9621V1.44687V0.596875H10.0621H9.16211V1.44687ZM10.7621 1.44687V2.09687H10.0621H9.36211V1.44687V0.796875H10.0621H10.7621V1.44687Z" fill="#6311CB"/>
<path d="M11.4015 0.73C11.3715 0.81 11.3615 1.18 11.3815 1.56L11.4115 2.25H12.3115H13.2115V1.45V0.65L12.3315 0.62C11.6615 0.6 11.4415 0.62 11.4015 0.73ZM13.0615 1.45V2.1H12.3115H11.5615V1.45V0.8H12.3115H13.0615V1.45Z" fill="#6311CB"/>
<path d="M13.6619 7.3C13.6619 10.7 13.6919 12.5 13.7619 12.5C13.8319 12.5 13.8619 10.7 13.8619 7.3C13.8619 3.9 13.8319 2.1 13.7619 2.1C13.6919 2.1 13.6619 3.9 13.6619 7.3Z" fill="#6311CB"/>
<path d="M9.16211 3.49688V4.29688H10.0621H10.9621V3.49688V2.69688H10.0621H9.16211V3.49688ZM10.7621 3.51688V4.14688H10.0621H9.36211V3.51688V2.89688H10.0621H10.7621V3.51688Z" fill="#6311CB"/>
<path d="M11.4323 2.76688C11.3923 2.79688 11.3623 3.15688 11.3623 3.56688V4.29688H12.3123H13.2623V3.49688V2.69688H12.3823C11.8923 2.69688 11.4623 2.72688 11.4323 2.76688ZM13.0423 3.50688L13.0123 4.11688H12.3123H11.6123L11.5823 3.50688L11.5523 2.89688H12.3123H13.0723L13.0423 3.50688Z" fill="#6311CB"/>
<path d="M9.71211 4.89844C9.74211 4.94844 9.99211 4.99844 10.2721 4.99844H10.7621V5.59844V6.19844H10.2121C9.91211 6.19844 9.66211 6.23844 9.66211 6.29844C9.66211 6.35844 9.94211 6.39844 10.3121 6.39844H10.9621V5.59844V4.79844H10.3021C9.89211 4.79844 9.67211 4.83844 9.71211 4.89844Z" fill="#6311CB"/>
<path d="M11.3623 5.59844V6.39844H12.3123H13.2623V5.59844V4.79844H12.3123H11.3623V5.59844ZM13.0623 5.59844V6.19844H12.3123H11.5623V5.59844V4.99844H12.3123H13.0623V5.59844Z" fill="#6311CB"/>
<path d="M9.71211 6.79844C9.67211 6.85844 9.86211 6.89844 10.2021 6.89844H10.7621V7.54844V8.19844H10.2121C9.91211 8.19844 9.66211 8.23844 9.66211 8.29844C9.66211 8.35844 9.94211 8.39844 10.3121 8.39844H10.9621V7.54844V6.69844H10.3721C10.0421 6.69844 9.74211 6.73844 9.71211 6.79844Z" fill="#6311CB"/>
<path d="M11.4015 6.83156C11.3715 6.91156 11.3615 7.28156 11.3815 7.66156L11.4115 8.35156H12.3115H13.2115V7.55156V6.75156L12.3315 6.72156C11.6615 6.70156 11.4415 6.72156 11.4015 6.83156ZM13.0615 7.55156V8.20156H12.3115H11.5615V7.55156V6.90156H12.3115H13.0615V7.55156Z" fill="#6311CB"/>
<path d="M9.66211 8.89912C9.66211 8.94912 9.91211 8.99912 10.2121 8.99912H10.7621V9.64912V10.2991H10.1921C9.79211 10.2991 9.65211 10.3291 9.73211 10.4091C9.78211 10.4591 10.0721 10.4991 10.3721 10.4791L10.9121 10.4491L10.9421 9.61912L10.9721 8.79912H10.3121C9.94211 8.79912 9.66211 8.83912 9.66211 8.89912Z" fill="#6311CB"/>
<path d="M11.4015 8.93313C11.3715 9.01313 11.3615 9.38313 11.3815 9.76313L11.4115 10.4531H12.3115H13.2115L13.2415 9.62313L13.2715 8.80313H12.3615C11.6915 8.80313 11.4415 8.84312 11.4015 8.93313ZM13.0615 9.65313V10.3131L12.3415 10.2831L11.6115 10.2531L11.5815 9.62313L11.5515 9.00313H12.3115H13.0615V9.65313Z" fill="#6311CB"/>
<path d="M9.7123 10.9C9.6723 10.96 9.8623 11 10.2023 11H10.7623V11.65V12.3H10.2023C9.8623 12.3 9.6723 12.34 9.7123 12.4C9.7423 12.45 10.0423 12.5 10.3723 12.5H10.9623V11.65V10.8H10.3723C10.0423 10.8 9.7423 10.84 9.7123 10.9Z" fill="#6311CB"/>
<path d="M11.4015 10.9331C11.3715 11.0131 11.3615 11.3831 11.3815 11.7631L11.4115 12.4531H12.3115H13.2115V11.6531V10.8531L12.3315 10.8231C11.6615 10.8031 11.4415 10.8231 11.4015 10.9331ZM13.0615 11.6531V12.3031H12.3115H11.5615V11.6531V11.0031H12.3115H13.0615V11.6531Z" fill="#6311CB"/>
<path d="M0.00184203 12.92C-0.028158 12.96 0.311842 13 0.761842 13C1.30184 13 1.55184 12.97 1.51184 12.89C1.43184 12.77 0.081842 12.79 0.00184203 12.92Z" fill="#6311CB"/>
</svg>
