<svg width="26" height="25" viewBox="0 0 26 25" fill="none" xmlns="http://www.w3.org/2000/svg">
<path d="M6.93889 0.130932C6.70854 0.219149 6.44879 0.459297 6.30666 0.723951C6.20374 0.910189 6.19884 0.998405 6.18414 2.16974L6.16944 3.42439L5.37548 3.68415C4.93929 3.83118 4.4835 3.99781 4.36097 4.05662C4.09142 4.19385 3.82186 4.4683 3.66993 4.76726L3.55231 4.98781L3.53761 11.5894L3.5278 18.1911L3.29256 18.2205C2.0232 18.392 0.969489 19.3036 0.660727 20.4896C0.597014 20.7494 0.587212 21.0287 0.597014 22.1609L0.611717 23.5233L0.753846 23.7047C0.832261 23.8076 0.984192 23.935 1.09691 23.984C1.29295 24.0722 1.68013 24.0771 13.1337 24.0771C24.5873 24.0771 24.9745 24.0722 25.1706 23.984C25.2833 23.935 25.4352 23.8076 25.5136 23.7047L25.6558 23.5233L25.6705 21.8766C25.6852 20.3426 25.6754 20.2152 25.5822 19.9064C25.2735 18.8772 24.308 18.2009 23.1465 18.196H22.8377V15.0201V11.8443L22.7152 11.5943C22.6416 11.4571 22.5142 11.2856 22.4211 11.2121C22.0584 10.9376 22.127 10.9425 18.5444 10.9425H15.2412V6.39929V1.85608L15.6724 2.27266C15.9077 2.49811 16.5595 3.13033 17.1182 3.66944C17.8877 4.41439 18.1572 4.70355 18.2063 4.84568C18.2602 4.99761 18.2749 5.51711 18.2798 7.39419C18.2798 9.62414 18.2847 9.76137 18.3729 9.86919C18.5101 10.0358 18.7944 10.026 18.9512 9.84469L19.0688 9.70746L19.0541 7.22266L19.0394 4.74276L18.8826 4.42419C18.7405 4.13994 18.5346 3.91939 16.883 2.32657C15.202 0.704348 15.0304 0.552416 14.8785 0.552416C14.7609 0.552416 9.33547 2.33147 8.64443 2.59613C8.59542 2.61573 8.58072 2.41479 8.56602 1.73845L8.55131 0.861179L8.40428 0.621031C8.18864 0.277962 7.88478 0.101526 7.4633 0.0819225C7.24765 0.0672188 7.06141 0.0868225 6.93889 0.130932ZM7.56132 0.905287C7.77696 1.01801 7.78676 1.07682 7.79166 2.00311V2.88529L7.43879 2.99801C7.24275 3.06172 7.05161 3.12543 7.01731 3.14014C6.96339 3.15974 6.95359 2.9637 6.9683 2.12073L6.983 1.08172L7.12023 0.9641C7.27216 0.836674 7.39958 0.81707 7.56132 0.905287ZM14.457 2.454V3.42439L14.1286 3.53222C13.9424 3.59103 12.1143 4.20365 10.0559 4.89469C6.5125 6.08563 6.31156 6.15914 6.24295 6.29637C6.13513 6.50221 6.22335 6.74236 6.43409 6.83058C6.58112 6.89429 6.76245 6.83548 10.4872 5.58573C12.6289 4.86528 14.3982 4.27717 14.4227 4.27717C14.4423 4.27717 14.457 4.67905 14.457 5.17405V6.07583L14.2757 6.12974C14.1727 6.15914 12.3398 6.77177 10.2029 7.49221C6.51741 8.73216 6.31156 8.80568 6.24295 8.9429C6.13513 9.14875 6.22335 9.38889 6.43409 9.47711C6.58112 9.54082 6.76245 9.48201 10.4872 8.23226C12.6289 7.51182 14.3982 6.9237 14.4227 6.9237C14.4423 6.9237 14.457 7.32558 14.457 7.82058V8.71746L13.8836 8.9037C13.565 9.00662 11.7321 9.62414 9.81087 10.2711C6.5027 11.3836 6.31156 11.4522 6.24295 11.5894C6.13513 11.7953 6.22335 12.0354 6.43409 12.1236C6.58112 12.1874 6.76736 12.1285 10.4872 10.8788C12.6289 10.1583 14.3982 9.57023 14.4227 9.57023C14.4423 9.57023 14.457 9.97211 14.457 10.4671V11.3591L13.5895 11.6482C13.1092 11.8051 11.2763 12.4226 9.51681 13.0156C6.4929 14.035 6.31156 14.0987 6.24295 14.236C6.13513 14.4418 6.22335 14.682 6.43409 14.7702C6.58112 14.8339 6.76736 14.7751 10.4872 13.5253C12.6289 12.8049 14.3982 12.2168 14.4227 12.2168C14.4423 12.2168 14.457 12.6186 14.457 13.1136V14.0056L11.9085 14.8535C9.9628 15.5053 9.34037 15.7308 9.28646 15.8092C9.11493 16.0542 9.28156 16.4316 9.56092 16.4316C9.62953 16.4316 10.747 16.0787 12.0359 15.6475C13.3249 15.2162 14.3933 14.8633 14.4178 14.8633C14.4374 14.8633 14.457 16.76 14.457 19.0781V23.293H12.8887H11.3204V21.264C11.3204 19.2448 11.3204 19.2399 11.2076 19.0781C11.1488 18.9899 11.041 18.8723 10.9724 18.8184C10.6979 18.6175 10.5362 18.642 8.62483 19.1762C7.63973 19.4506 6.76245 19.7104 6.67424 19.7496C6.45859 19.8525 6.29196 20.0828 6.22825 20.3524C6.19884 20.4749 6.17434 21.1758 6.17434 21.9305V23.293H5.24315H4.31196V14.2997C4.31196 4.48791 4.29236 5.11033 4.59622 4.86038C4.69914 4.76726 5.5127 4.47321 7.40448 3.84098C8.86988 3.35088 11.041 2.62063 12.2271 2.21875C13.4131 1.81687 14.3982 1.4885 14.4227 1.4885C14.4423 1.4836 14.457 1.91979 14.457 2.454ZM21.8232 11.7855C22.0584 11.908 22.0486 11.8149 22.0535 15.2064V18.4165L21.8428 18.5292C21.4066 18.7596 20.9361 19.3232 20.7548 19.8378C20.7058 19.975 20.6567 20.2887 20.642 20.5386L20.6224 20.9895H17.9318H15.2412V16.3581V11.7267H18.4807C20.8479 11.7267 21.7448 11.7414 21.8232 11.7855ZM3.5278 19.9848V20.9895H2.44469H1.36157L1.39587 20.8033C1.41058 20.7053 1.5037 20.4651 1.59191 20.2789C1.92028 19.5927 2.69954 19.0536 3.46899 18.985C3.5131 18.9801 3.5278 19.2105 3.5278 19.9848ZM23.7101 19.0683C24.0825 19.186 24.4158 19.4163 24.602 19.6908C24.7981 19.9799 24.8765 20.2054 24.9206 20.6367L24.9549 20.9895H23.1857H21.4164V20.671C21.4164 19.5192 22.5681 18.7155 23.7101 19.0683ZM10.5362 21.3816V23.293H9.85008H9.16394L9.17374 21.5678L9.18844 19.8378L9.82557 19.6565C10.1784 19.5584 10.4774 19.4751 10.5019 19.4751C10.5215 19.4702 10.5362 20.3279 10.5362 21.3816ZM8.37978 21.6757V23.293H7.66914H6.95849V21.9305C6.95849 21.1856 6.9781 20.5435 7.0026 20.5043C7.03201 20.4602 8.0073 20.1417 8.36998 20.0632C8.37488 20.0583 8.37978 20.7837 8.37978 21.6757ZM3.5278 22.5333V23.293H2.47409H1.42038L1.37137 23.1656C1.34196 23.097 1.32236 22.7539 1.32236 22.4059V21.7737H2.42508H3.5278V22.5333ZM20.6322 22.5333V23.293H17.9367H15.2412V22.5333V21.7737H17.9367H20.6322V22.5333ZM24.9451 22.4059C24.9451 22.7539 24.9255 23.097 24.8961 23.1656L24.8471 23.293H23.1317H21.4164V22.5333V21.7737H23.1808H24.9451V22.4059Z" fill="#D0D5DD"/>
<path d="M7.04179 16.4904C6.36545 16.7158 6.31154 16.7452 6.23802 16.8971C6.17431 17.0344 6.16941 17.0736 6.22822 17.1961C6.26743 17.2696 6.35565 17.3676 6.42916 17.4117C6.55659 17.4804 6.6056 17.4706 7.35545 17.2206C7.79164 17.0785 8.18862 16.9167 8.23763 16.8677C8.36505 16.7403 8.36015 16.461 8.23273 16.3335C8.0857 16.1865 7.85045 16.2159 7.04179 16.4904Z" fill="#D0D5DD"/>
<path d="M16.4419 12.717C16.2312 12.8836 16.1724 13.0846 16.1724 13.6727C16.1724 14.3147 16.2606 14.5549 16.5301 14.6823C16.6821 14.7558 16.9271 14.7656 18.618 14.7656C20.7401 14.7656 20.794 14.7607 20.9753 14.4618C21.0586 14.3245 21.0733 14.2167 21.0733 13.6972C21.0733 13.016 21.0194 12.8346 20.7842 12.6925C20.6568 12.619 20.4362 12.6092 18.6082 12.6092C16.5987 12.6092 16.5742 12.6092 16.4419 12.717ZM20.2892 13.6629V13.9815H18.6229H16.9565V13.6629V13.3443H18.6229H20.2892V13.6629Z" fill="#D0D5DD"/>
<path d="M16.4223 15.5301C16.2115 15.7065 16.1576 15.932 16.1821 16.5838C16.2017 17.2111 16.2556 17.3483 16.5399 17.4807C16.7702 17.5934 20.4411 17.5983 20.7057 17.4905C21.0047 17.363 21.0733 17.1817 21.0733 16.4907C21.0733 15.8094 21.0194 15.6281 20.7841 15.486C20.6567 15.4124 20.4362 15.4026 18.6081 15.4026H16.5742L16.4223 15.5301ZM20.2891 16.4809V16.7749H18.6228H16.9565V16.4809V16.1868H18.6228H20.2891V16.4809Z" fill="#D0D5DD"/>
<path d="M16.5889 18.2451C16.4566 18.299 16.29 18.4853 16.2263 18.6519C16.1478 18.8577 16.1576 19.784 16.241 19.9801C16.2753 20.0683 16.3684 20.1859 16.4419 20.2447C16.5693 20.3476 16.6281 20.3525 17.4221 20.3525C18.2063 20.3525 18.2749 20.3427 18.3974 20.2496C18.6277 20.0683 18.6718 19.9164 18.6718 19.289C18.6718 18.6225 18.6081 18.4363 18.3239 18.2843C18.1866 18.2108 18.0445 18.1961 17.4221 18.201C17.0202 18.201 16.6428 18.2206 16.5889 18.2451ZM17.8877 19.2988V19.6174H17.4221H16.9565V19.2988V18.9803H17.4221H17.8877V19.2988Z" fill="#D0D5DD"/>
</svg>
