<svg width="13" height="14" viewBox="0 0 13 14" fill="none" xmlns="http://www.w3.org/2000/svg">
<path d="M3.15441 1.81794L0 3.61714V6.99063V10.3641L3.21176 12.1821L6.44265 14L7.32206 13.5502C7.81912 13.3066 9.29118 12.4819 10.6103 11.7135L13 10.3454V6.99063V3.61714L9.84559 1.7992C8.10588 0.80589 6.61471 0 6.5 0C6.40441 0 4.89412 0.80589 3.15441 1.81794ZM7.93382 1.48059C7.93382 1.61178 2.63824 4.64792 2.40882 4.64792C2.35147 4.64792 1.96912 4.44177 1.56765 4.21687L0.841177 3.78581L2.90588 2.58634C4.03382 1.94913 5.31471 1.21821 5.73529 0.974565L6.48088 0.543507L7.20735 0.937081C7.60882 1.16198 7.93382 1.40562 7.93382 1.48059ZM9.27206 2.1178C9.59706 2.28648 9.84559 2.4739 9.84559 2.54886C9.84559 2.62383 9.21471 3.0174 8.45 3.44846C7.70441 3.86078 6.46176 4.57296 5.71618 5.00402L4.33971 5.77242L3.74706 5.45382C3.42206 5.2664 3.15441 5.07898 3.15441 5.02276C3.15441 4.92905 8.50735 1.83668 8.66029 1.83668C8.69853 1.83668 8.96618 1.96787 9.27206 2.1178ZM11.4897 3.35475C11.8529 3.56091 12.1397 3.76707 12.1397 3.80455C12.1397 3.84203 10.8971 4.55422 9.36765 5.39759L6.57647 6.95315L5.81176 6.6158C5.39118 6.42838 5.08529 6.18474 5.12353 6.09103C5.2 5.84739 10.2279 2.97992 10.5912 2.96118C10.725 2.96118 11.1456 3.12985 11.4897 3.35475ZM2.16029 6.40964C2.21765 7.57162 2.23676 7.64659 2.67647 7.64659C2.94412 7.64659 3.38382 7.89023 3.72794 8.24632C4.41618 8.97724 4.64559 8.78983 4.58824 7.53414C4.56912 7.08434 4.60735 6.7095 4.70294 6.7095C4.77941 6.7095 5.16177 6.87818 5.525 7.10308L6.21324 7.49665V10.4016V13.3066L5.79265 13.0442C5.54412 12.8942 4.26324 12.1633 2.925 11.3949L0.477941 10.0268V7.14056V4.23561L1.3 4.70415C2.10294 5.17269 2.10294 5.17269 2.16029 6.40964ZM12.5221 7.1593V10.0268L10.0941 11.3949C8.73676 12.1633 7.45588 12.8942 7.20735 13.0442L6.76765 13.3253L6.825 10.3641L6.88235 7.42169L9.65441 5.84739C11.1838 4.98527 12.4456 4.27309 12.4838 4.27309C12.5029 4.27309 12.5221 5.56627 12.5221 7.1593ZM4.07206 6.99063C4.12941 7.59036 4.09118 7.70281 3.9 7.49665C3.76618 7.3842 3.46029 7.27175 3.21176 7.27175C2.81029 7.27175 2.77206 7.17805 2.77206 6.40964V5.54752L3.40294 5.90361C3.9 6.20348 4.03382 6.3909 4.07206 6.99063Z" fill="#6311CB"/>
</svg>
