<svg width="12" height="13" viewBox="0 0 12 13" fill="none" xmlns="http://www.w3.org/2000/svg">
<path d="M6.2027 0.0166492C6.12964 0.0270567 5.99976 0.0400667 5.91317 0.0400667C5.68858 0.0426683 5.15551 0.136335 4.85786 0.224799C4.15161 0.435552 3.62125 0.79461 3.31007 1.27075C3.07465 1.63502 2.96912 2.0253 2.96912 2.52746C2.96912 2.68877 2.96101 2.84228 2.95289 2.8657C2.94206 2.88912 2.89065 2.93075 2.83383 2.95677C2.69041 3.02702 2.55241 3.19354 2.49559 3.36266C2.34135 3.8362 2.64712 4.73905 3.10171 5.15275C3.14771 5.19698 3.26407 5.38432 3.35878 5.56905C3.66184 6.16488 3.99196 6.58118 4.45467 6.94544L4.54397 7.01829L4.41409 7.22904C4.20573 7.55948 4.1922 7.56729 3.34525 7.83008C1.5864 8.37647 0.414733 8.87863 0.265907 9.14662C0.249671 9.17264 0.190141 9.9506 0.130611 10.8691C0.0710805 11.7901 0.0142561 12.6175 0.00613834 12.7086C-0.00739127 12.8569 -0.00197943 12.8751 0.0575509 12.935L0.125199 13H5.99976H11.8743L11.942 12.935C12.0042 12.8751 12.0069 12.8569 11.9934 12.6826C11.9853 12.5785 11.9284 11.7485 11.8716 10.8404C11.7769 9.36518 11.7607 9.18305 11.7147 9.12321C11.4955 8.8396 10.5944 8.44932 8.87886 7.90293C8.35662 7.73641 7.89661 7.57769 7.85602 7.55168C7.77214 7.49964 7.64496 7.33572 7.53672 7.14058L7.46637 7.01049L7.65308 6.85437C8.04002 6.53695 8.38097 6.08942 8.65156 5.55604C8.74897 5.3609 8.8518 5.19958 8.92757 5.12153C9.27934 4.75987 9.51204 4.24209 9.5364 3.76075C9.55534 3.4225 9.50663 3.25858 9.33345 3.09206C9.2631 3.02442 9.18463 2.95677 9.15757 2.94376C9.11427 2.92034 9.11427 2.89692 9.14133 2.68357C9.17651 2.40777 9.16027 1.99928 9.10345 1.85097C9.01145 1.60379 8.66509 1.10944 8.36744 0.799813C8.05085 0.471977 7.56649 0.180568 7.15789 0.0686874C6.93601 0.0062418 6.42729 -0.0197763 6.2027 0.0166492ZM7.08213 0.438153C7.69366 0.617682 8.32144 1.17969 8.6705 1.85357C8.7598 2.0305 8.76792 2.06693 8.77062 2.27508C8.77333 2.39997 8.7625 2.5925 8.75168 2.70699L8.72733 2.91253L8.54874 2.89692C8.31332 2.87871 7.9372 2.74602 7.74237 2.61592C7.59355 2.51445 7.57731 2.50924 7.28778 2.48843C6.39753 2.42338 5.73187 2.13718 5.1528 1.57517C4.80644 1.23693 4.76044 1.23433 4.58727 1.56216C4.49526 1.73389 4.41679 1.82755 4.17596 2.05912C3.90808 2.3141 3.52113 2.61332 3.39395 2.66015C3.35336 2.67316 3.34795 2.65495 3.34795 2.51445C3.34795 2.13718 3.4589 1.7469 3.65102 1.45549C3.71055 1.36702 3.84855 1.21091 3.95949 1.11204C4.34914 0.760785 5.04457 0.500598 5.76164 0.430347C5.9294 0.414737 6.15399 0.393921 6.25682 0.380912C6.51659 0.352291 6.87106 0.375709 7.08213 0.438153ZM5.07704 2.0253C5.59928 2.47802 6.33529 2.77203 7.13624 2.85269C7.40142 2.87871 7.46637 2.89432 7.56919 2.95677C7.90202 3.15971 8.29167 3.26899 8.68403 3.26899C8.83286 3.26899 8.97627 3.282 9.00874 3.29761C9.08451 3.33664 9.16569 3.52137 9.16569 3.65927C9.16569 4.05996 8.93298 4.58034 8.61909 4.87955C8.51626 4.97842 8.44591 5.07469 8.40803 5.16836C8.16991 5.75118 7.72884 6.3288 7.23636 6.70086C7.13624 6.77632 7.04695 6.86478 7.03883 6.896C7.03071 6.92723 7.04965 7.01309 7.07942 7.08334L7.13083 7.21603L6.67353 8.09287L6.21352 8.9671L6.51118 10.2967C6.67624 11.0252 6.82236 11.647 6.83859 11.673C6.87377 11.7381 6.98742 11.7667 7.07942 11.7355C7.14436 11.7121 7.21472 11.5508 7.85061 9.95581C8.23485 8.99051 8.55415 8.19694 8.55685 8.19174C8.56768 8.17873 9.76099 8.58462 10.1939 8.74854C10.6323 8.91766 11.2032 9.18305 11.3223 9.27151C11.3818 9.31835 11.3845 9.35217 11.4765 10.7884C11.5307 11.5976 11.5794 12.3417 11.5875 12.4432L11.6037 12.6279H5.99976H0.395791L0.412027 12.4692C0.420144 12.3808 0.468851 11.6392 0.52297 10.817C0.614971 9.36778 0.620383 9.32355 0.677207 9.27672C0.77462 9.19866 1.33204 8.93067 1.71087 8.78496C2.43335 8.50396 3.53466 8.1449 3.56713 8.18133C3.57525 8.19174 3.79172 8.79537 4.04879 9.5265C4.84162 11.7823 4.81186 11.7069 4.89303 11.7355C4.98774 11.7667 5.09868 11.7381 5.13386 11.673C5.1501 11.6444 5.29622 11.0226 5.46128 10.2941L5.75893 8.9671L5.30704 8.11368L4.85245 7.26027L4.91468 7.11196C4.95256 7.02089 4.97151 6.94024 4.96068 6.90121C4.95256 6.86478 4.86598 6.77892 4.76586 6.70347C4.27608 6.3314 3.8702 5.80842 3.61043 5.20999C3.55631 5.0799 3.49137 4.98883 3.39937 4.90297C3.08007 4.60635 2.83383 4.05736 2.83383 3.64626C2.83383 3.58902 2.86089 3.48755 2.89606 3.4251C2.94748 3.32363 2.97454 3.30282 3.10171 3.26119C3.2776 3.20395 3.87831 2.81627 4.2355 2.52746C4.37891 2.41037 4.58185 2.21523 4.68738 2.09034C4.79021 1.96545 4.8795 1.86398 4.88221 1.86398C4.88492 1.86398 4.97421 1.93683 5.07704 2.0253ZM7.77214 7.93675C7.8479 7.97058 7.96426 8.01481 8.03732 8.03042C8.10767 8.04863 8.1645 8.07725 8.1645 8.09547C8.1645 8.12409 7.15248 10.6843 7.07942 10.8404C7.05236 10.8977 7.01989 10.7754 6.83318 9.96101L6.61941 9.01653L6.99012 8.31403L7.36084 7.61152L7.49884 7.74161C7.5746 7.81186 7.69908 7.90033 7.77214 7.93675ZM4.98233 8.32703L5.35034 9.01653L5.14739 9.91938C5.03645 10.4163 4.94445 10.8274 4.94445 10.8352C4.94445 10.843 4.93903 10.843 4.93092 10.8352C4.91468 10.8222 3.94326 8.08506 3.94326 8.05644C3.94326 8.04603 3.99467 8.02522 4.05961 8.007C4.21926 7.96017 4.37079 7.87171 4.49797 7.74682C4.55479 7.68697 4.60621 7.64014 4.60891 7.64014C4.61162 7.64014 4.78209 7.94976 4.98233 8.32703Z" fill="#6311CB"/>
</svg>
