<svg width="25" height="24" viewBox="0 0 25 24" fill="none" xmlns="http://www.w3.org/2000/svg">
<path d="M10.347 0.127825C9.98944 0.510893 10.5257 0.740734 11.726 0.740734H12.9774V1.8644V2.96253L11.7516 3.09022C10.1427 3.24345 8.02302 4.23943 6.5929 5.54186C5.69907 6.33354 5.5203 6.63999 5.75015 6.86983C5.97999 7.12521 6.31198 6.94645 7.28242 6.15477C9.27438 4.46927 10.6534 3.98405 13.4881 3.95851C15.7099 3.95851 16.0675 4.03512 17.5997 4.77572C23.8821 7.81474 25.1079 15.9102 20.0003 20.6348C17.8807 22.5756 14.8927 23.4439 11.9303 22.9843C10.0661 22.6778 8.71254 22.0138 7.02704 20.6092C6.13321 19.8686 5.69907 19.6643 5.49477 19.8686C4.93293 20.4305 7.58887 22.5501 9.98944 23.4439C12.1091 24.2101 15.3779 24.1845 17.3699 23.3673C19.8471 22.3458 21.6347 20.7369 22.8861 18.3619C24.7759 14.8121 24.546 10.9048 22.2732 7.53382L21.4049 6.25692L21.9667 5.66955C22.6052 4.98003 23.0138 4.92895 23.4479 5.46525C23.831 5.92493 24.4694 5.97601 24.4694 5.51632C24.4694 5.33756 23.831 4.57142 23.0648 3.80528C21.9667 2.73269 21.5836 2.50285 21.3538 2.73269C21.124 2.96253 21.175 3.16684 21.6092 3.62652L22.171 4.21389L21.456 4.90341L20.7154 5.61847L20.0514 5.08218C19.0043 4.23943 16.5271 3.19237 15.2758 3.03915C14.1266 2.91146 14.1266 2.91146 14.05 1.83887L13.9734 0.766273L15.2758 0.689659C15.9653 0.638582 16.5527 0.485355 16.5527 0.357666C16.5527 0.0767498 10.6279 -0.153091 10.347 0.127825Z" fill="#3725EA"/>
<path d="M13.0796 5.95088C12.8243 6.64041 13.1052 7.76408 13.5648 7.84069C13.9224 7.9173 13.999 7.73854 13.999 6.7681C13.999 5.87427 13.8968 5.59335 13.6159 5.59335C13.3861 5.59335 13.1562 5.74658 13.0796 5.95088Z" fill="#3725EA"/>
<path d="M16.6803 9.6788C15.3524 11.0068 14.5607 11.6197 14.4075 11.4665C13.9478 11.0068 13.0284 11.1855 12.2368 11.8751C10.8322 13.0498 11.3174 15.1184 13.1561 15.6547C14.4841 16.0633 16.0164 14.3778 15.6333 12.8966C15.4801 12.2581 15.6844 11.9772 17.4465 10.1896C19.1575 8.47852 19.6427 7.63577 18.9021 7.63577C18.8 7.63577 17.804 8.55514 16.6803 9.6788ZM14.3564 12.6412C14.8927 13.152 14.8672 13.7393 14.3309 14.3267C13.7435 14.9652 13.054 14.9141 12.5687 14.1479C12.1857 13.5606 12.1857 13.4584 12.5687 12.871C13.054 12.1304 13.769 12.0538 14.3564 12.6412Z" fill="#3725EA"/>
<path d="M4.42218 8.91257C4.06465 9.47441 4.65203 9.67871 6.61844 9.67871C8.43164 9.67871 8.66148 9.62764 8.58486 9.21903C8.50825 8.8615 8.17626 8.78488 6.54183 8.70827C5.39262 8.65719 4.52434 8.73381 4.42218 8.91257Z" fill="#3725EA"/>
<path d="M2.81327 13.4329C2.88988 13.8415 3.19634 13.8926 5.57136 13.8926C7.79316 13.8926 8.25284 13.816 8.25284 13.5095C8.25284 13.2031 7.74208 13.1009 5.49475 13.0498C2.94096 12.9988 2.73666 13.0243 2.81327 13.4329Z" fill="#3725EA"/>
<path d="M19.2341 13.2544C18.9532 13.6885 19.3618 14.0205 20.2046 14.0205C21.175 14.0205 21.7879 13.6885 21.5581 13.2799C21.3282 12.9224 19.4384 12.8968 19.2341 13.2544Z" fill="#3725EA"/>
<path d="M0.00414038 17.6467C0.106292 17.902 1.2555 18.0042 4.37112 18.0553C8.04858 18.1063 8.63595 18.0553 8.63595 17.7233C8.63595 17.3913 8.02304 17.3402 4.26897 17.3402C0.897967 17.3402 -0.0724733 17.4168 0.00414038 17.6467Z" fill="#3725EA"/>
<path d="M17.3188 17.6727C17.3188 17.8515 17.6764 18.3367 18.085 18.7453C18.6724 19.3071 18.9277 19.4093 19.1576 19.1794C19.3874 18.9496 19.2853 18.6942 18.7234 18.1068C17.9573 17.3152 17.3188 17.1109 17.3188 17.6727Z" fill="#3725EA"/>
<path d="M13.2327 19.2307C12.7986 19.7925 13.0029 21.2737 13.5647 21.3758C13.9222 21.4525 13.9988 21.2737 13.9988 20.3033C13.9988 19.0519 13.7179 18.6688 13.2327 19.2307Z" fill="#3725EA"/>
</svg>
