<svg version="1.2" xmlns="http://www.w3.org/2000/svg" viewBox="0 0 1539 1029" width="1539" height="1029">
	<title>Tata_logo-svg</title>
	<style>
		.s0 { fill: #486aae } 
	</style>
	<g id="Layer">
		<path id="Layer" fill-rule="evenodd" class="s0" d="m862.5 257.4c-22.6-0.5-38.1 6.8-48.4 19.8-12.6 15.8-11.6 72.3-11.2 97.5l6.6 653c-13.2 0.4-26.5 0.7-39.9 0.7-13.3 0-26.6-0.3-39.8-0.8l6.7-652.9c0.3-25.2 1.2-81.7-11.3-97.5-10.3-13-25.8-20.3-48.5-19.8-234.6 5-487.3 52.2-635 87.9 18.4-36.3 42.8-71.2 73.1-103.8 67.9-73.4 163.8-134.4 277.3-176.5 114.4-42.4 244.9-64.9 377.5-64.9 132.6 0 263 22.5 377.5 64.9 113.4 42.1 209.3 103.1 277.3 176.5 30.2 32.6 54.5 67.4 73 103.7-147.7-35.7-400.4-82.8-634.9-87.8zm676.4 256.8c0 225.5-218.3 417.4-521 486.6-8.9-36-60.8-248.4-102.5-495.1-1.1-7.5-2.1-14-3-19.2-12.3-84.7-10.7-129.1 113.5-122.2 142.4 7.9 286.8 17 503 65.9 6.6 27.5 10 55.7 10 84zm-914.1-14.7c-42.1 251.1-95.2 467.9-103.6 501.7-44.6-10-88-22.5-129.1-37.7-113.5-42.1-209.4-103.2-277.3-176.5-75-81-114.7-175.3-114.7-272.8 0-28.4 3.5-56.4 10.1-84 216.3-48.9 360.7-58 503.2-65.9 124.2-6.9 125.8 37.5 113.4 122.2-0.5 3.7-1.2 8.1-2 13z"/>
	</g>
</svg>